<?xml version="1.0" encoding="utf-8" standalone="no"?>
<!DOCTYPE svg PUBLIC "-//W3C//DTD SVG 1.1//EN"
  "http://www.w3.org/Graphics/SVG/1.1/DTD/svg11.dtd">
<svg height="180pt" version="1.1" viewBox="0 0 288 180" width="288pt" xmlns="http://www.w3.org/2000/svg" xmlns:xlink="http://www.w3.org/1999/xlink">
 <metadata>
  <rdf:RDF xmlns:cc="http://creativecommons.org/ns#" xmlns:dc="http://purl.org/dc/elements/1.1/" xmlns:rdf="http://www.w3.org/1999/02/22-rdf-syntax-ns#">
   <cc:Work>
    <dc:type rdf:resource="http://purl.org/dc/dcmitype/StillImage"/>
    <dc:date>2022-03-10T20:49:16.861964</dc:date>
    <dc:format>image/svg+xml</dc:format>
    <dc:creator>
     <cc:Agent>
      <dc:title>Matplotlib v3.4.3, https://matplotlib.org/</dc:title>
     </cc:Agent>
    </dc:creator>
   </cc:Work>
  </rdf:RDF>
 </metadata>
 <defs>
  <style type="text/css">*{stroke-linecap:butt;stroke-linejoin:round;}</style>
 </defs>
 <g id="figure_1">
  <g id="patch_1">
   <path d="M 0 180 
L 288 180 
L 288 0 
L 0 0 
z
" style="fill:none;"/>
  </g>
  <g id="axes_1">
   <g id="patch_2">
    <path d="M 50.8 138.2 
L 277.2 138.2 
L 277.2 10.8 
L 50.8 10.8 
z
" style="fill:#ffffff;"/>
   </g>
   <g id="matplotlib.axis_1">
    <g id="xtick_1">
     <g id="line2d_1">
      <defs>
       <path d="M 0 0 
L 0 3.5 
" id="mfd48d020ef" style="stroke:#000000;stroke-width:0.8;"/>
      </defs>
      <g>
       <use style="stroke:#000000;stroke-width:0.8;" x="61.090909" xlink:href="#mfd48d020ef" y="138.2"/>
      </g>
     </g>
     <g id="text_1">
      <!-- 0 -->
      <g transform="translate(57.909659 152.798438)scale(0.1 -0.1)">
       <defs>
        <path d="M 2034 4250 
Q 1547 4250 1301 3770 
Q 1056 3291 1056 2328 
Q 1056 1369 1301 889 
Q 1547 409 2034 409 
Q 2525 409 2770 889 
Q 3016 1369 3016 2328 
Q 3016 3291 2770 3770 
Q 2525 4250 2034 4250 
z
M 2034 4750 
Q 2819 4750 3233 4129 
Q 3647 3509 3647 2328 
Q 3647 1150 3233 529 
Q 2819 -91 2034 -91 
Q 1250 -91 836 529 
Q 422 1150 422 2328 
Q 422 3509 836 4129 
Q 1250 4750 2034 4750 
z
" id="DejaVuSans-30" transform="scale(0.015625)"/>
       </defs>
       <use xlink:href="#DejaVuSans-30"/>
      </g>
     </g>
    </g>
    <g id="xtick_2">
     <g id="line2d_2">
      <g>
       <use style="stroke:#000000;stroke-width:0.8;" x="100.625712" xlink:href="#mfd48d020ef" y="138.2"/>
      </g>
     </g>
     <g id="text_2">
      <!-- 2000 -->
      <g transform="translate(87.900712 152.798438)scale(0.1 -0.1)">
       <defs>
        <path d="M 1228 531 
L 3431 531 
L 3431 0 
L 469 0 
L 469 531 
Q 828 903 1448 1529 
Q 2069 2156 2228 2338 
Q 2531 2678 2651 2914 
Q 2772 3150 2772 3378 
Q 2772 3750 2511 3984 
Q 2250 4219 1831 4219 
Q 1534 4219 1204 4116 
Q 875 4013 500 3803 
L 500 4441 
Q 881 4594 1212 4672 
Q 1544 4750 1819 4750 
Q 2544 4750 2975 4387 
Q 3406 4025 3406 3419 
Q 3406 3131 3298 2873 
Q 3191 2616 2906 2266 
Q 2828 2175 2409 1742 
Q 1991 1309 1228 531 
z
" id="DejaVuSans-32" transform="scale(0.015625)"/>
       </defs>
       <use xlink:href="#DejaVuSans-32"/>
       <use x="63.623047" xlink:href="#DejaVuSans-30"/>
       <use x="127.246094" xlink:href="#DejaVuSans-30"/>
       <use x="190.869141" xlink:href="#DejaVuSans-30"/>
      </g>
     </g>
    </g>
    <g id="xtick_3">
     <g id="line2d_3">
      <g>
       <use style="stroke:#000000;stroke-width:0.8;" x="140.160514" xlink:href="#mfd48d020ef" y="138.2"/>
      </g>
     </g>
     <g id="text_3">
      <!-- 4000 -->
      <g transform="translate(127.435514 152.798438)scale(0.1 -0.1)">
       <defs>
        <path d="M 2419 4116 
L 825 1625 
L 2419 1625 
L 2419 4116 
z
M 2253 4666 
L 3047 4666 
L 3047 1625 
L 3713 1625 
L 3713 1100 
L 3047 1100 
L 3047 0 
L 2419 0 
L 2419 1100 
L 313 1100 
L 313 1709 
L 2253 4666 
z
" id="DejaVuSans-34" transform="scale(0.015625)"/>
       </defs>
       <use xlink:href="#DejaVuSans-34"/>
       <use x="63.623047" xlink:href="#DejaVuSans-30"/>
       <use x="127.246094" xlink:href="#DejaVuSans-30"/>
       <use x="190.869141" xlink:href="#DejaVuSans-30"/>
      </g>
     </g>
    </g>
    <g id="xtick_4">
     <g id="line2d_4">
      <g>
       <use style="stroke:#000000;stroke-width:0.8;" x="179.695317" xlink:href="#mfd48d020ef" y="138.2"/>
      </g>
     </g>
     <g id="text_4">
      <!-- 6000 -->
      <g transform="translate(166.970317 152.798438)scale(0.1 -0.1)">
       <defs>
        <path d="M 2113 2584 
Q 1688 2584 1439 2293 
Q 1191 2003 1191 1497 
Q 1191 994 1439 701 
Q 1688 409 2113 409 
Q 2538 409 2786 701 
Q 3034 994 3034 1497 
Q 3034 2003 2786 2293 
Q 2538 2584 2113 2584 
z
M 3366 4563 
L 3366 3988 
Q 3128 4100 2886 4159 
Q 2644 4219 2406 4219 
Q 1781 4219 1451 3797 
Q 1122 3375 1075 2522 
Q 1259 2794 1537 2939 
Q 1816 3084 2150 3084 
Q 2853 3084 3261 2657 
Q 3669 2231 3669 1497 
Q 3669 778 3244 343 
Q 2819 -91 2113 -91 
Q 1303 -91 875 529 
Q 447 1150 447 2328 
Q 447 3434 972 4092 
Q 1497 4750 2381 4750 
Q 2619 4750 2861 4703 
Q 3103 4656 3366 4563 
z
" id="DejaVuSans-36" transform="scale(0.015625)"/>
       </defs>
       <use xlink:href="#DejaVuSans-36"/>
       <use x="63.623047" xlink:href="#DejaVuSans-30"/>
       <use x="127.246094" xlink:href="#DejaVuSans-30"/>
       <use x="190.869141" xlink:href="#DejaVuSans-30"/>
      </g>
     </g>
    </g>
    <g id="xtick_5">
     <g id="line2d_5">
      <g>
       <use style="stroke:#000000;stroke-width:0.8;" x="219.230119" xlink:href="#mfd48d020ef" y="138.2"/>
      </g>
     </g>
     <g id="text_5">
      <!-- 8000 -->
      <g transform="translate(206.505119 152.798438)scale(0.1 -0.1)">
       <defs>
        <path d="M 2034 2216 
Q 1584 2216 1326 1975 
Q 1069 1734 1069 1313 
Q 1069 891 1326 650 
Q 1584 409 2034 409 
Q 2484 409 2743 651 
Q 3003 894 3003 1313 
Q 3003 1734 2745 1975 
Q 2488 2216 2034 2216 
z
M 1403 2484 
Q 997 2584 770 2862 
Q 544 3141 544 3541 
Q 544 4100 942 4425 
Q 1341 4750 2034 4750 
Q 2731 4750 3128 4425 
Q 3525 4100 3525 3541 
Q 3525 3141 3298 2862 
Q 3072 2584 2669 2484 
Q 3125 2378 3379 2068 
Q 3634 1759 3634 1313 
Q 3634 634 3220 271 
Q 2806 -91 2034 -91 
Q 1263 -91 848 271 
Q 434 634 434 1313 
Q 434 1759 690 2068 
Q 947 2378 1403 2484 
z
M 1172 3481 
Q 1172 3119 1398 2916 
Q 1625 2713 2034 2713 
Q 2441 2713 2670 2916 
Q 2900 3119 2900 3481 
Q 2900 3844 2670 4047 
Q 2441 4250 2034 4250 
Q 1625 4250 1398 4047 
Q 1172 3844 1172 3481 
z
" id="DejaVuSans-38" transform="scale(0.015625)"/>
       </defs>
       <use xlink:href="#DejaVuSans-38"/>
       <use x="63.623047" xlink:href="#DejaVuSans-30"/>
       <use x="127.246094" xlink:href="#DejaVuSans-30"/>
       <use x="190.869141" xlink:href="#DejaVuSans-30"/>
      </g>
     </g>
    </g>
    <g id="xtick_6">
     <g id="line2d_6">
      <g>
       <use style="stroke:#000000;stroke-width:0.8;" x="258.764922" xlink:href="#mfd48d020ef" y="138.2"/>
      </g>
     </g>
     <g id="text_6">
      <!-- 10000 -->
      <g transform="translate(242.858672 152.798438)scale(0.1 -0.1)">
       <defs>
        <path d="M 794 531 
L 1825 531 
L 1825 4091 
L 703 3866 
L 703 4441 
L 1819 4666 
L 2450 4666 
L 2450 531 
L 3481 531 
L 3481 0 
L 794 0 
L 794 531 
z
" id="DejaVuSans-31" transform="scale(0.015625)"/>
       </defs>
       <use xlink:href="#DejaVuSans-31"/>
       <use x="63.623047" xlink:href="#DejaVuSans-30"/>
       <use x="127.246094" xlink:href="#DejaVuSans-30"/>
       <use x="190.869141" xlink:href="#DejaVuSans-30"/>
       <use x="254.492188" xlink:href="#DejaVuSans-30"/>
      </g>
     </g>
    </g>
    <g id="text_7">
     <!-- Time [sec] -->
     <g transform="translate(137.845313 166.476562)scale(0.1 -0.1)">
      <defs>
       <path d="M -19 4666 
L 3928 4666 
L 3928 4134 
L 2272 4134 
L 2272 0 
L 1638 0 
L 1638 4134 
L -19 4134 
L -19 4666 
z
" id="DejaVuSans-54" transform="scale(0.015625)"/>
       <path d="M 603 3500 
L 1178 3500 
L 1178 0 
L 603 0 
L 603 3500 
z
M 603 4863 
L 1178 4863 
L 1178 4134 
L 603 4134 
L 603 4863 
z
" id="DejaVuSans-69" transform="scale(0.015625)"/>
       <path d="M 3328 2828 
Q 3544 3216 3844 3400 
Q 4144 3584 4550 3584 
Q 5097 3584 5394 3201 
Q 5691 2819 5691 2113 
L 5691 0 
L 5113 0 
L 5113 2094 
Q 5113 2597 4934 2840 
Q 4756 3084 4391 3084 
Q 3944 3084 3684 2787 
Q 3425 2491 3425 1978 
L 3425 0 
L 2847 0 
L 2847 2094 
Q 2847 2600 2669 2842 
Q 2491 3084 2119 3084 
Q 1678 3084 1418 2786 
Q 1159 2488 1159 1978 
L 1159 0 
L 581 0 
L 581 3500 
L 1159 3500 
L 1159 2956 
Q 1356 3278 1631 3431 
Q 1906 3584 2284 3584 
Q 2666 3584 2933 3390 
Q 3200 3197 3328 2828 
z
" id="DejaVuSans-6d" transform="scale(0.015625)"/>
       <path d="M 3597 1894 
L 3597 1613 
L 953 1613 
Q 991 1019 1311 708 
Q 1631 397 2203 397 
Q 2534 397 2845 478 
Q 3156 559 3463 722 
L 3463 178 
Q 3153 47 2828 -22 
Q 2503 -91 2169 -91 
Q 1331 -91 842 396 
Q 353 884 353 1716 
Q 353 2575 817 3079 
Q 1281 3584 2069 3584 
Q 2775 3584 3186 3129 
Q 3597 2675 3597 1894 
z
M 3022 2063 
Q 3016 2534 2758 2815 
Q 2500 3097 2075 3097 
Q 1594 3097 1305 2825 
Q 1016 2553 972 2059 
L 3022 2063 
z
" id="DejaVuSans-65" transform="scale(0.015625)"/>
       <path id="DejaVuSans-20" transform="scale(0.015625)"/>
       <path d="M 550 4863 
L 1875 4863 
L 1875 4416 
L 1125 4416 
L 1125 -397 
L 1875 -397 
L 1875 -844 
L 550 -844 
L 550 4863 
z
" id="DejaVuSans-5b" transform="scale(0.015625)"/>
       <path d="M 2834 3397 
L 2834 2853 
Q 2591 2978 2328 3040 
Q 2066 3103 1784 3103 
Q 1356 3103 1142 2972 
Q 928 2841 928 2578 
Q 928 2378 1081 2264 
Q 1234 2150 1697 2047 
L 1894 2003 
Q 2506 1872 2764 1633 
Q 3022 1394 3022 966 
Q 3022 478 2636 193 
Q 2250 -91 1575 -91 
Q 1294 -91 989 -36 
Q 684 19 347 128 
L 347 722 
Q 666 556 975 473 
Q 1284 391 1588 391 
Q 1994 391 2212 530 
Q 2431 669 2431 922 
Q 2431 1156 2273 1281 
Q 2116 1406 1581 1522 
L 1381 1569 
Q 847 1681 609 1914 
Q 372 2147 372 2553 
Q 372 3047 722 3315 
Q 1072 3584 1716 3584 
Q 2034 3584 2315 3537 
Q 2597 3491 2834 3397 
z
" id="DejaVuSans-73" transform="scale(0.015625)"/>
       <path d="M 3122 3366 
L 3122 2828 
Q 2878 2963 2633 3030 
Q 2388 3097 2138 3097 
Q 1578 3097 1268 2742 
Q 959 2388 959 1747 
Q 959 1106 1268 751 
Q 1578 397 2138 397 
Q 2388 397 2633 464 
Q 2878 531 3122 666 
L 3122 134 
Q 2881 22 2623 -34 
Q 2366 -91 2075 -91 
Q 1284 -91 818 406 
Q 353 903 353 1747 
Q 353 2603 823 3093 
Q 1294 3584 2113 3584 
Q 2378 3584 2631 3529 
Q 2884 3475 3122 3366 
z
" id="DejaVuSans-63" transform="scale(0.015625)"/>
       <path d="M 1947 4863 
L 1947 -844 
L 622 -844 
L 622 -397 
L 1369 -397 
L 1369 4416 
L 622 4416 
L 622 4863 
L 1947 4863 
z
" id="DejaVuSans-5d" transform="scale(0.015625)"/>
      </defs>
      <use xlink:href="#DejaVuSans-54"/>
      <use x="57.958984" xlink:href="#DejaVuSans-69"/>
      <use x="85.742188" xlink:href="#DejaVuSans-6d"/>
      <use x="183.154297" xlink:href="#DejaVuSans-65"/>
      <use x="244.677734" xlink:href="#DejaVuSans-20"/>
      <use x="276.464844" xlink:href="#DejaVuSans-5b"/>
      <use x="315.478516" xlink:href="#DejaVuSans-73"/>
      <use x="367.578125" xlink:href="#DejaVuSans-65"/>
      <use x="429.101562" xlink:href="#DejaVuSans-63"/>
      <use x="484.082031" xlink:href="#DejaVuSans-5d"/>
     </g>
    </g>
   </g>
   <g id="matplotlib.axis_2">
    <g id="ytick_1">
     <g id="line2d_7">
      <defs>
       <path d="M 0 0 
L -3.5 0 
" id="m0930b83f60" style="stroke:#000000;stroke-width:0.8;"/>
      </defs>
      <g>
       <use style="stroke:#000000;stroke-width:0.8;" x="50.8" xlink:href="#m0930b83f60" y="132.409091"/>
      </g>
     </g>
     <g id="text_8">
      <!-- 0 -->
      <g transform="translate(37.4375 136.20831)scale(0.1 -0.1)">
       <use xlink:href="#DejaVuSans-30"/>
      </g>
     </g>
    </g>
    <g id="ytick_2">
     <g id="line2d_8">
      <g>
       <use style="stroke:#000000;stroke-width:0.8;" x="50.8" xlink:href="#m0930b83f60" y="94.805785"/>
      </g>
     </g>
     <g id="text_9">
      <!-- 50 -->
      <g transform="translate(31.075 98.605004)scale(0.1 -0.1)">
       <defs>
        <path d="M 691 4666 
L 3169 4666 
L 3169 4134 
L 1269 4134 
L 1269 2991 
Q 1406 3038 1543 3061 
Q 1681 3084 1819 3084 
Q 2600 3084 3056 2656 
Q 3513 2228 3513 1497 
Q 3513 744 3044 326 
Q 2575 -91 1722 -91 
Q 1428 -91 1123 -41 
Q 819 9 494 109 
L 494 744 
Q 775 591 1075 516 
Q 1375 441 1709 441 
Q 2250 441 2565 725 
Q 2881 1009 2881 1497 
Q 2881 1984 2565 2268 
Q 2250 2553 1709 2553 
Q 1456 2553 1204 2497 
Q 953 2441 691 2322 
L 691 4666 
z
" id="DejaVuSans-35" transform="scale(0.015625)"/>
       </defs>
       <use xlink:href="#DejaVuSans-35"/>
       <use x="63.623047" xlink:href="#DejaVuSans-30"/>
      </g>
     </g>
    </g>
    <g id="ytick_3">
     <g id="line2d_9">
      <g>
       <use style="stroke:#000000;stroke-width:0.8;" x="50.8" xlink:href="#m0930b83f60" y="57.202479"/>
      </g>
     </g>
     <g id="text_10">
      <!-- 100 -->
      <g transform="translate(24.7125 61.001698)scale(0.1 -0.1)">
       <use xlink:href="#DejaVuSans-31"/>
       <use x="63.623047" xlink:href="#DejaVuSans-30"/>
       <use x="127.246094" xlink:href="#DejaVuSans-30"/>
      </g>
     </g>
    </g>
    <g id="ytick_4">
     <g id="line2d_10">
      <g>
       <use style="stroke:#000000;stroke-width:0.8;" x="50.8" xlink:href="#m0930b83f60" y="19.599174"/>
      </g>
     </g>
     <g id="text_11">
      <!-- 150 -->
      <g transform="translate(24.7125 23.398392)scale(0.1 -0.1)">
       <use xlink:href="#DejaVuSans-31"/>
       <use x="63.623047" xlink:href="#DejaVuSans-35"/>
       <use x="127.246094" xlink:href="#DejaVuSans-30"/>
      </g>
     </g>
    </g>
    <g id="text_12">
     <!-- CPU utilization [%] -->
     <g transform="translate(18.632812 121.057813)rotate(-90)scale(0.1 -0.1)">
      <defs>
       <path d="M 4122 4306 
L 4122 3641 
Q 3803 3938 3442 4084 
Q 3081 4231 2675 4231 
Q 1875 4231 1450 3742 
Q 1025 3253 1025 2328 
Q 1025 1406 1450 917 
Q 1875 428 2675 428 
Q 3081 428 3442 575 
Q 3803 722 4122 1019 
L 4122 359 
Q 3791 134 3420 21 
Q 3050 -91 2638 -91 
Q 1578 -91 968 557 
Q 359 1206 359 2328 
Q 359 3453 968 4101 
Q 1578 4750 2638 4750 
Q 3056 4750 3426 4639 
Q 3797 4528 4122 4306 
z
" id="DejaVuSans-43" transform="scale(0.015625)"/>
       <path d="M 1259 4147 
L 1259 2394 
L 2053 2394 
Q 2494 2394 2734 2622 
Q 2975 2850 2975 3272 
Q 2975 3691 2734 3919 
Q 2494 4147 2053 4147 
L 1259 4147 
z
M 628 4666 
L 2053 4666 
Q 2838 4666 3239 4311 
Q 3641 3956 3641 3272 
Q 3641 2581 3239 2228 
Q 2838 1875 2053 1875 
L 1259 1875 
L 1259 0 
L 628 0 
L 628 4666 
z
" id="DejaVuSans-50" transform="scale(0.015625)"/>
       <path d="M 556 4666 
L 1191 4666 
L 1191 1831 
Q 1191 1081 1462 751 
Q 1734 422 2344 422 
Q 2950 422 3222 751 
Q 3494 1081 3494 1831 
L 3494 4666 
L 4128 4666 
L 4128 1753 
Q 4128 841 3676 375 
Q 3225 -91 2344 -91 
Q 1459 -91 1007 375 
Q 556 841 556 1753 
L 556 4666 
z
" id="DejaVuSans-55" transform="scale(0.015625)"/>
       <path d="M 544 1381 
L 544 3500 
L 1119 3500 
L 1119 1403 
Q 1119 906 1312 657 
Q 1506 409 1894 409 
Q 2359 409 2629 706 
Q 2900 1003 2900 1516 
L 2900 3500 
L 3475 3500 
L 3475 0 
L 2900 0 
L 2900 538 
Q 2691 219 2414 64 
Q 2138 -91 1772 -91 
Q 1169 -91 856 284 
Q 544 659 544 1381 
z
M 1991 3584 
L 1991 3584 
z
" id="DejaVuSans-75" transform="scale(0.015625)"/>
       <path d="M 1172 4494 
L 1172 3500 
L 2356 3500 
L 2356 3053 
L 1172 3053 
L 1172 1153 
Q 1172 725 1289 603 
Q 1406 481 1766 481 
L 2356 481 
L 2356 0 
L 1766 0 
Q 1100 0 847 248 
Q 594 497 594 1153 
L 594 3053 
L 172 3053 
L 172 3500 
L 594 3500 
L 594 4494 
L 1172 4494 
z
" id="DejaVuSans-74" transform="scale(0.015625)"/>
       <path d="M 603 4863 
L 1178 4863 
L 1178 0 
L 603 0 
L 603 4863 
z
" id="DejaVuSans-6c" transform="scale(0.015625)"/>
       <path d="M 353 3500 
L 3084 3500 
L 3084 2975 
L 922 459 
L 3084 459 
L 3084 0 
L 275 0 
L 275 525 
L 2438 3041 
L 353 3041 
L 353 3500 
z
" id="DejaVuSans-7a" transform="scale(0.015625)"/>
       <path d="M 2194 1759 
Q 1497 1759 1228 1600 
Q 959 1441 959 1056 
Q 959 750 1161 570 
Q 1363 391 1709 391 
Q 2188 391 2477 730 
Q 2766 1069 2766 1631 
L 2766 1759 
L 2194 1759 
z
M 3341 1997 
L 3341 0 
L 2766 0 
L 2766 531 
Q 2569 213 2275 61 
Q 1981 -91 1556 -91 
Q 1019 -91 701 211 
Q 384 513 384 1019 
Q 384 1609 779 1909 
Q 1175 2209 1959 2209 
L 2766 2209 
L 2766 2266 
Q 2766 2663 2505 2880 
Q 2244 3097 1772 3097 
Q 1472 3097 1187 3025 
Q 903 2953 641 2809 
L 641 3341 
Q 956 3463 1253 3523 
Q 1550 3584 1831 3584 
Q 2591 3584 2966 3190 
Q 3341 2797 3341 1997 
z
" id="DejaVuSans-61" transform="scale(0.015625)"/>
       <path d="M 1959 3097 
Q 1497 3097 1228 2736 
Q 959 2375 959 1747 
Q 959 1119 1226 758 
Q 1494 397 1959 397 
Q 2419 397 2687 759 
Q 2956 1122 2956 1747 
Q 2956 2369 2687 2733 
Q 2419 3097 1959 3097 
z
M 1959 3584 
Q 2709 3584 3137 3096 
Q 3566 2609 3566 1747 
Q 3566 888 3137 398 
Q 2709 -91 1959 -91 
Q 1206 -91 779 398 
Q 353 888 353 1747 
Q 353 2609 779 3096 
Q 1206 3584 1959 3584 
z
" id="DejaVuSans-6f" transform="scale(0.015625)"/>
       <path d="M 3513 2113 
L 3513 0 
L 2938 0 
L 2938 2094 
Q 2938 2591 2744 2837 
Q 2550 3084 2163 3084 
Q 1697 3084 1428 2787 
Q 1159 2491 1159 1978 
L 1159 0 
L 581 0 
L 581 3500 
L 1159 3500 
L 1159 2956 
Q 1366 3272 1645 3428 
Q 1925 3584 2291 3584 
Q 2894 3584 3203 3211 
Q 3513 2838 3513 2113 
z
" id="DejaVuSans-6e" transform="scale(0.015625)"/>
       <path d="M 4653 2053 
Q 4381 2053 4226 1822 
Q 4072 1591 4072 1178 
Q 4072 772 4226 539 
Q 4381 306 4653 306 
Q 4919 306 5073 539 
Q 5228 772 5228 1178 
Q 5228 1588 5073 1820 
Q 4919 2053 4653 2053 
z
M 4653 2450 
Q 5147 2450 5437 2106 
Q 5728 1763 5728 1178 
Q 5728 594 5436 251 
Q 5144 -91 4653 -91 
Q 4153 -91 3862 251 
Q 3572 594 3572 1178 
Q 3572 1766 3864 2108 
Q 4156 2450 4653 2450 
z
M 1428 4353 
Q 1159 4353 1004 4120 
Q 850 3888 850 3481 
Q 850 3069 1003 2837 
Q 1156 2606 1428 2606 
Q 1700 2606 1854 2837 
Q 2009 3069 2009 3481 
Q 2009 3884 1853 4118 
Q 1697 4353 1428 4353 
z
M 4250 4750 
L 4750 4750 
L 1831 -91 
L 1331 -91 
L 4250 4750 
z
M 1428 4750 
Q 1922 4750 2215 4408 
Q 2509 4066 2509 3481 
Q 2509 2891 2217 2550 
Q 1925 2209 1428 2209 
Q 931 2209 642 2551 
Q 353 2894 353 3481 
Q 353 4063 643 4406 
Q 934 4750 1428 4750 
z
" id="DejaVuSans-25" transform="scale(0.015625)"/>
      </defs>
      <use xlink:href="#DejaVuSans-43"/>
      <use x="69.824219" xlink:href="#DejaVuSans-50"/>
      <use x="130.126953" xlink:href="#DejaVuSans-55"/>
      <use x="203.320312" xlink:href="#DejaVuSans-20"/>
      <use x="235.107422" xlink:href="#DejaVuSans-75"/>
      <use x="298.486328" xlink:href="#DejaVuSans-74"/>
      <use x="337.695312" xlink:href="#DejaVuSans-69"/>
      <use x="365.478516" xlink:href="#DejaVuSans-6c"/>
      <use x="393.261719" xlink:href="#DejaVuSans-69"/>
      <use x="421.044922" xlink:href="#DejaVuSans-7a"/>
      <use x="473.535156" xlink:href="#DejaVuSans-61"/>
      <use x="534.814453" xlink:href="#DejaVuSans-74"/>
      <use x="574.023438" xlink:href="#DejaVuSans-69"/>
      <use x="601.806641" xlink:href="#DejaVuSans-6f"/>
      <use x="662.988281" xlink:href="#DejaVuSans-6e"/>
      <use x="726.367188" xlink:href="#DejaVuSans-20"/>
      <use x="758.154297" xlink:href="#DejaVuSans-5b"/>
      <use x="797.167969" xlink:href="#DejaVuSans-25"/>
      <use x="892.1875" xlink:href="#DejaVuSans-5d"/>
     </g>
    </g>
   </g>
   <g id="line2d_11">
    <path clip-path="url(#pfe4a4f52c5)" d="M 61.090909 94.805785 
L 266.909091 94.805785 
L 266.909091 94.805785 
" style="fill:none;stroke:#000000;stroke-dasharray:5.55,2.4;stroke-dashoffset:0;stroke-width:1.5;"/>
   </g>
   <g id="line2d_12">
    <path clip-path="url(#pfe4a4f52c5)" d="M 61.090909 132.409091 
L 61.486257 132.409091 
L 61.683931 128.64876 
L 61.901373 128.64876 
L 62.099047 130.904959 
L 62.296721 127.896694 
L 62.494395 127.896694 
L 62.711836 132.409091 
L 62.90951 127.896694 
L 63.107184 127.896694 
L 63.304858 132.409091 
L 63.522299 127.896694 
L 63.719973 132.409091 
L 63.917647 132.409091 
L 64.115321 127.144628 
L 64.332763 132.409091 
L 64.530437 132.409091 
L 64.728111 128.64876 
L 64.925785 132.409091 
L 65.143226 132.409091 
L 65.3409 127.144628 
L 65.538574 132.409091 
L 65.736248 132.409091 
L 65.95369 127.144628 
L 66.151364 132.409091 
L 66.349038 132.409091 
L 66.546712 128.64876 
L 66.764153 132.409091 
L 66.961827 132.409091 
L 67.159501 127.144628 
L 67.357175 132.409091 
L 67.574617 126.392562 
L 67.772291 126.392562 
L 67.969965 132.409091 
L 68.167639 127.896694 
L 68.38508 127.896694 
L 68.582754 132.409091 
L 68.780428 128.64876 
L 68.978102 128.64876 
L 69.195544 130.904959 
L 69.393218 126.392562 
L 69.590892 126.392562 
L 69.788566 132.409091 
L 70.006007 128.64876 
L 70.203681 128.64876 
L 70.401355 132.409091 
L 70.618796 127.144628 
L 70.816471 127.144628 
L 71.014145 132.409091 
L 71.211819 126.392562 
L 71.42926 126.392562 
L 71.626934 132.409091 
L 71.824608 129.400826 
L 72.022282 128.64876 
L 72.239723 128.64876 
L 72.437397 127.896694 
L 72.635071 131.657025 
L 72.832745 131.657025 
L 73.050187 130.904959 
L 73.247861 132.409091 
L 73.445535 132.409091 
L 73.643209 128.64876 
L 73.86065 132.409091 
L 74.058324 132.409091 
L 74.255998 128.64876 
L 74.453672 132.409091 
L 74.671114 132.409091 
L 74.868788 129.400826 
L 75.066462 130.904959 
L 75.264136 130.904959 
L 75.481577 127.144628 
L 75.679251 132.409091 
L 75.876925 127.144628 
L 76.074599 127.144628 
L 76.292041 132.409091 
L 76.489715 127.896694 
L 76.687389 127.896694 
L 76.885063 132.409091 
L 77.102504 128.64876 
L 77.300178 128.64876 
L 77.497852 130.152893 
L 77.912968 130.152893 
L 78.110642 132.409091 
L 78.308316 127.144628 
L 78.50599 127.144628 
L 78.723431 132.409091 
L 97.166416 132.409091 
L 97.36409 124.136364 
L 97.561764 129.400826 
L 97.759438 129.400826 
L 97.97688 124.88843 
L 98.174554 132.409091 
L 98.372228 132.409091 
L 98.569902 119.623967 
L 98.787343 131.657025 
L 98.985017 131.657025 
L 99.182691 127.896694 
L 99.380365 130.152893 
L 99.597807 130.152893 
L 99.795481 123.384298 
L 99.993155 132.409091 
L 100.190829 132.409091 
L 100.40827 121.880165 
L 100.605944 127.896694 
L 100.803618 121.128099 
L 101.02106 121.128099 
L 101.218734 132.409091 
L 101.416408 121.128099 
L 101.614082 121.128099 
L 101.831523 132.409091 
L 102.029197 127.896694 
L 102.839661 127.896694 
L 103.037335 132.409091 
L 103.235009 121.880165 
L 103.45245 121.880165 
L 103.650124 132.409091 
L 103.847798 121.880165 
L 104.045472 121.880165 
L 104.262913 132.409091 
L 104.460587 121.128099 
L 104.658261 121.128099 
L 104.855935 128.64876 
L 105.073377 122.632231 
L 105.271051 132.409091 
L 105.468725 132.409091 
L 105.666399 123.384298 
L 105.88384 128.64876 
L 106.081514 128.64876 
L 106.279188 126.392562 
L 106.476862 132.409091 
L 106.694304 132.409091 
L 106.891978 123.384298 
L 107.089652 130.904959 
L 107.504767 130.904959 
L 107.702441 125.640496 
L 107.900115 125.640496 
L 108.097789 124.88843 
L 108.315231 130.904959 
L 108.512905 130.904959 
L 108.710579 127.144628 
L 108.908253 129.400826 
L 109.125694 123.384298 
L 109.323368 123.384298 
L 109.521042 132.409091 
L 109.718716 123.384298 
L 109.936158 123.384298 
L 110.133832 132.409091 
L 110.331506 128.64876 
L 110.52918 128.64876 
L 110.746621 124.136364 
L 111.141969 124.136364 
L 111.339643 132.409091 
L 111.557084 124.136364 
L 111.754758 124.136364 
L 111.952433 132.409091 
L 112.169874 124.88843 
L 112.367548 124.88843 
L 112.565222 132.409091 
L 112.762896 121.128099 
L 112.980337 121.128099 
L 113.178011 132.409091 
L 113.375685 126.392562 
L 113.573359 127.896694 
L 113.790801 127.896694 
L 113.988475 124.88843 
L 114.186149 132.409091 
L 132.43146 132.409091 
L 132.629134 128.64876 
L 132.846576 128.64876 
L 133.04425 120.376033 
L 133.241924 130.904959 
L 133.439598 130.904959 
L 133.657039 115.11157 
L 133.854713 132.409091 
L 134.052387 112.855372 
L 134.250061 112.855372 
L 134.467503 132.409091 
L 134.665177 109.847107 
L 134.862851 109.847107 
L 135.060525 132.409091 
L 135.277966 109.847107 
L 135.47564 109.847107 
L 135.673314 132.409091 
L 135.870988 108.342975 
L 136.088429 108.342975 
L 136.286103 132.409091 
L 136.483777 109.095041 
L 136.681451 109.095041 
L 136.898893 132.409091 
L 137.096567 115.11157 
L 137.294241 115.11157 
L 137.491915 132.409091 
L 137.709356 113.607438 
L 137.90703 132.409091 
L 138.104704 132.409091 
L 138.322146 109.095041 
L 138.51982 132.409091 
L 138.717494 132.409091 
L 138.915168 123.384298 
L 139.132609 121.880165 
L 139.330283 121.880165 
L 139.527957 124.88843 
L 139.725631 123.384298 
L 139.943073 123.384298 
L 140.140747 112.855372 
L 140.338421 130.904959 
L 140.536095 130.904959 
L 140.753536 112.855372 
L 140.95121 123.384298 
L 141.148884 123.384298 
L 141.346558 121.128099 
L 141.564 132.409091 
L 141.761674 132.409091 
L 141.959348 111.35124 
L 142.157022 132.409091 
L 142.374463 115.11157 
L 142.572137 115.11157 
L 142.769811 132.409091 
L 142.967485 108.342975 
L 143.184926 108.342975 
L 143.3826 132.409091 
L 143.580275 104.582645 
L 143.777949 104.582645 
L 143.99539 119.623967 
L 144.193064 118.119835 
L 144.390738 118.119835 
L 144.588412 130.152893 
L 144.805853 124.88843 
L 145.003527 124.88843 
L 145.201201 124.136364 
L 145.418643 116.615702 
L 145.616317 116.615702 
L 145.813991 127.144628 
L 146.011665 112.855372 
L 146.229106 132.409091 
L 146.42678 132.409091 
L 146.624454 124.88843 
L 146.822128 127.144628 
L 147.03957 127.144628 
L 147.237244 116.615702 
L 147.434918 127.144628 
L 147.632592 127.144628 
L 147.850033 112.855372 
L 148.047707 132.409091 
L 148.245381 132.409091 
L 148.443055 106.086777 
L 148.660497 132.409091 
L 148.858171 132.409091 
L 149.055845 116.615702 
L 149.253519 126.392562 
L 149.47096 126.392562 
L 149.668634 115.863636 
L 149.866308 132.409091 
L 168.309293 132.409091 
L 168.526735 96.309917 
L 168.724409 96.309917 
L 168.922083 132.409091 
L 169.119757 89.541322 
L 169.337198 89.541322 
L 169.534872 132.409091 
L 169.732546 87.285124 
L 169.949988 87.285124 
L 170.147662 130.904959 
L 170.345336 97.061983 
L 170.54301 132.409091 
L 170.760451 132.409091 
L 170.958125 111.35124 
L 171.155799 132.409091 
L 171.353473 132.409091 
L 171.570915 97.81405 
L 171.768589 121.880165 
L 171.966263 121.880165 
L 172.163937 104.582645 
L 172.381378 127.896694 
L 172.579052 127.896694 
L 172.776726 107.590909 
L 172.9744 132.409091 
L 173.191842 132.409091 
L 173.389516 100.822314 
L 173.58719 132.409091 
L 173.784864 132.409091 
L 174.002305 106.086777 
L 174.199979 132.409091 
L 174.397653 132.409091 
L 174.595327 100.822314 
L 174.812768 132.409091 
L 175.010442 103.078512 
L 175.208117 103.078512 
L 175.425558 131.657025 
L 175.623232 103.078512 
L 175.820906 103.078512 
L 176.01858 124.88843 
L 176.236021 108.342975 
L 176.433695 108.342975 
L 176.631369 132.409091 
L 176.829043 116.615702 
L 177.046485 116.615702 
L 177.244159 117.367769 
L 177.441833 124.136364 
L 177.639507 124.136364 
L 177.856948 120.376033 
L 178.054622 123.384298 
L 178.252296 123.384298 
L 178.667412 108.342975 
L 178.865086 127.896694 
L 179.06276 127.896694 
L 179.260434 115.863636 
L 179.477875 127.896694 
L 179.675549 127.896694 
L 179.873223 114.359504 
L 180.070897 127.896694 
L 180.288339 127.896694 
L 180.486013 116.615702 
L 180.881361 116.615702 
L 181.098802 121.128099 
L 181.296476 119.623967 
L 181.49415 119.623967 
L 181.691824 110.599174 
L 181.909266 118.119835 
L 182.10694 118.119835 
L 182.304614 109.847107 
L 182.522055 116.615702 
L 182.719729 91.045455 
L 182.917403 91.045455 
L 183.115077 129.400826 
L 183.332518 103.830579 
L 183.530192 103.830579 
L 183.727866 131.657025 
L 183.92554 110.599174 
L 184.142982 110.599174 
L 184.340656 124.88843 
L 184.53833 104.582645 
L 184.736004 104.582645 
L 184.953445 131.657025 
L 185.151119 115.11157 
L 185.348793 115.11157 
L 185.763909 132.409091 
L 204.00922 132.409091 
L 204.206894 54.194215 
L 204.404568 82.020661 
L 204.62201 82.020661 
L 204.819684 86.533058 
L 205.017358 130.904959 
L 205.215032 130.904959 
L 205.432473 105.334711 
L 205.630147 121.880165 
L 205.827821 121.880165 
L 206.025495 104.582645 
L 206.242936 130.152893 
L 206.44061 130.152893 
L 206.638284 117.367769 
L 206.835959 121.128099 
L 207.0534 106.838843 
L 207.251074 106.838843 
L 207.448748 128.64876 
L 207.646422 102.326446 
L 207.863863 102.326446 
L 208.061537 127.896694 
L 208.259211 110.599174 
L 208.476653 110.599174 
L 208.674327 123.384298 
L 208.872001 106.086777 
L 209.069675 106.086777 
L 209.287116 123.384298 
L 209.48479 108.342975 
L 209.682464 108.342975 
L 209.880138 121.880165 
L 210.09758 119.623967 
L 210.295254 119.623967 
L 210.492928 121.128099 
L 210.690602 111.35124 
L 210.908043 111.35124 
L 211.105717 113.607438 
L 211.303391 112.103306 
L 211.501065 115.11157 
L 211.718507 115.11157 
L 211.916181 103.078512 
L 212.113855 114.359504 
L 212.311529 114.359504 
L 212.52897 100.822314 
L 212.726644 118.871901 
L 212.924318 118.871901 
L 213.14176 109.095041 
L 213.339434 114.359504 
L 213.537108 114.359504 
L 213.734782 100.070248 
L 213.952223 124.88843 
L 214.149897 124.88843 
L 214.347571 100.822314 
L 214.545245 124.136364 
L 214.762686 124.136364 
L 214.96036 107.590909 
L 215.158034 109.847107 
L 215.355708 127.896694 
L 215.57315 127.896694 
L 215.770824 106.086777 
L 215.968498 118.119835 
L 216.166172 118.119835 
L 216.581287 102.326446 
L 216.778961 102.326446 
L 216.996403 115.11157 
L 217.194077 112.103306 
L 217.589425 112.103306 
L 217.806866 107.590909 
L 218.00454 107.590909 
L 218.399888 122.632231 
L 218.61733 122.632231 
L 218.815004 94.805785 
L 219.012678 127.144628 
L 219.210352 97.81405 
L 219.427793 97.81405 
L 219.625467 120.376033 
L 219.823141 106.838843 
L 220.020815 106.838843 
L 220.238257 110.599174 
L 220.435931 107.590909 
L 220.633605 107.590909 
L 220.851046 116.615702 
L 221.04872 106.086777 
L 221.246394 106.086777 
L 221.444068 132.409091 
L 239.511473 132.409091 
L 239.709147 83.524793 
L 239.906821 83.524793 
L 240.104495 16.590909 
L 240.321936 79.012397 
L 240.51961 79.012397 
L 240.717284 79.764463 
L 240.914958 81.268595 
L 241.1324 81.268595 
L 241.330074 127.144628 
L 241.527748 91.045455 
L 241.745189 91.045455 
L 241.942863 121.128099 
L 242.140537 97.061983 
L 242.338211 97.061983 
L 242.555653 118.119835 
L 242.753327 103.078512 
L 242.951001 98.566116 
L 243.148675 98.566116 
L 243.56379 118.119835 
L 243.761464 118.119835 
L 243.978905 106.086777 
L 244.176579 109.847107 
L 244.374253 109.847107 
L 244.571927 111.35124 
L 244.789369 108.342975 
L 244.987043 108.342975 
L 245.184717 105.334711 
L 245.382391 119.623967 
L 245.599832 119.623967 
L 245.99518 109.095041 
L 246.192854 109.095041 
L 246.60797 112.855372 
L 246.805644 112.855372 
L 247.003318 115.11157 
L 247.220759 109.095041 
L 247.418433 115.11157 
L 247.616107 115.11157 
L 247.833549 104.582645 
L 248.031223 119.623967 
L 248.228897 119.623967 
L 248.426571 108.342975 
L 248.644012 119.623967 
L 248.841686 119.623967 
L 249.03936 103.830579 
L 249.237034 119.623967 
L 249.454476 119.623967 
L 249.65215 104.582645 
L 249.849824 119.623967 
L 250.067265 119.623967 
L 250.264939 93.301653 
L 250.462613 123.384298 
L 250.660287 123.384298 
L 250.877728 93.301653 
L 251.075403 130.152893 
L 251.273077 84.27686 
L 251.470751 84.27686 
L 251.688192 130.904959 
L 251.885866 91.045455 
L 252.08354 91.045455 
L 252.281214 121.128099 
L 252.498655 103.830579 
L 252.696329 103.830579 
L 252.894003 124.88843 
L 253.091677 99.318182 
L 253.309119 99.318182 
L 253.506793 127.896694 
L 253.704467 105.334711 
L 253.921908 105.334711 
L 254.119582 124.88843 
L 254.317256 98.566116 
L 254.51493 98.566116 
L 254.732372 125.640496 
L 254.930046 97.81405 
L 255.12772 121.128099 
L 255.325394 121.128099 
L 255.542835 101.57438 
L 255.740509 128.64876 
L 255.938183 128.64876 
L 256.155625 102.326446 
L 256.353299 124.136364 
L 256.550973 124.136364 
L 256.748647 99.318182 
L 256.966088 127.896694 
L 257.163762 127.896694 
L 257.361436 132.409091 
L 266.909091 132.409091 
L 266.909091 132.409091 
" style="fill:none;stroke:#0000ff;stroke-dasharray:1.5,2.475;stroke-dashoffset:0;stroke-width:1.5;"/>
   </g>
   <g id="patch_3">
    <path d="M 50.8 138.2 
L 50.8 10.8 
" style="fill:none;stroke:#000000;stroke-linecap:square;stroke-linejoin:miter;stroke-width:0.8;"/>
   </g>
   <g id="patch_4">
    <path d="M 277.2 138.2 
L 277.2 10.8 
" style="fill:none;stroke:#000000;stroke-linecap:square;stroke-linejoin:miter;stroke-width:0.8;"/>
   </g>
   <g id="patch_5">
    <path d="M 50.8 138.2 
L 277.2 138.2 
" style="fill:none;stroke:#000000;stroke-linecap:square;stroke-linejoin:miter;stroke-width:0.8;"/>
   </g>
   <g id="patch_6">
    <path d="M 50.8 10.8 
L 277.2 10.8 
" style="fill:none;stroke:#000000;stroke-linecap:square;stroke-linejoin:miter;stroke-width:0.8;"/>
   </g>
   <g id="text_13">
    <!-- 30 -->
    <g transform="translate(64.668809 124.88843)scale(0.1 -0.1)">
     <defs>
      <path d="M 2597 2516 
Q 3050 2419 3304 2112 
Q 3559 1806 3559 1356 
Q 3559 666 3084 287 
Q 2609 -91 1734 -91 
Q 1441 -91 1130 -33 
Q 819 25 488 141 
L 488 750 
Q 750 597 1062 519 
Q 1375 441 1716 441 
Q 2309 441 2620 675 
Q 2931 909 2931 1356 
Q 2931 1769 2642 2001 
Q 2353 2234 1838 2234 
L 1294 2234 
L 1294 2753 
L 1863 2753 
Q 2328 2753 2575 2939 
Q 2822 3125 2822 3475 
Q 2822 3834 2567 4026 
Q 2313 4219 1838 4219 
Q 1578 4219 1281 4162 
Q 984 4106 628 3988 
L 628 4550 
Q 988 4650 1302 4700 
Q 1616 4750 1894 4750 
Q 2613 4750 3031 4423 
Q 3450 4097 3450 3541 
Q 3450 3153 3228 2886 
Q 3006 2619 2597 2516 
z
" id="DejaVuSans-33" transform="scale(0.015625)"/>
     </defs>
     <use xlink:href="#DejaVuSans-33"/>
     <use x="63.623047" xlink:href="#DejaVuSans-30"/>
    </g>
   </g>
   <g id="text_14">
    <!-- 60 -->
    <g transform="translate(100.151294 117.367769)scale(0.1 -0.1)">
     <use xlink:href="#DejaVuSans-36"/>
     <use x="63.623047" xlink:href="#DejaVuSans-30"/>
    </g>
   </g>
   <g id="text_15">
    <!-- 120 -->
    <g transform="translate(135.831453 104.582645)scale(0.1 -0.1)">
     <use xlink:href="#DejaVuSans-31"/>
     <use x="63.623047" xlink:href="#DejaVuSans-32"/>
     <use x="127.246094" xlink:href="#DejaVuSans-30"/>
    </g>
   </g>
   <g id="text_16">
    <!-- 240 -->
    <g transform="translate(171.709286 87.285124)scale(0.1 -0.1)">
     <use xlink:href="#DejaVuSans-32"/>
     <use x="63.623047" xlink:href="#DejaVuSans-34"/>
     <use x="127.246094" xlink:href="#DejaVuSans-30"/>
    </g>
   </g>
   <g id="text_17">
    <!-- 480 -->
    <g transform="translate(207.409213 79.764463)scale(0.1 -0.1)">
     <use xlink:href="#DejaVuSans-34"/>
     <use x="63.623047" xlink:href="#DejaVuSans-38"/>
     <use x="127.246094" xlink:href="#DejaVuSans-30"/>
    </g>
   </g>
   <g id="text_18">
    <!-- 960 -->
    <g transform="translate(241.211469 72.243802)scale(0.1 -0.1)">
     <defs>
      <path d="M 703 97 
L 703 672 
Q 941 559 1184 500 
Q 1428 441 1663 441 
Q 2288 441 2617 861 
Q 2947 1281 2994 2138 
Q 2813 1869 2534 1725 
Q 2256 1581 1919 1581 
Q 1219 1581 811 2004 
Q 403 2428 403 3163 
Q 403 3881 828 4315 
Q 1253 4750 1959 4750 
Q 2769 4750 3195 4129 
Q 3622 3509 3622 2328 
Q 3622 1225 3098 567 
Q 2575 -91 1691 -91 
Q 1453 -91 1209 -44 
Q 966 3 703 97 
z
M 1959 2075 
Q 2384 2075 2632 2365 
Q 2881 2656 2881 3163 
Q 2881 3666 2632 3958 
Q 2384 4250 1959 4250 
Q 1534 4250 1286 3958 
Q 1038 3666 1038 3163 
Q 1038 2656 1286 2365 
Q 1534 2075 1959 2075 
z
" id="DejaVuSans-39" transform="scale(0.015625)"/>
     </defs>
     <use xlink:href="#DejaVuSans-39"/>
     <use x="63.623047" xlink:href="#DejaVuSans-36"/>
     <use x="127.246094" xlink:href="#DejaVuSans-30"/>
    </g>
   </g>
   <g id="legend_1">
    <g id="patch_7">
     <path d="M 57.8 48.15625 
L 176.284375 48.15625 
Q 178.284375 48.15625 178.284375 46.15625 
L 178.284375 17.8 
Q 178.284375 15.8 176.284375 15.8 
L 57.8 15.8 
Q 55.8 15.8 55.8 17.8 
L 55.8 46.15625 
Q 55.8 48.15625 57.8 48.15625 
z
" style="fill:#ffffff;opacity:0.8;stroke:#cccccc;stroke-linejoin:miter;"/>
    </g>
    <g id="line2d_13">
     <path d="M 59.8 23.898438 
L 79.8 23.898438 
" style="fill:none;stroke:#000000;stroke-dasharray:5.55,2.4;stroke-dashoffset:0;stroke-width:1.5;"/>
    </g>
    <g id="line2d_14"/>
    <g id="text_19">
     <!-- Scaling threshold -->
     <g transform="translate(87.8 27.398438)scale(0.1 -0.1)">
      <defs>
       <path d="M 3425 4513 
L 3425 3897 
Q 3066 4069 2747 4153 
Q 2428 4238 2131 4238 
Q 1616 4238 1336 4038 
Q 1056 3838 1056 3469 
Q 1056 3159 1242 3001 
Q 1428 2844 1947 2747 
L 2328 2669 
Q 3034 2534 3370 2195 
Q 3706 1856 3706 1288 
Q 3706 609 3251 259 
Q 2797 -91 1919 -91 
Q 1588 -91 1214 -16 
Q 841 59 441 206 
L 441 856 
Q 825 641 1194 531 
Q 1563 422 1919 422 
Q 2459 422 2753 634 
Q 3047 847 3047 1241 
Q 3047 1584 2836 1778 
Q 2625 1972 2144 2069 
L 1759 2144 
Q 1053 2284 737 2584 
Q 422 2884 422 3419 
Q 422 4038 858 4394 
Q 1294 4750 2059 4750 
Q 2388 4750 2728 4690 
Q 3069 4631 3425 4513 
z
" id="DejaVuSans-53" transform="scale(0.015625)"/>
       <path d="M 2906 1791 
Q 2906 2416 2648 2759 
Q 2391 3103 1925 3103 
Q 1463 3103 1205 2759 
Q 947 2416 947 1791 
Q 947 1169 1205 825 
Q 1463 481 1925 481 
Q 2391 481 2648 825 
Q 2906 1169 2906 1791 
z
M 3481 434 
Q 3481 -459 3084 -895 
Q 2688 -1331 1869 -1331 
Q 1566 -1331 1297 -1286 
Q 1028 -1241 775 -1147 
L 775 -588 
Q 1028 -725 1275 -790 
Q 1522 -856 1778 -856 
Q 2344 -856 2625 -561 
Q 2906 -266 2906 331 
L 2906 616 
Q 2728 306 2450 153 
Q 2172 0 1784 0 
Q 1141 0 747 490 
Q 353 981 353 1791 
Q 353 2603 747 3093 
Q 1141 3584 1784 3584 
Q 2172 3584 2450 3431 
Q 2728 3278 2906 2969 
L 2906 3500 
L 3481 3500 
L 3481 434 
z
" id="DejaVuSans-67" transform="scale(0.015625)"/>
       <path d="M 3513 2113 
L 3513 0 
L 2938 0 
L 2938 2094 
Q 2938 2591 2744 2837 
Q 2550 3084 2163 3084 
Q 1697 3084 1428 2787 
Q 1159 2491 1159 1978 
L 1159 0 
L 581 0 
L 581 4863 
L 1159 4863 
L 1159 2956 
Q 1366 3272 1645 3428 
Q 1925 3584 2291 3584 
Q 2894 3584 3203 3211 
Q 3513 2838 3513 2113 
z
" id="DejaVuSans-68" transform="scale(0.015625)"/>
       <path d="M 2631 2963 
Q 2534 3019 2420 3045 
Q 2306 3072 2169 3072 
Q 1681 3072 1420 2755 
Q 1159 2438 1159 1844 
L 1159 0 
L 581 0 
L 581 3500 
L 1159 3500 
L 1159 2956 
Q 1341 3275 1631 3429 
Q 1922 3584 2338 3584 
Q 2397 3584 2469 3576 
Q 2541 3569 2628 3553 
L 2631 2963 
z
" id="DejaVuSans-72" transform="scale(0.015625)"/>
       <path d="M 2906 2969 
L 2906 4863 
L 3481 4863 
L 3481 0 
L 2906 0 
L 2906 525 
Q 2725 213 2448 61 
Q 2172 -91 1784 -91 
Q 1150 -91 751 415 
Q 353 922 353 1747 
Q 353 2572 751 3078 
Q 1150 3584 1784 3584 
Q 2172 3584 2448 3432 
Q 2725 3281 2906 2969 
z
M 947 1747 
Q 947 1113 1208 752 
Q 1469 391 1925 391 
Q 2381 391 2643 752 
Q 2906 1113 2906 1747 
Q 2906 2381 2643 2742 
Q 2381 3103 1925 3103 
Q 1469 3103 1208 2742 
Q 947 2381 947 1747 
z
" id="DejaVuSans-64" transform="scale(0.015625)"/>
      </defs>
      <use xlink:href="#DejaVuSans-53"/>
      <use x="63.476562" xlink:href="#DejaVuSans-63"/>
      <use x="118.457031" xlink:href="#DejaVuSans-61"/>
      <use x="179.736328" xlink:href="#DejaVuSans-6c"/>
      <use x="207.519531" xlink:href="#DejaVuSans-69"/>
      <use x="235.302734" xlink:href="#DejaVuSans-6e"/>
      <use x="298.681641" xlink:href="#DejaVuSans-67"/>
      <use x="362.158203" xlink:href="#DejaVuSans-20"/>
      <use x="393.945312" xlink:href="#DejaVuSans-74"/>
      <use x="433.154297" xlink:href="#DejaVuSans-68"/>
      <use x="496.533203" xlink:href="#DejaVuSans-72"/>
      <use x="535.396484" xlink:href="#DejaVuSans-65"/>
      <use x="596.919922" xlink:href="#DejaVuSans-73"/>
      <use x="649.019531" xlink:href="#DejaVuSans-68"/>
      <use x="712.398438" xlink:href="#DejaVuSans-6f"/>
      <use x="773.580078" xlink:href="#DejaVuSans-6c"/>
      <use x="801.363281" xlink:href="#DejaVuSans-64"/>
     </g>
    </g>
    <g id="line2d_15">
     <path d="M 59.8 38.576563 
L 79.8 38.576563 
" style="fill:none;stroke:#0000ff;stroke-dasharray:1.5,2.475;stroke-dashoffset:0;stroke-width:1.5;"/>
    </g>
    <g id="line2d_16"/>
    <g id="text_20">
     <!-- Utilization -->
     <g transform="translate(87.8 42.076563)scale(0.1 -0.1)">
      <use xlink:href="#DejaVuSans-55"/>
      <use x="73.193359" xlink:href="#DejaVuSans-74"/>
      <use x="112.402344" xlink:href="#DejaVuSans-69"/>
      <use x="140.185547" xlink:href="#DejaVuSans-6c"/>
      <use x="167.96875" xlink:href="#DejaVuSans-69"/>
      <use x="195.751953" xlink:href="#DejaVuSans-7a"/>
      <use x="248.242188" xlink:href="#DejaVuSans-61"/>
      <use x="309.521484" xlink:href="#DejaVuSans-74"/>
      <use x="348.730469" xlink:href="#DejaVuSans-69"/>
      <use x="376.513672" xlink:href="#DejaVuSans-6f"/>
      <use x="437.695312" xlink:href="#DejaVuSans-6e"/>
     </g>
    </g>
   </g>
  </g>
 </g>
 <defs>
  <clipPath id="pfe4a4f52c5">
   <rect height="127.4" width="226.4" x="50.8" y="10.8"/>
  </clipPath>
 </defs>
</svg>
