<?xml version="1.0" encoding="utf-8" standalone="no"?>
<!DOCTYPE svg PUBLIC "-//W3C//DTD SVG 1.1//EN"
  "http://www.w3.org/Graphics/SVG/1.1/DTD/svg11.dtd">
<svg height="180pt" version="1.1" viewBox="0 0 288 180" width="288pt" xmlns="http://www.w3.org/2000/svg" xmlns:xlink="http://www.w3.org/1999/xlink">
 <metadata>
  <rdf:RDF xmlns:cc="http://creativecommons.org/ns#" xmlns:dc="http://purl.org/dc/elements/1.1/" xmlns:rdf="http://www.w3.org/1999/02/22-rdf-syntax-ns#">
   <cc:Work>
    <dc:type rdf:resource="http://purl.org/dc/dcmitype/StillImage"/>
    <dc:date>2021-10-19T12:20:09.651289</dc:date>
    <dc:format>image/svg+xml</dc:format>
    <dc:creator>
     <cc:Agent>
      <dc:title>Matplotlib v3.4.3, https://matplotlib.org/</dc:title>
     </cc:Agent>
    </dc:creator>
   </cc:Work>
  </rdf:RDF>
 </metadata>
 <defs>
  <style type="text/css">*{stroke-linecap:butt;stroke-linejoin:round;}</style>
 </defs>
 <g id="figure_1">
  <g id="patch_1">
   <path d="M 0 180 
L 288 180 
L 288 0 
L 0 0 
z
" style="fill:none;"/>
  </g>
  <g id="axes_1">
   <g id="patch_2">
    <path d="M 50.8 138.2 
L 249.825 138.2 
L 249.825 10.8 
L 50.8 10.8 
z
" style="fill:#ffffff;"/>
   </g>
   <g id="matplotlib.axis_1">
    <g id="xtick_1">
     <g id="line2d_1">
      <defs>
       <path d="M 0 0 
L 0 3.5 
" id="m917720c86f" style="stroke:#000000;stroke-width:0.8;"/>
      </defs>
      <g>
       <use style="stroke:#000000;stroke-width:0.8;" x="59.846591" xlink:href="#m917720c86f" y="138.2"/>
      </g>
     </g>
     <g id="text_1">
      <!-- 0 -->
      <g transform="translate(56.665341 152.798438)scale(0.1 -0.1)">
       <defs>
        <path d="M 2034 4250 
Q 1547 4250 1301 3770 
Q 1056 3291 1056 2328 
Q 1056 1369 1301 889 
Q 1547 409 2034 409 
Q 2525 409 2770 889 
Q 3016 1369 3016 2328 
Q 3016 3291 2770 3770 
Q 2525 4250 2034 4250 
z
M 2034 4750 
Q 2819 4750 3233 4129 
Q 3647 3509 3647 2328 
Q 3647 1150 3233 529 
Q 2819 -91 2034 -91 
Q 1250 -91 836 529 
Q 422 1150 422 2328 
Q 422 3509 836 4129 
Q 1250 4750 2034 4750 
z
" id="DejaVuSans-30" transform="scale(0.015625)"/>
       </defs>
       <use xlink:href="#DejaVuSans-30"/>
      </g>
     </g>
    </g>
    <g id="xtick_2">
     <g id="line2d_2">
      <g>
       <use style="stroke:#000000;stroke-width:0.8;" x="94.60107" xlink:href="#m917720c86f" y="138.2"/>
      </g>
     </g>
     <g id="text_2">
      <!-- 2000 -->
      <g transform="translate(81.87607 152.798438)scale(0.1 -0.1)">
       <defs>
        <path d="M 1228 531 
L 3431 531 
L 3431 0 
L 469 0 
L 469 531 
Q 828 903 1448 1529 
Q 2069 2156 2228 2338 
Q 2531 2678 2651 2914 
Q 2772 3150 2772 3378 
Q 2772 3750 2511 3984 
Q 2250 4219 1831 4219 
Q 1534 4219 1204 4116 
Q 875 4013 500 3803 
L 500 4441 
Q 881 4594 1212 4672 
Q 1544 4750 1819 4750 
Q 2544 4750 2975 4387 
Q 3406 4025 3406 3419 
Q 3406 3131 3298 2873 
Q 3191 2616 2906 2266 
Q 2828 2175 2409 1742 
Q 1991 1309 1228 531 
z
" id="DejaVuSans-32" transform="scale(0.015625)"/>
       </defs>
       <use xlink:href="#DejaVuSans-32"/>
       <use x="63.623047" xlink:href="#DejaVuSans-30"/>
       <use x="127.246094" xlink:href="#DejaVuSans-30"/>
       <use x="190.869141" xlink:href="#DejaVuSans-30"/>
      </g>
     </g>
    </g>
    <g id="xtick_3">
     <g id="line2d_3">
      <g>
       <use style="stroke:#000000;stroke-width:0.8;" x="129.355549" xlink:href="#m917720c86f" y="138.2"/>
      </g>
     </g>
     <g id="text_3">
      <!-- 4000 -->
      <g transform="translate(116.630549 152.798438)scale(0.1 -0.1)">
       <defs>
        <path d="M 2419 4116 
L 825 1625 
L 2419 1625 
L 2419 4116 
z
M 2253 4666 
L 3047 4666 
L 3047 1625 
L 3713 1625 
L 3713 1100 
L 3047 1100 
L 3047 0 
L 2419 0 
L 2419 1100 
L 313 1100 
L 313 1709 
L 2253 4666 
z
" id="DejaVuSans-34" transform="scale(0.015625)"/>
       </defs>
       <use xlink:href="#DejaVuSans-34"/>
       <use x="63.623047" xlink:href="#DejaVuSans-30"/>
       <use x="127.246094" xlink:href="#DejaVuSans-30"/>
       <use x="190.869141" xlink:href="#DejaVuSans-30"/>
      </g>
     </g>
    </g>
    <g id="xtick_4">
     <g id="line2d_4">
      <g>
       <use style="stroke:#000000;stroke-width:0.8;" x="164.110028" xlink:href="#m917720c86f" y="138.2"/>
      </g>
     </g>
     <g id="text_4">
      <!-- 6000 -->
      <g transform="translate(151.385028 152.798438)scale(0.1 -0.1)">
       <defs>
        <path d="M 2113 2584 
Q 1688 2584 1439 2293 
Q 1191 2003 1191 1497 
Q 1191 994 1439 701 
Q 1688 409 2113 409 
Q 2538 409 2786 701 
Q 3034 994 3034 1497 
Q 3034 2003 2786 2293 
Q 2538 2584 2113 2584 
z
M 3366 4563 
L 3366 3988 
Q 3128 4100 2886 4159 
Q 2644 4219 2406 4219 
Q 1781 4219 1451 3797 
Q 1122 3375 1075 2522 
Q 1259 2794 1537 2939 
Q 1816 3084 2150 3084 
Q 2853 3084 3261 2657 
Q 3669 2231 3669 1497 
Q 3669 778 3244 343 
Q 2819 -91 2113 -91 
Q 1303 -91 875 529 
Q 447 1150 447 2328 
Q 447 3434 972 4092 
Q 1497 4750 2381 4750 
Q 2619 4750 2861 4703 
Q 3103 4656 3366 4563 
z
" id="DejaVuSans-36" transform="scale(0.015625)"/>
       </defs>
       <use xlink:href="#DejaVuSans-36"/>
       <use x="63.623047" xlink:href="#DejaVuSans-30"/>
       <use x="127.246094" xlink:href="#DejaVuSans-30"/>
       <use x="190.869141" xlink:href="#DejaVuSans-30"/>
      </g>
     </g>
    </g>
    <g id="xtick_5">
     <g id="line2d_5">
      <g>
       <use style="stroke:#000000;stroke-width:0.8;" x="198.864507" xlink:href="#m917720c86f" y="138.2"/>
      </g>
     </g>
     <g id="text_5">
      <!-- 8000 -->
      <g transform="translate(186.139507 152.798438)scale(0.1 -0.1)">
       <defs>
        <path d="M 2034 2216 
Q 1584 2216 1326 1975 
Q 1069 1734 1069 1313 
Q 1069 891 1326 650 
Q 1584 409 2034 409 
Q 2484 409 2743 651 
Q 3003 894 3003 1313 
Q 3003 1734 2745 1975 
Q 2488 2216 2034 2216 
z
M 1403 2484 
Q 997 2584 770 2862 
Q 544 3141 544 3541 
Q 544 4100 942 4425 
Q 1341 4750 2034 4750 
Q 2731 4750 3128 4425 
Q 3525 4100 3525 3541 
Q 3525 3141 3298 2862 
Q 3072 2584 2669 2484 
Q 3125 2378 3379 2068 
Q 3634 1759 3634 1313 
Q 3634 634 3220 271 
Q 2806 -91 2034 -91 
Q 1263 -91 848 271 
Q 434 634 434 1313 
Q 434 1759 690 2068 
Q 947 2378 1403 2484 
z
M 1172 3481 
Q 1172 3119 1398 2916 
Q 1625 2713 2034 2713 
Q 2441 2713 2670 2916 
Q 2900 3119 2900 3481 
Q 2900 3844 2670 4047 
Q 2441 4250 2034 4250 
Q 1625 4250 1398 4047 
Q 1172 3844 1172 3481 
z
" id="DejaVuSans-38" transform="scale(0.015625)"/>
       </defs>
       <use xlink:href="#DejaVuSans-38"/>
       <use x="63.623047" xlink:href="#DejaVuSans-30"/>
       <use x="127.246094" xlink:href="#DejaVuSans-30"/>
       <use x="190.869141" xlink:href="#DejaVuSans-30"/>
      </g>
     </g>
    </g>
    <g id="xtick_6">
     <g id="line2d_6">
      <g>
       <use style="stroke:#000000;stroke-width:0.8;" x="233.618986" xlink:href="#m917720c86f" y="138.2"/>
      </g>
     </g>
     <g id="text_6">
      <!-- 10000 -->
      <g transform="translate(217.712736 152.798438)scale(0.1 -0.1)">
       <defs>
        <path d="M 794 531 
L 1825 531 
L 1825 4091 
L 703 3866 
L 703 4441 
L 1819 4666 
L 2450 4666 
L 2450 531 
L 3481 531 
L 3481 0 
L 794 0 
L 794 531 
z
" id="DejaVuSans-31" transform="scale(0.015625)"/>
       </defs>
       <use xlink:href="#DejaVuSans-31"/>
       <use x="63.623047" xlink:href="#DejaVuSans-30"/>
       <use x="127.246094" xlink:href="#DejaVuSans-30"/>
       <use x="190.869141" xlink:href="#DejaVuSans-30"/>
       <use x="254.492188" xlink:href="#DejaVuSans-30"/>
      </g>
     </g>
    </g>
    <g id="text_7">
     <!-- Time [sec] -->
     <g transform="translate(124.157813 166.476562)scale(0.1 -0.1)">
      <defs>
       <path d="M -19 4666 
L 3928 4666 
L 3928 4134 
L 2272 4134 
L 2272 0 
L 1638 0 
L 1638 4134 
L -19 4134 
L -19 4666 
z
" id="DejaVuSans-54" transform="scale(0.015625)"/>
       <path d="M 603 3500 
L 1178 3500 
L 1178 0 
L 603 0 
L 603 3500 
z
M 603 4863 
L 1178 4863 
L 1178 4134 
L 603 4134 
L 603 4863 
z
" id="DejaVuSans-69" transform="scale(0.015625)"/>
       <path d="M 3328 2828 
Q 3544 3216 3844 3400 
Q 4144 3584 4550 3584 
Q 5097 3584 5394 3201 
Q 5691 2819 5691 2113 
L 5691 0 
L 5113 0 
L 5113 2094 
Q 5113 2597 4934 2840 
Q 4756 3084 4391 3084 
Q 3944 3084 3684 2787 
Q 3425 2491 3425 1978 
L 3425 0 
L 2847 0 
L 2847 2094 
Q 2847 2600 2669 2842 
Q 2491 3084 2119 3084 
Q 1678 3084 1418 2786 
Q 1159 2488 1159 1978 
L 1159 0 
L 581 0 
L 581 3500 
L 1159 3500 
L 1159 2956 
Q 1356 3278 1631 3431 
Q 1906 3584 2284 3584 
Q 2666 3584 2933 3390 
Q 3200 3197 3328 2828 
z
" id="DejaVuSans-6d" transform="scale(0.015625)"/>
       <path d="M 3597 1894 
L 3597 1613 
L 953 1613 
Q 991 1019 1311 708 
Q 1631 397 2203 397 
Q 2534 397 2845 478 
Q 3156 559 3463 722 
L 3463 178 
Q 3153 47 2828 -22 
Q 2503 -91 2169 -91 
Q 1331 -91 842 396 
Q 353 884 353 1716 
Q 353 2575 817 3079 
Q 1281 3584 2069 3584 
Q 2775 3584 3186 3129 
Q 3597 2675 3597 1894 
z
M 3022 2063 
Q 3016 2534 2758 2815 
Q 2500 3097 2075 3097 
Q 1594 3097 1305 2825 
Q 1016 2553 972 2059 
L 3022 2063 
z
" id="DejaVuSans-65" transform="scale(0.015625)"/>
       <path id="DejaVuSans-20" transform="scale(0.015625)"/>
       <path d="M 550 4863 
L 1875 4863 
L 1875 4416 
L 1125 4416 
L 1125 -397 
L 1875 -397 
L 1875 -844 
L 550 -844 
L 550 4863 
z
" id="DejaVuSans-5b" transform="scale(0.015625)"/>
       <path d="M 2834 3397 
L 2834 2853 
Q 2591 2978 2328 3040 
Q 2066 3103 1784 3103 
Q 1356 3103 1142 2972 
Q 928 2841 928 2578 
Q 928 2378 1081 2264 
Q 1234 2150 1697 2047 
L 1894 2003 
Q 2506 1872 2764 1633 
Q 3022 1394 3022 966 
Q 3022 478 2636 193 
Q 2250 -91 1575 -91 
Q 1294 -91 989 -36 
Q 684 19 347 128 
L 347 722 
Q 666 556 975 473 
Q 1284 391 1588 391 
Q 1994 391 2212 530 
Q 2431 669 2431 922 
Q 2431 1156 2273 1281 
Q 2116 1406 1581 1522 
L 1381 1569 
Q 847 1681 609 1914 
Q 372 2147 372 2553 
Q 372 3047 722 3315 
Q 1072 3584 1716 3584 
Q 2034 3584 2315 3537 
Q 2597 3491 2834 3397 
z
" id="DejaVuSans-73" transform="scale(0.015625)"/>
       <path d="M 3122 3366 
L 3122 2828 
Q 2878 2963 2633 3030 
Q 2388 3097 2138 3097 
Q 1578 3097 1268 2742 
Q 959 2388 959 1747 
Q 959 1106 1268 751 
Q 1578 397 2138 397 
Q 2388 397 2633 464 
Q 2878 531 3122 666 
L 3122 134 
Q 2881 22 2623 -34 
Q 2366 -91 2075 -91 
Q 1284 -91 818 406 
Q 353 903 353 1747 
Q 353 2603 823 3093 
Q 1294 3584 2113 3584 
Q 2378 3584 2631 3529 
Q 2884 3475 3122 3366 
z
" id="DejaVuSans-63" transform="scale(0.015625)"/>
       <path d="M 1947 4863 
L 1947 -844 
L 622 -844 
L 622 -397 
L 1369 -397 
L 1369 4416 
L 622 4416 
L 622 4863 
L 1947 4863 
z
" id="DejaVuSans-5d" transform="scale(0.015625)"/>
      </defs>
      <use xlink:href="#DejaVuSans-54"/>
      <use x="57.958984" xlink:href="#DejaVuSans-69"/>
      <use x="85.742188" xlink:href="#DejaVuSans-6d"/>
      <use x="183.154297" xlink:href="#DejaVuSans-65"/>
      <use x="244.677734" xlink:href="#DejaVuSans-20"/>
      <use x="276.464844" xlink:href="#DejaVuSans-5b"/>
      <use x="315.478516" xlink:href="#DejaVuSans-73"/>
      <use x="367.578125" xlink:href="#DejaVuSans-65"/>
      <use x="429.101562" xlink:href="#DejaVuSans-63"/>
      <use x="484.082031" xlink:href="#DejaVuSans-5d"/>
     </g>
    </g>
   </g>
   <g id="matplotlib.axis_2">
    <g id="ytick_1">
     <g id="line2d_7">
      <defs>
       <path d="M 0 0 
L -3.5 0 
" id="m2ec12f13f8" style="stroke:#000000;stroke-width:0.8;"/>
      </defs>
      <g>
       <use style="stroke:#000000;stroke-width:0.8;" x="50.8" xlink:href="#m2ec12f13f8" y="132.409091"/>
      </g>
     </g>
     <g id="text_8">
      <!-- 0 -->
      <g transform="translate(37.4375 136.20831)scale(0.1 -0.1)">
       <use xlink:href="#DejaVuSans-30"/>
      </g>
     </g>
    </g>
    <g id="ytick_2">
     <g id="line2d_8">
      <g>
       <use style="stroke:#000000;stroke-width:0.8;" x="50.8" xlink:href="#m2ec12f13f8" y="94.805785"/>
      </g>
     </g>
     <g id="text_9">
      <!-- 50 -->
      <g transform="translate(31.075 98.605004)scale(0.1 -0.1)">
       <defs>
        <path d="M 691 4666 
L 3169 4666 
L 3169 4134 
L 1269 4134 
L 1269 2991 
Q 1406 3038 1543 3061 
Q 1681 3084 1819 3084 
Q 2600 3084 3056 2656 
Q 3513 2228 3513 1497 
Q 3513 744 3044 326 
Q 2575 -91 1722 -91 
Q 1428 -91 1123 -41 
Q 819 9 494 109 
L 494 744 
Q 775 591 1075 516 
Q 1375 441 1709 441 
Q 2250 441 2565 725 
Q 2881 1009 2881 1497 
Q 2881 1984 2565 2268 
Q 2250 2553 1709 2553 
Q 1456 2553 1204 2497 
Q 953 2441 691 2322 
L 691 4666 
z
" id="DejaVuSans-35" transform="scale(0.015625)"/>
       </defs>
       <use xlink:href="#DejaVuSans-35"/>
       <use x="63.623047" xlink:href="#DejaVuSans-30"/>
      </g>
     </g>
    </g>
    <g id="ytick_3">
     <g id="line2d_9">
      <g>
       <use style="stroke:#000000;stroke-width:0.8;" x="50.8" xlink:href="#m2ec12f13f8" y="57.202479"/>
      </g>
     </g>
     <g id="text_10">
      <!-- 100 -->
      <g transform="translate(24.7125 61.001698)scale(0.1 -0.1)">
       <use xlink:href="#DejaVuSans-31"/>
       <use x="63.623047" xlink:href="#DejaVuSans-30"/>
       <use x="127.246094" xlink:href="#DejaVuSans-30"/>
      </g>
     </g>
    </g>
    <g id="ytick_4">
     <g id="line2d_10">
      <g>
       <use style="stroke:#000000;stroke-width:0.8;" x="50.8" xlink:href="#m2ec12f13f8" y="19.599174"/>
      </g>
     </g>
     <g id="text_11">
      <!-- 150 -->
      <g transform="translate(24.7125 23.398392)scale(0.1 -0.1)">
       <use xlink:href="#DejaVuSans-31"/>
       <use x="63.623047" xlink:href="#DejaVuSans-35"/>
       <use x="127.246094" xlink:href="#DejaVuSans-30"/>
      </g>
     </g>
    </g>
    <g id="text_12">
     <!-- CPU utilization [%] -->
     <g transform="translate(18.632812 121.057813)rotate(-90)scale(0.1 -0.1)">
      <defs>
       <path d="M 4122 4306 
L 4122 3641 
Q 3803 3938 3442 4084 
Q 3081 4231 2675 4231 
Q 1875 4231 1450 3742 
Q 1025 3253 1025 2328 
Q 1025 1406 1450 917 
Q 1875 428 2675 428 
Q 3081 428 3442 575 
Q 3803 722 4122 1019 
L 4122 359 
Q 3791 134 3420 21 
Q 3050 -91 2638 -91 
Q 1578 -91 968 557 
Q 359 1206 359 2328 
Q 359 3453 968 4101 
Q 1578 4750 2638 4750 
Q 3056 4750 3426 4639 
Q 3797 4528 4122 4306 
z
" id="DejaVuSans-43" transform="scale(0.015625)"/>
       <path d="M 1259 4147 
L 1259 2394 
L 2053 2394 
Q 2494 2394 2734 2622 
Q 2975 2850 2975 3272 
Q 2975 3691 2734 3919 
Q 2494 4147 2053 4147 
L 1259 4147 
z
M 628 4666 
L 2053 4666 
Q 2838 4666 3239 4311 
Q 3641 3956 3641 3272 
Q 3641 2581 3239 2228 
Q 2838 1875 2053 1875 
L 1259 1875 
L 1259 0 
L 628 0 
L 628 4666 
z
" id="DejaVuSans-50" transform="scale(0.015625)"/>
       <path d="M 556 4666 
L 1191 4666 
L 1191 1831 
Q 1191 1081 1462 751 
Q 1734 422 2344 422 
Q 2950 422 3222 751 
Q 3494 1081 3494 1831 
L 3494 4666 
L 4128 4666 
L 4128 1753 
Q 4128 841 3676 375 
Q 3225 -91 2344 -91 
Q 1459 -91 1007 375 
Q 556 841 556 1753 
L 556 4666 
z
" id="DejaVuSans-55" transform="scale(0.015625)"/>
       <path d="M 544 1381 
L 544 3500 
L 1119 3500 
L 1119 1403 
Q 1119 906 1312 657 
Q 1506 409 1894 409 
Q 2359 409 2629 706 
Q 2900 1003 2900 1516 
L 2900 3500 
L 3475 3500 
L 3475 0 
L 2900 0 
L 2900 538 
Q 2691 219 2414 64 
Q 2138 -91 1772 -91 
Q 1169 -91 856 284 
Q 544 659 544 1381 
z
M 1991 3584 
L 1991 3584 
z
" id="DejaVuSans-75" transform="scale(0.015625)"/>
       <path d="M 1172 4494 
L 1172 3500 
L 2356 3500 
L 2356 3053 
L 1172 3053 
L 1172 1153 
Q 1172 725 1289 603 
Q 1406 481 1766 481 
L 2356 481 
L 2356 0 
L 1766 0 
Q 1100 0 847 248 
Q 594 497 594 1153 
L 594 3053 
L 172 3053 
L 172 3500 
L 594 3500 
L 594 4494 
L 1172 4494 
z
" id="DejaVuSans-74" transform="scale(0.015625)"/>
       <path d="M 603 4863 
L 1178 4863 
L 1178 0 
L 603 0 
L 603 4863 
z
" id="DejaVuSans-6c" transform="scale(0.015625)"/>
       <path d="M 353 3500 
L 3084 3500 
L 3084 2975 
L 922 459 
L 3084 459 
L 3084 0 
L 275 0 
L 275 525 
L 2438 3041 
L 353 3041 
L 353 3500 
z
" id="DejaVuSans-7a" transform="scale(0.015625)"/>
       <path d="M 2194 1759 
Q 1497 1759 1228 1600 
Q 959 1441 959 1056 
Q 959 750 1161 570 
Q 1363 391 1709 391 
Q 2188 391 2477 730 
Q 2766 1069 2766 1631 
L 2766 1759 
L 2194 1759 
z
M 3341 1997 
L 3341 0 
L 2766 0 
L 2766 531 
Q 2569 213 2275 61 
Q 1981 -91 1556 -91 
Q 1019 -91 701 211 
Q 384 513 384 1019 
Q 384 1609 779 1909 
Q 1175 2209 1959 2209 
L 2766 2209 
L 2766 2266 
Q 2766 2663 2505 2880 
Q 2244 3097 1772 3097 
Q 1472 3097 1187 3025 
Q 903 2953 641 2809 
L 641 3341 
Q 956 3463 1253 3523 
Q 1550 3584 1831 3584 
Q 2591 3584 2966 3190 
Q 3341 2797 3341 1997 
z
" id="DejaVuSans-61" transform="scale(0.015625)"/>
       <path d="M 1959 3097 
Q 1497 3097 1228 2736 
Q 959 2375 959 1747 
Q 959 1119 1226 758 
Q 1494 397 1959 397 
Q 2419 397 2687 759 
Q 2956 1122 2956 1747 
Q 2956 2369 2687 2733 
Q 2419 3097 1959 3097 
z
M 1959 3584 
Q 2709 3584 3137 3096 
Q 3566 2609 3566 1747 
Q 3566 888 3137 398 
Q 2709 -91 1959 -91 
Q 1206 -91 779 398 
Q 353 888 353 1747 
Q 353 2609 779 3096 
Q 1206 3584 1959 3584 
z
" id="DejaVuSans-6f" transform="scale(0.015625)"/>
       <path d="M 3513 2113 
L 3513 0 
L 2938 0 
L 2938 2094 
Q 2938 2591 2744 2837 
Q 2550 3084 2163 3084 
Q 1697 3084 1428 2787 
Q 1159 2491 1159 1978 
L 1159 0 
L 581 0 
L 581 3500 
L 1159 3500 
L 1159 2956 
Q 1366 3272 1645 3428 
Q 1925 3584 2291 3584 
Q 2894 3584 3203 3211 
Q 3513 2838 3513 2113 
z
" id="DejaVuSans-6e" transform="scale(0.015625)"/>
       <path d="M 4653 2053 
Q 4381 2053 4226 1822 
Q 4072 1591 4072 1178 
Q 4072 772 4226 539 
Q 4381 306 4653 306 
Q 4919 306 5073 539 
Q 5228 772 5228 1178 
Q 5228 1588 5073 1820 
Q 4919 2053 4653 2053 
z
M 4653 2450 
Q 5147 2450 5437 2106 
Q 5728 1763 5728 1178 
Q 5728 594 5436 251 
Q 5144 -91 4653 -91 
Q 4153 -91 3862 251 
Q 3572 594 3572 1178 
Q 3572 1766 3864 2108 
Q 4156 2450 4653 2450 
z
M 1428 4353 
Q 1159 4353 1004 4120 
Q 850 3888 850 3481 
Q 850 3069 1003 2837 
Q 1156 2606 1428 2606 
Q 1700 2606 1854 2837 
Q 2009 3069 2009 3481 
Q 2009 3884 1853 4118 
Q 1697 4353 1428 4353 
z
M 4250 4750 
L 4750 4750 
L 1831 -91 
L 1331 -91 
L 4250 4750 
z
M 1428 4750 
Q 1922 4750 2215 4408 
Q 2509 4066 2509 3481 
Q 2509 2891 2217 2550 
Q 1925 2209 1428 2209 
Q 931 2209 642 2551 
Q 353 2894 353 3481 
Q 353 4063 643 4406 
Q 934 4750 1428 4750 
z
" id="DejaVuSans-25" transform="scale(0.015625)"/>
      </defs>
      <use xlink:href="#DejaVuSans-43"/>
      <use x="69.824219" xlink:href="#DejaVuSans-50"/>
      <use x="130.126953" xlink:href="#DejaVuSans-55"/>
      <use x="203.320312" xlink:href="#DejaVuSans-20"/>
      <use x="235.107422" xlink:href="#DejaVuSans-75"/>
      <use x="298.486328" xlink:href="#DejaVuSans-74"/>
      <use x="337.695312" xlink:href="#DejaVuSans-69"/>
      <use x="365.478516" xlink:href="#DejaVuSans-6c"/>
      <use x="393.261719" xlink:href="#DejaVuSans-69"/>
      <use x="421.044922" xlink:href="#DejaVuSans-7a"/>
      <use x="473.535156" xlink:href="#DejaVuSans-61"/>
      <use x="534.814453" xlink:href="#DejaVuSans-74"/>
      <use x="574.023438" xlink:href="#DejaVuSans-69"/>
      <use x="601.806641" xlink:href="#DejaVuSans-6f"/>
      <use x="662.988281" xlink:href="#DejaVuSans-6e"/>
      <use x="726.367188" xlink:href="#DejaVuSans-20"/>
      <use x="758.154297" xlink:href="#DejaVuSans-5b"/>
      <use x="797.167969" xlink:href="#DejaVuSans-25"/>
      <use x="892.1875" xlink:href="#DejaVuSans-5d"/>
     </g>
    </g>
   </g>
   <g id="line2d_11">
    <path clip-path="url(#p8b744ca946)" d="M 59.846591 94.805785 
L 240.778409 94.805785 
L 240.778409 94.805785 
" style="fill:none;stroke:#000000;stroke-dasharray:5.55,2.4;stroke-dashoffset:0;stroke-width:1.5;"/>
   </g>
   <g id="line2d_12">
    <path clip-path="url(#p8b744ca946)" d="M 59.846591 132.409091 
L 60.194136 132.409091 
L 60.367908 128.64876 
L 60.559058 128.64876 
L 60.73283 130.904959 
L 60.906603 127.896694 
L 61.080375 127.896694 
L 61.271525 132.409091 
L 61.445297 127.896694 
L 61.619069 127.896694 
L 61.792842 132.409091 
L 61.983991 127.896694 
L 62.157764 132.409091 
L 62.331536 132.409091 
L 62.505309 127.144628 
L 62.696458 132.409091 
L 62.870231 132.409091 
L 63.044003 128.64876 
L 63.217775 132.409091 
L 63.408925 132.409091 
L 63.582697 127.144628 
L 63.75647 132.409091 
L 63.930242 132.409091 
L 64.121392 127.144628 
L 64.295164 132.409091 
L 64.468937 132.409091 
L 64.642709 128.64876 
L 64.833859 132.409091 
L 65.007631 132.409091 
L 65.181403 127.144628 
L 65.355176 132.409091 
L 65.546325 126.392562 
L 65.720098 126.392562 
L 65.89387 132.409091 
L 66.067643 127.896694 
L 66.258792 127.896694 
L 66.432565 132.409091 
L 66.606337 128.64876 
L 66.780109 128.64876 
L 66.971259 130.904959 
L 67.145032 126.392562 
L 67.318804 126.392562 
L 67.492576 132.409091 
L 67.683726 128.64876 
L 67.857498 128.64876 
L 68.031271 132.409091 
L 68.22242 127.144628 
L 68.396193 127.144628 
L 68.569965 132.409091 
L 68.743738 126.392562 
L 68.934887 126.392562 
L 69.10866 132.409091 
L 69.282432 129.400826 
L 69.456204 128.64876 
L 69.647354 128.64876 
L 69.821126 127.896694 
L 69.994899 131.657025 
L 70.168671 131.657025 
L 70.359821 130.904959 
L 70.533593 132.409091 
L 70.707366 132.409091 
L 70.881138 128.64876 
L 71.072288 132.409091 
L 71.24606 132.409091 
L 71.419832 128.64876 
L 71.593605 132.409091 
L 71.784754 132.409091 
L 71.958527 129.400826 
L 72.132299 130.904959 
L 72.306072 130.904959 
L 72.497221 127.144628 
L 72.670994 132.409091 
L 72.844766 127.144628 
L 73.018538 127.144628 
L 73.209688 132.409091 
L 73.383461 127.896694 
L 73.557233 127.896694 
L 73.731005 132.409091 
L 73.922155 128.64876 
L 74.095927 128.64876 
L 74.2697 130.152893 
L 74.634622 130.152893 
L 74.808394 132.409091 
L 74.982167 127.144628 
L 75.155939 127.144628 
L 75.347089 132.409091 
L 91.560053 132.409091 
L 91.733825 124.136364 
L 91.907598 129.400826 
L 92.08137 129.400826 
L 92.27252 124.88843 
L 92.446292 132.409091 
L 92.620065 132.409091 
L 92.793837 119.623967 
L 92.984987 131.657025 
L 93.158759 131.657025 
L 93.332532 127.896694 
L 93.506304 130.152893 
L 93.697454 130.152893 
L 93.871226 123.384298 
L 94.044998 132.409091 
L 94.218771 132.409091 
L 94.40992 121.880165 
L 94.583693 127.896694 
L 94.757465 121.128099 
L 94.948615 121.128099 
L 95.122387 132.409091 
L 95.29616 121.128099 
L 95.469932 121.128099 
L 95.661082 132.409091 
L 95.834854 127.896694 
L 96.547321 127.896694 
L 96.721093 132.409091 
L 96.894866 121.880165 
L 97.086015 121.880165 
L 97.259788 132.409091 
L 97.43356 121.880165 
L 97.607332 121.880165 
L 97.798482 132.409091 
L 97.972254 121.128099 
L 98.146027 121.128099 
L 98.319799 128.64876 
L 98.510949 122.632231 
L 98.684721 132.409091 
L 98.858494 132.409091 
L 99.032266 123.384298 
L 99.223416 128.64876 
L 99.397188 128.64876 
L 99.570961 126.392562 
L 99.744733 132.409091 
L 99.935883 132.409091 
L 100.109655 123.384298 
L 100.283427 130.904959 
L 100.648349 130.904959 
L 100.822122 125.640496 
L 100.995894 125.640496 
L 101.169667 124.88843 
L 101.360816 130.904959 
L 101.534589 130.904959 
L 101.708361 127.144628 
L 101.882133 129.400826 
L 102.073283 123.384298 
L 102.247055 123.384298 
L 102.420828 132.409091 
L 102.5946 123.384298 
L 102.78575 123.384298 
L 102.959522 132.409091 
L 103.133295 128.64876 
L 103.307067 128.64876 
L 103.498217 124.136364 
L 103.845761 124.136364 
L 104.019534 132.409091 
L 104.210683 124.136364 
L 104.384456 124.136364 
L 104.558228 132.409091 
L 104.749378 124.88843 
L 104.92315 124.88843 
L 105.096923 132.409091 
L 105.270695 121.128099 
L 105.461845 121.128099 
L 105.635617 132.409091 
L 105.80939 126.392562 
L 105.983162 127.896694 
L 106.174312 127.896694 
L 106.348084 124.88843 
L 106.521856 132.409091 
L 122.561048 132.409091 
L 122.734821 128.64876 
L 122.92597 128.64876 
L 123.099743 120.376033 
L 123.273515 130.904959 
L 123.447288 130.904959 
L 123.638437 115.11157 
L 123.81221 132.409091 
L 123.985982 112.855372 
L 124.159754 112.855372 
L 124.350904 132.409091 
L 124.524677 109.847107 
L 124.698449 109.847107 
L 124.872221 132.409091 
L 125.063371 109.847107 
L 125.237143 109.847107 
L 125.410916 132.409091 
L 125.584688 108.342975 
L 125.775838 108.342975 
L 125.94961 132.409091 
L 126.123383 109.095041 
L 126.297155 109.095041 
L 126.488305 132.409091 
L 126.662077 115.11157 
L 126.835849 115.11157 
L 127.009622 132.409091 
L 127.200771 113.607438 
L 127.374544 132.409091 
L 127.548316 132.409091 
L 127.739466 109.095041 
L 127.913238 132.409091 
L 128.087011 132.409091 
L 128.260783 123.384298 
L 128.451933 121.880165 
L 128.625705 121.880165 
L 128.799477 124.88843 
L 128.97325 123.384298 
L 129.164399 123.384298 
L 129.338172 112.855372 
L 129.511944 130.904959 
L 129.685717 130.904959 
L 129.876866 112.855372 
L 130.050639 123.384298 
L 130.224411 123.384298 
L 130.398183 121.128099 
L 130.589333 132.409091 
L 130.763106 132.409091 
L 130.936878 111.35124 
L 131.11065 132.409091 
L 131.3018 115.11157 
L 131.475572 115.11157 
L 131.649345 132.409091 
L 131.823117 108.342975 
L 132.014267 108.342975 
L 132.188039 132.409091 
L 132.361812 104.582645 
L 132.535584 104.582645 
L 132.726734 119.623967 
L 132.900506 118.119835 
L 133.074278 118.119835 
L 133.248051 130.152893 
L 133.4392 124.88843 
L 133.612973 124.88843 
L 133.786745 124.136364 
L 133.977895 116.615702 
L 134.151667 116.615702 
L 134.32544 127.144628 
L 134.499212 112.855372 
L 134.690362 132.409091 
L 134.864134 132.409091 
L 135.037906 124.88843 
L 135.211679 127.144628 
L 135.402828 127.144628 
L 135.576601 116.615702 
L 135.750373 127.144628 
L 135.924146 127.144628 
L 136.115295 112.855372 
L 136.289068 132.409091 
L 136.46284 132.409091 
L 136.636612 106.086777 
L 136.827762 132.409091 
L 137.001535 132.409091 
L 137.175307 116.615702 
L 137.349079 126.392562 
L 137.540229 126.392562 
L 137.714001 115.863636 
L 137.887774 132.409091 
L 154.100738 132.409091 
L 154.291888 96.309917 
L 154.46566 96.309917 
L 154.639433 132.409091 
L 154.813205 89.541322 
L 155.004355 89.541322 
L 155.178127 132.409091 
L 155.351899 87.285124 
L 155.543049 87.285124 
L 155.716821 130.904959 
L 155.890594 97.061983 
L 156.064366 132.409091 
L 156.255516 132.409091 
L 156.429288 111.35124 
L 156.603061 132.409091 
L 156.776833 132.409091 
L 156.967983 97.81405 
L 157.141755 121.880165 
L 157.315528 121.880165 
L 157.4893 104.582645 
L 157.68045 127.896694 
L 157.854222 127.896694 
L 158.027994 107.590909 
L 158.201767 132.409091 
L 158.392916 132.409091 
L 158.566689 100.822314 
L 158.740461 132.409091 
L 158.914234 132.409091 
L 159.105383 106.086777 
L 159.279156 132.409091 
L 159.452928 132.409091 
L 159.6267 100.822314 
L 159.81785 132.409091 
L 159.991622 103.078512 
L 160.165395 103.078512 
L 160.356544 131.657025 
L 160.530317 103.078512 
L 160.704089 103.078512 
L 160.877862 124.88843 
L 161.069011 108.342975 
L 161.242784 108.342975 
L 161.416556 132.409091 
L 161.590328 116.615702 
L 161.781478 116.615702 
L 161.95525 117.367769 
L 162.129023 124.136364 
L 162.302795 124.136364 
L 162.493945 120.376033 
L 162.667717 123.384298 
L 162.84149 123.384298 
L 163.206412 108.342975 
L 163.380184 127.896694 
L 163.553957 127.896694 
L 163.727729 115.863636 
L 163.918879 127.896694 
L 164.092651 127.896694 
L 164.266423 114.359504 
L 164.440196 127.896694 
L 164.631345 127.896694 
L 164.805118 116.615702 
L 165.152663 116.615702 
L 165.343812 121.128099 
L 165.517585 119.623967 
L 165.691357 119.623967 
L 165.865129 110.599174 
L 166.056279 118.119835 
L 166.230051 118.119835 
L 166.403824 109.847107 
L 166.594973 116.615702 
L 166.768746 91.045455 
L 166.942518 91.045455 
L 167.116291 129.400826 
L 167.30744 103.830579 
L 167.481213 103.830579 
L 167.654985 131.657025 
L 167.828757 110.599174 
L 168.019907 110.599174 
L 168.193679 124.88843 
L 168.367452 104.582645 
L 168.541224 104.582645 
L 168.732374 131.657025 
L 168.906146 115.11157 
L 169.079919 115.11157 
L 169.444841 132.409091 
L 185.484033 132.409091 
L 185.657805 54.194215 
L 185.831578 82.020661 
L 186.022727 82.020661 
L 186.1965 86.533058 
L 186.370272 130.904959 
L 186.544044 130.904959 
L 186.735194 105.334711 
L 186.908966 121.880165 
L 187.082739 121.880165 
L 187.256511 104.582645 
L 187.447661 130.152893 
L 187.621433 130.152893 
L 187.795206 117.367769 
L 187.968978 121.128099 
L 188.160128 106.838843 
L 188.3339 106.838843 
L 188.507673 128.64876 
L 188.681445 102.326446 
L 188.872595 102.326446 
L 189.046367 127.896694 
L 189.220139 110.599174 
L 189.411289 110.599174 
L 189.585061 123.384298 
L 189.758834 106.086777 
L 189.932606 106.086777 
L 190.123756 123.384298 
L 190.297528 108.342975 
L 190.471301 108.342975 
L 190.645073 121.880165 
L 190.836223 119.623967 
L 191.009995 119.623967 
L 191.183767 121.128099 
L 191.35754 111.35124 
L 191.548689 111.35124 
L 191.722462 113.607438 
L 191.896234 112.103306 
L 192.070007 115.11157 
L 192.261156 115.11157 
L 192.434929 103.078512 
L 192.608701 114.359504 
L 192.782473 114.359504 
L 192.973623 100.822314 
L 193.147395 118.871901 
L 193.321168 118.871901 
L 193.512318 109.095041 
L 193.68609 114.359504 
L 193.859862 114.359504 
L 194.033635 100.070248 
L 194.224784 124.88843 
L 194.398557 124.88843 
L 194.572329 100.822314 
L 194.746102 124.136364 
L 194.937251 124.136364 
L 195.111024 107.590909 
L 195.284796 109.847107 
L 195.458568 127.896694 
L 195.649718 127.896694 
L 195.82349 106.086777 
L 195.997263 118.119835 
L 196.171035 118.119835 
L 196.535957 102.326446 
L 196.70973 102.326446 
L 196.900879 115.11157 
L 197.074652 112.103306 
L 197.422196 112.103306 
L 197.613346 107.590909 
L 197.787118 107.590909 
L 198.134663 122.632231 
L 198.325813 122.632231 
L 198.499585 94.805785 
L 198.673358 127.144628 
L 198.84713 97.81405 
L 199.03828 97.81405 
L 199.212052 120.376033 
L 199.385824 106.838843 
L 199.559597 106.838843 
L 199.750747 110.599174 
L 199.924519 107.590909 
L 200.098291 107.590909 
L 200.289441 116.615702 
L 200.463213 106.086777 
L 200.636986 106.086777 
L 200.810758 132.409091 
L 216.693555 132.409091 
L 216.867327 83.524793 
L 217.0411 83.524793 
L 217.214872 16.590909 
L 217.406022 79.012397 
L 217.579794 79.012397 
L 217.753567 79.764463 
L 217.927339 81.268595 
L 218.118489 81.268595 
L 218.292261 127.144628 
L 218.466034 91.045455 
L 218.657183 91.045455 
L 218.830956 121.128099 
L 219.004728 97.061983 
L 219.1785 97.061983 
L 219.36965 118.119835 
L 219.543422 103.078512 
L 219.717195 98.566116 
L 219.890967 98.566116 
L 220.255889 118.119835 
L 220.429662 118.119835 
L 220.620811 106.086777 
L 220.794584 109.847107 
L 220.968356 109.847107 
L 221.142128 111.35124 
L 221.333278 108.342975 
L 221.50705 108.342975 
L 221.680823 105.334711 
L 221.854595 119.623967 
L 222.045745 119.623967 
L 222.39329 109.095041 
L 222.567062 109.095041 
L 222.931984 112.855372 
L 223.105756 112.855372 
L 223.279529 115.11157 
L 223.470679 109.095041 
L 223.644451 115.11157 
L 223.818223 115.11157 
L 224.009373 104.582645 
L 224.183145 119.623967 
L 224.356918 119.623967 
L 224.53069 108.342975 
L 224.72184 119.623967 
L 224.895612 119.623967 
L 225.069385 103.830579 
L 225.243157 119.623967 
L 225.434307 119.623967 
L 225.608079 104.582645 
L 225.781851 119.623967 
L 225.973001 119.623967 
L 226.146773 93.301653 
L 226.320546 123.384298 
L 226.494318 123.384298 
L 226.685468 93.301653 
L 226.85924 130.152893 
L 227.033013 84.27686 
L 227.206785 84.27686 
L 227.397935 130.904959 
L 227.571707 91.045455 
L 227.745479 91.045455 
L 227.919252 121.128099 
L 228.110401 103.830579 
L 228.284174 103.830579 
L 228.457946 124.88843 
L 228.631719 99.318182 
L 228.822868 99.318182 
L 228.996641 127.896694 
L 229.170413 105.334711 
L 229.361563 105.334711 
L 229.535335 124.88843 
L 229.709107 98.566116 
L 229.88288 98.566116 
L 230.07403 125.640496 
L 230.247802 97.81405 
L 230.421574 121.128099 
L 230.595347 121.128099 
L 230.786496 101.57438 
L 230.960269 128.64876 
L 231.134041 128.64876 
L 231.325191 102.326446 
L 231.498963 124.136364 
L 231.672736 124.136364 
L 231.846508 99.318182 
L 232.037658 127.896694 
L 232.21143 127.896694 
L 232.385202 132.409091 
L 240.778409 132.409091 
L 240.778409 132.409091 
" style="fill:none;stroke:#0000ff;stroke-dasharray:1.5,2.475;stroke-dashoffset:0;stroke-width:1.5;"/>
   </g>
   <g id="patch_3">
    <path d="M 50.8 138.2 
L 50.8 10.8 
" style="fill:none;stroke:#000000;stroke-linecap:square;stroke-linejoin:miter;stroke-width:0.8;"/>
   </g>
   <g id="patch_4">
    <path d="M 249.825 138.2 
L 249.825 10.8 
" style="fill:none;stroke:#000000;stroke-linecap:square;stroke-linejoin:miter;stroke-width:0.8;"/>
   </g>
   <g id="patch_5">
    <path d="M 50.8 138.2 
L 249.825 138.2 
" style="fill:none;stroke:#000000;stroke-linecap:square;stroke-linejoin:miter;stroke-width:0.8;"/>
   </g>
   <g id="patch_6">
    <path d="M 50.8 10.8 
L 249.825 10.8 
" style="fill:none;stroke:#000000;stroke-linecap:square;stroke-linejoin:miter;stroke-width:0.8;"/>
   </g>
   <g id="text_13">
    <!-- 30 -->
    <g transform="translate(62.991871 124.88843)scale(0.1 -0.1)">
     <defs>
      <path d="M 2597 2516 
Q 3050 2419 3304 2112 
Q 3559 1806 3559 1356 
Q 3559 666 3084 287 
Q 2609 -91 1734 -91 
Q 1441 -91 1130 -33 
Q 819 25 488 141 
L 488 750 
Q 750 597 1062 519 
Q 1375 441 1716 441 
Q 2309 441 2620 675 
Q 2931 909 2931 1356 
Q 2931 1769 2642 2001 
Q 2353 2234 1838 2234 
L 1294 2234 
L 1294 2753 
L 1863 2753 
Q 2328 2753 2575 2939 
Q 2822 3125 2822 3475 
Q 2822 3834 2567 4026 
Q 2313 4219 1838 4219 
Q 1578 4219 1281 4162 
Q 984 4106 628 3988 
L 628 4550 
Q 988 4650 1302 4700 
Q 1616 4750 1894 4750 
Q 2613 4750 3031 4423 
Q 3450 4097 3450 3541 
Q 3450 3153 3228 2886 
Q 3006 2619 2597 2516 
z
" id="DejaVuSans-33" transform="scale(0.015625)"/>
     </defs>
     <use xlink:href="#DejaVuSans-33"/>
     <use x="63.623047" xlink:href="#DejaVuSans-30"/>
    </g>
   </g>
   <g id="text_14">
    <!-- 60 -->
    <g transform="translate(94.184016 117.367769)scale(0.1 -0.1)">
     <use xlink:href="#DejaVuSans-36"/>
     <use x="63.623047" xlink:href="#DejaVuSans-30"/>
    </g>
   </g>
   <g id="text_15">
    <!-- 120 -->
    <g transform="translate(125.549934 104.582645)scale(0.1 -0.1)">
     <use xlink:href="#DejaVuSans-31"/>
     <use x="63.623047" xlink:href="#DejaVuSans-32"/>
     <use x="127.246094" xlink:href="#DejaVuSans-30"/>
    </g>
   </g>
   <g id="text_16">
    <!-- 240 -->
    <g transform="translate(157.089623 87.285124)scale(0.1 -0.1)">
     <use xlink:href="#DejaVuSans-32"/>
     <use x="63.623047" xlink:href="#DejaVuSans-34"/>
     <use x="127.246094" xlink:href="#DejaVuSans-30"/>
    </g>
   </g>
   <g id="text_17">
    <!-- 480 -->
    <g transform="translate(188.472918 79.764463)scale(0.1 -0.1)">
     <use xlink:href="#DejaVuSans-34"/>
     <use x="63.623047" xlink:href="#DejaVuSans-38"/>
     <use x="127.246094" xlink:href="#DejaVuSans-30"/>
    </g>
   </g>
   <g id="text_18">
    <!-- 960 -->
    <g transform="translate(218.187998 72.243802)scale(0.1 -0.1)">
     <defs>
      <path d="M 703 97 
L 703 672 
Q 941 559 1184 500 
Q 1428 441 1663 441 
Q 2288 441 2617 861 
Q 2947 1281 2994 2138 
Q 2813 1869 2534 1725 
Q 2256 1581 1919 1581 
Q 1219 1581 811 2004 
Q 403 2428 403 3163 
Q 403 3881 828 4315 
Q 1253 4750 1959 4750 
Q 2769 4750 3195 4129 
Q 3622 3509 3622 2328 
Q 3622 1225 3098 567 
Q 2575 -91 1691 -91 
Q 1453 -91 1209 -44 
Q 966 3 703 97 
z
M 1959 2075 
Q 2384 2075 2632 2365 
Q 2881 2656 2881 3163 
Q 2881 3666 2632 3958 
Q 2384 4250 1959 4250 
Q 1534 4250 1286 3958 
Q 1038 3666 1038 3163 
Q 1038 2656 1286 2365 
Q 1534 2075 1959 2075 
z
" id="DejaVuSans-39" transform="scale(0.015625)"/>
     </defs>
     <use xlink:href="#DejaVuSans-39"/>
     <use x="63.623047" xlink:href="#DejaVuSans-36"/>
     <use x="127.246094" xlink:href="#DejaVuSans-30"/>
    </g>
   </g>
   <g id="legend_1">
    <g id="patch_7">
     <path d="M 57.8 48.15625 
L 176.284375 48.15625 
Q 178.284375 48.15625 178.284375 46.15625 
L 178.284375 17.8 
Q 178.284375 15.8 176.284375 15.8 
L 57.8 15.8 
Q 55.8 15.8 55.8 17.8 
L 55.8 46.15625 
Q 55.8 48.15625 57.8 48.15625 
z
" style="fill:#ffffff;opacity:0.8;stroke:#cccccc;stroke-linejoin:miter;"/>
    </g>
    <g id="line2d_13">
     <path d="M 59.8 23.898438 
L 79.8 23.898438 
" style="fill:none;stroke:#000000;stroke-dasharray:5.55,2.4;stroke-dashoffset:0;stroke-width:1.5;"/>
    </g>
    <g id="line2d_14"/>
    <g id="text_19">
     <!-- Scaling threshold -->
     <g transform="translate(87.8 27.398438)scale(0.1 -0.1)">
      <defs>
       <path d="M 3425 4513 
L 3425 3897 
Q 3066 4069 2747 4153 
Q 2428 4238 2131 4238 
Q 1616 4238 1336 4038 
Q 1056 3838 1056 3469 
Q 1056 3159 1242 3001 
Q 1428 2844 1947 2747 
L 2328 2669 
Q 3034 2534 3370 2195 
Q 3706 1856 3706 1288 
Q 3706 609 3251 259 
Q 2797 -91 1919 -91 
Q 1588 -91 1214 -16 
Q 841 59 441 206 
L 441 856 
Q 825 641 1194 531 
Q 1563 422 1919 422 
Q 2459 422 2753 634 
Q 3047 847 3047 1241 
Q 3047 1584 2836 1778 
Q 2625 1972 2144 2069 
L 1759 2144 
Q 1053 2284 737 2584 
Q 422 2884 422 3419 
Q 422 4038 858 4394 
Q 1294 4750 2059 4750 
Q 2388 4750 2728 4690 
Q 3069 4631 3425 4513 
z
" id="DejaVuSans-53" transform="scale(0.015625)"/>
       <path d="M 2906 1791 
Q 2906 2416 2648 2759 
Q 2391 3103 1925 3103 
Q 1463 3103 1205 2759 
Q 947 2416 947 1791 
Q 947 1169 1205 825 
Q 1463 481 1925 481 
Q 2391 481 2648 825 
Q 2906 1169 2906 1791 
z
M 3481 434 
Q 3481 -459 3084 -895 
Q 2688 -1331 1869 -1331 
Q 1566 -1331 1297 -1286 
Q 1028 -1241 775 -1147 
L 775 -588 
Q 1028 -725 1275 -790 
Q 1522 -856 1778 -856 
Q 2344 -856 2625 -561 
Q 2906 -266 2906 331 
L 2906 616 
Q 2728 306 2450 153 
Q 2172 0 1784 0 
Q 1141 0 747 490 
Q 353 981 353 1791 
Q 353 2603 747 3093 
Q 1141 3584 1784 3584 
Q 2172 3584 2450 3431 
Q 2728 3278 2906 2969 
L 2906 3500 
L 3481 3500 
L 3481 434 
z
" id="DejaVuSans-67" transform="scale(0.015625)"/>
       <path d="M 3513 2113 
L 3513 0 
L 2938 0 
L 2938 2094 
Q 2938 2591 2744 2837 
Q 2550 3084 2163 3084 
Q 1697 3084 1428 2787 
Q 1159 2491 1159 1978 
L 1159 0 
L 581 0 
L 581 4863 
L 1159 4863 
L 1159 2956 
Q 1366 3272 1645 3428 
Q 1925 3584 2291 3584 
Q 2894 3584 3203 3211 
Q 3513 2838 3513 2113 
z
" id="DejaVuSans-68" transform="scale(0.015625)"/>
       <path d="M 2631 2963 
Q 2534 3019 2420 3045 
Q 2306 3072 2169 3072 
Q 1681 3072 1420 2755 
Q 1159 2438 1159 1844 
L 1159 0 
L 581 0 
L 581 3500 
L 1159 3500 
L 1159 2956 
Q 1341 3275 1631 3429 
Q 1922 3584 2338 3584 
Q 2397 3584 2469 3576 
Q 2541 3569 2628 3553 
L 2631 2963 
z
" id="DejaVuSans-72" transform="scale(0.015625)"/>
       <path d="M 2906 2969 
L 2906 4863 
L 3481 4863 
L 3481 0 
L 2906 0 
L 2906 525 
Q 2725 213 2448 61 
Q 2172 -91 1784 -91 
Q 1150 -91 751 415 
Q 353 922 353 1747 
Q 353 2572 751 3078 
Q 1150 3584 1784 3584 
Q 2172 3584 2448 3432 
Q 2725 3281 2906 2969 
z
M 947 1747 
Q 947 1113 1208 752 
Q 1469 391 1925 391 
Q 2381 391 2643 752 
Q 2906 1113 2906 1747 
Q 2906 2381 2643 2742 
Q 2381 3103 1925 3103 
Q 1469 3103 1208 2742 
Q 947 2381 947 1747 
z
" id="DejaVuSans-64" transform="scale(0.015625)"/>
      </defs>
      <use xlink:href="#DejaVuSans-53"/>
      <use x="63.476562" xlink:href="#DejaVuSans-63"/>
      <use x="118.457031" xlink:href="#DejaVuSans-61"/>
      <use x="179.736328" xlink:href="#DejaVuSans-6c"/>
      <use x="207.519531" xlink:href="#DejaVuSans-69"/>
      <use x="235.302734" xlink:href="#DejaVuSans-6e"/>
      <use x="298.681641" xlink:href="#DejaVuSans-67"/>
      <use x="362.158203" xlink:href="#DejaVuSans-20"/>
      <use x="393.945312" xlink:href="#DejaVuSans-74"/>
      <use x="433.154297" xlink:href="#DejaVuSans-68"/>
      <use x="496.533203" xlink:href="#DejaVuSans-72"/>
      <use x="535.396484" xlink:href="#DejaVuSans-65"/>
      <use x="596.919922" xlink:href="#DejaVuSans-73"/>
      <use x="649.019531" xlink:href="#DejaVuSans-68"/>
      <use x="712.398438" xlink:href="#DejaVuSans-6f"/>
      <use x="773.580078" xlink:href="#DejaVuSans-6c"/>
      <use x="801.363281" xlink:href="#DejaVuSans-64"/>
     </g>
    </g>
    <g id="line2d_15">
     <path d="M 59.8 38.576563 
L 79.8 38.576563 
" style="fill:none;stroke:#0000ff;stroke-dasharray:1.5,2.475;stroke-dashoffset:0;stroke-width:1.5;"/>
    </g>
    <g id="line2d_16"/>
    <g id="text_20">
     <!-- Utilization -->
     <g transform="translate(87.8 42.076563)scale(0.1 -0.1)">
      <use xlink:href="#DejaVuSans-55"/>
      <use x="73.193359" xlink:href="#DejaVuSans-74"/>
      <use x="112.402344" xlink:href="#DejaVuSans-69"/>
      <use x="140.185547" xlink:href="#DejaVuSans-6c"/>
      <use x="167.96875" xlink:href="#DejaVuSans-69"/>
      <use x="195.751953" xlink:href="#DejaVuSans-7a"/>
      <use x="248.242188" xlink:href="#DejaVuSans-61"/>
      <use x="309.521484" xlink:href="#DejaVuSans-74"/>
      <use x="348.730469" xlink:href="#DejaVuSans-69"/>
      <use x="376.513672" xlink:href="#DejaVuSans-6f"/>
      <use x="437.695312" xlink:href="#DejaVuSans-6e"/>
     </g>
    </g>
   </g>
  </g>
  <g id="axes_2">
   <g id="matplotlib.axis_3">
    <g id="ytick_5">
     <g id="line2d_17">
      <defs>
       <path d="M 0 0 
L 3.5 0 
" id="m647ef553cb" style="stroke:#000000;stroke-width:0.8;"/>
      </defs>
      <g>
       <use style="stroke:#000000;stroke-width:0.8;" x="249.825" xlink:href="#m647ef553cb" y="132.409091"/>
      </g>
     </g>
     <g id="text_21">
      <!-- 2 -->
      <g transform="translate(256.825 136.20831)scale(0.1 -0.1)">
       <use xlink:href="#DejaVuSans-32"/>
      </g>
     </g>
    </g>
    <g id="ytick_6">
     <g id="line2d_18">
      <g>
       <use style="stroke:#000000;stroke-width:0.8;" x="249.825" xlink:href="#m647ef553cb" y="99.318182"/>
      </g>
     </g>
     <g id="text_22">
      <!-- 4 -->
      <g transform="translate(256.825 103.117401)scale(0.1 -0.1)">
       <use xlink:href="#DejaVuSans-34"/>
      </g>
     </g>
    </g>
    <g id="ytick_7">
     <g id="line2d_19">
      <g>
       <use style="stroke:#000000;stroke-width:0.8;" x="249.825" xlink:href="#m647ef553cb" y="66.227273"/>
      </g>
     </g>
     <g id="text_23">
      <!-- 6 -->
      <g transform="translate(256.825 70.026491)scale(0.1 -0.1)">
       <use xlink:href="#DejaVuSans-36"/>
      </g>
     </g>
    </g>
    <g id="ytick_8">
     <g id="line2d_20">
      <g>
       <use style="stroke:#000000;stroke-width:0.8;" x="249.825" xlink:href="#m647ef553cb" y="33.136364"/>
      </g>
     </g>
     <g id="text_24">
      <!-- 8 -->
      <g transform="translate(256.825 36.935582)scale(0.1 -0.1)">
       <use xlink:href="#DejaVuSans-38"/>
      </g>
     </g>
    </g>
    <g id="text_25">
     <!-- Number of Replicas -->
     <g transform="translate(274.785937 123.279688)rotate(-90)scale(0.1 -0.1)">
      <defs>
       <path d="M 628 4666 
L 1478 4666 
L 3547 763 
L 3547 4666 
L 4159 4666 
L 4159 0 
L 3309 0 
L 1241 3903 
L 1241 0 
L 628 0 
L 628 4666 
z
" id="DejaVuSans-4e" transform="scale(0.015625)"/>
       <path d="M 3116 1747 
Q 3116 2381 2855 2742 
Q 2594 3103 2138 3103 
Q 1681 3103 1420 2742 
Q 1159 2381 1159 1747 
Q 1159 1113 1420 752 
Q 1681 391 2138 391 
Q 2594 391 2855 752 
Q 3116 1113 3116 1747 
z
M 1159 2969 
Q 1341 3281 1617 3432 
Q 1894 3584 2278 3584 
Q 2916 3584 3314 3078 
Q 3713 2572 3713 1747 
Q 3713 922 3314 415 
Q 2916 -91 2278 -91 
Q 1894 -91 1617 61 
Q 1341 213 1159 525 
L 1159 0 
L 581 0 
L 581 4863 
L 1159 4863 
L 1159 2969 
z
" id="DejaVuSans-62" transform="scale(0.015625)"/>
       <path d="M 2375 4863 
L 2375 4384 
L 1825 4384 
Q 1516 4384 1395 4259 
Q 1275 4134 1275 3809 
L 1275 3500 
L 2222 3500 
L 2222 3053 
L 1275 3053 
L 1275 0 
L 697 0 
L 697 3053 
L 147 3053 
L 147 3500 
L 697 3500 
L 697 3744 
Q 697 4328 969 4595 
Q 1241 4863 1831 4863 
L 2375 4863 
z
" id="DejaVuSans-66" transform="scale(0.015625)"/>
       <path d="M 2841 2188 
Q 3044 2119 3236 1894 
Q 3428 1669 3622 1275 
L 4263 0 
L 3584 0 
L 2988 1197 
Q 2756 1666 2539 1819 
Q 2322 1972 1947 1972 
L 1259 1972 
L 1259 0 
L 628 0 
L 628 4666 
L 2053 4666 
Q 2853 4666 3247 4331 
Q 3641 3997 3641 3322 
Q 3641 2881 3436 2590 
Q 3231 2300 2841 2188 
z
M 1259 4147 
L 1259 2491 
L 2053 2491 
Q 2509 2491 2742 2702 
Q 2975 2913 2975 3322 
Q 2975 3731 2742 3939 
Q 2509 4147 2053 4147 
L 1259 4147 
z
" id="DejaVuSans-52" transform="scale(0.015625)"/>
       <path d="M 1159 525 
L 1159 -1331 
L 581 -1331 
L 581 3500 
L 1159 3500 
L 1159 2969 
Q 1341 3281 1617 3432 
Q 1894 3584 2278 3584 
Q 2916 3584 3314 3078 
Q 3713 2572 3713 1747 
Q 3713 922 3314 415 
Q 2916 -91 2278 -91 
Q 1894 -91 1617 61 
Q 1341 213 1159 525 
z
M 3116 1747 
Q 3116 2381 2855 2742 
Q 2594 3103 2138 3103 
Q 1681 3103 1420 2742 
Q 1159 2381 1159 1747 
Q 1159 1113 1420 752 
Q 1681 391 2138 391 
Q 2594 391 2855 752 
Q 3116 1113 3116 1747 
z
" id="DejaVuSans-70" transform="scale(0.015625)"/>
      </defs>
      <use xlink:href="#DejaVuSans-4e"/>
      <use x="74.804688" xlink:href="#DejaVuSans-75"/>
      <use x="138.183594" xlink:href="#DejaVuSans-6d"/>
      <use x="235.595703" xlink:href="#DejaVuSans-62"/>
      <use x="299.072266" xlink:href="#DejaVuSans-65"/>
      <use x="360.595703" xlink:href="#DejaVuSans-72"/>
      <use x="401.708984" xlink:href="#DejaVuSans-20"/>
      <use x="433.496094" xlink:href="#DejaVuSans-6f"/>
      <use x="494.677734" xlink:href="#DejaVuSans-66"/>
      <use x="529.882812" xlink:href="#DejaVuSans-20"/>
      <use x="561.669922" xlink:href="#DejaVuSans-52"/>
      <use x="626.652344" xlink:href="#DejaVuSans-65"/>
      <use x="688.175781" xlink:href="#DejaVuSans-70"/>
      <use x="751.652344" xlink:href="#DejaVuSans-6c"/>
      <use x="779.435547" xlink:href="#DejaVuSans-69"/>
      <use x="807.21875" xlink:href="#DejaVuSans-63"/>
      <use x="862.199219" xlink:href="#DejaVuSans-61"/>
      <use x="923.478516" xlink:href="#DejaVuSans-73"/>
     </g>
    </g>
   </g>
   <g id="line2d_21">
    <path clip-path="url(#p8b744ca946)" d="M 59.846591 132.409091 
L 155.004355 132.409091 
L 155.178127 115.863636 
L 165.865129 115.863636 
L 166.056279 132.409091 
L 166.942518 132.409091 
L 167.116291 115.863636 
L 173.719642 115.863636 
L 173.893414 132.409091 
L 185.657805 132.409091 
L 185.831578 99.318182 
L 186.022727 99.318182 
L 186.1965 82.772727 
L 191.548689 82.772727 
L 191.722462 99.318182 
L 204.19932 99.318182 
L 204.390469 115.863636 
L 205.815403 115.863636 
L 205.989176 132.409091 
L 217.0411 132.409091 
L 217.214872 115.863636 
L 217.406022 66.227273 
L 217.579794 66.227273 
L 217.753567 49.681818 
L 218.657183 49.681818 
L 218.830956 33.136364 
L 225.069385 33.136364 
L 225.243157 49.681818 
L 227.206785 49.681818 
L 227.397935 16.590909 
L 235.599992 16.590909 
L 235.773764 33.136364 
L 237.024925 33.136364 
L 237.198698 132.409091 
L 240.778409 132.409091 
L 240.778409 132.409091 
" style="fill:none;stroke:#ff0000;stroke-linecap:square;stroke-width:1.5;"/>
   </g>
   <g id="patch_8">
    <path d="M 50.8 138.2 
L 50.8 10.8 
" style="fill:none;stroke:#000000;stroke-linecap:square;stroke-linejoin:miter;stroke-width:0.8;"/>
   </g>
   <g id="patch_9">
    <path d="M 249.825 138.2 
L 249.825 10.8 
" style="fill:none;stroke:#000000;stroke-linecap:square;stroke-linejoin:miter;stroke-width:0.8;"/>
   </g>
   <g id="patch_10">
    <path d="M 50.8 138.2 
L 249.825 138.2 
" style="fill:none;stroke:#000000;stroke-linecap:square;stroke-linejoin:miter;stroke-width:0.8;"/>
   </g>
   <g id="patch_11">
    <path d="M 50.8 10.8 
L 249.825 10.8 
" style="fill:none;stroke:#000000;stroke-linecap:square;stroke-linejoin:miter;stroke-width:0.8;"/>
   </g>
   <g id="text_26">
    <!-- (c) -->
    <g transform="translate(236.526511 34.005)scale(0.1 -0.1)">
     <defs>
      <path d="M 1984 4856 
Q 1566 4138 1362 3434 
Q 1159 2731 1159 2009 
Q 1159 1288 1364 580 
Q 1569 -128 1984 -844 
L 1484 -844 
Q 1016 -109 783 600 
Q 550 1309 550 2009 
Q 550 2706 781 3412 
Q 1013 4119 1484 4856 
L 1984 4856 
z
" id="DejaVuSans-28" transform="scale(0.015625)"/>
      <path d="M 513 4856 
L 1013 4856 
Q 1481 4119 1714 3412 
Q 1947 2706 1947 2009 
Q 1947 1309 1714 600 
Q 1481 -109 1013 -844 
L 513 -844 
Q 928 -128 1133 580 
Q 1338 1288 1338 2009 
Q 1338 2731 1133 3434 
Q 928 4138 513 4856 
z
" id="DejaVuSans-29" transform="scale(0.015625)"/>
     </defs>
     <use xlink:href="#DejaVuSans-28"/>
     <use x="39.013672" xlink:href="#DejaVuSans-63"/>
     <use x="93.994141" xlink:href="#DejaVuSans-29"/>
    </g>
   </g>
   <g id="legend_2">
    <g id="patch_12">
     <path d="M 57.8 83.339063 
L 131.192188 83.339063 
Q 133.192188 83.339063 133.192188 81.339063 
L 133.192188 67.660938 
Q 133.192188 65.660938 131.192188 65.660938 
L 57.8 65.660938 
Q 55.8 65.660938 55.8 67.660938 
L 55.8 81.339063 
Q 55.8 83.339063 57.8 83.339063 
z
" style="fill:#ffffff;opacity:0.8;stroke:#cccccc;stroke-linejoin:miter;"/>
    </g>
    <g id="line2d_22">
     <path d="M 59.8 73.759375 
L 79.8 73.759375 
" style="fill:none;stroke:#ff0000;stroke-linecap:square;stroke-width:1.5;"/>
    </g>
    <g id="line2d_23"/>
    <g id="text_27">
     <!-- Replicas -->
     <g transform="translate(87.8 77.259375)scale(0.1 -0.1)">
      <use xlink:href="#DejaVuSans-52"/>
      <use x="64.982422" xlink:href="#DejaVuSans-65"/>
      <use x="126.505859" xlink:href="#DejaVuSans-70"/>
      <use x="189.982422" xlink:href="#DejaVuSans-6c"/>
      <use x="217.765625" xlink:href="#DejaVuSans-69"/>
      <use x="245.548828" xlink:href="#DejaVuSans-63"/>
      <use x="300.529297" xlink:href="#DejaVuSans-61"/>
      <use x="361.808594" xlink:href="#DejaVuSans-73"/>
     </g>
    </g>
   </g>
  </g>
 </g>
 <defs>
  <clipPath id="p8b744ca946">
   <rect height="127.4" width="199.025" x="50.8" y="10.8"/>
  </clipPath>
 </defs>
</svg>
