<?xml version="1.0" encoding="utf-8" standalone="no"?>
<!DOCTYPE svg PUBLIC "-//W3C//DTD SVG 1.1//EN"
  "http://www.w3.org/Graphics/SVG/1.1/DTD/svg11.dtd">
<svg height="288pt" version="1.1" viewBox="0 0 432 288" width="432pt" xmlns="http://www.w3.org/2000/svg" xmlns:xlink="http://www.w3.org/1999/xlink">
 <metadata>
  <rdf:RDF xmlns:cc="http://creativecommons.org/ns#" xmlns:dc="http://purl.org/dc/elements/1.1/" xmlns:rdf="http://www.w3.org/1999/02/22-rdf-syntax-ns#">
   <cc:Work>
    <dc:type rdf:resource="http://purl.org/dc/dcmitype/StillImage"/>
    <dc:date>2021-10-18T13:51:23.776446</dc:date>
    <dc:format>image/svg+xml</dc:format>
    <dc:creator>
     <cc:Agent>
      <dc:title>Matplotlib v3.4.3, https://matplotlib.org/</dc:title>
     </cc:Agent>
    </dc:creator>
   </cc:Work>
  </rdf:RDF>
 </metadata>
 <defs>
  <style type="text/css">*{stroke-linecap:butt;stroke-linejoin:round;}</style>
 </defs>
 <g id="figure_1">
  <g id="patch_1">
   <path d="M 0 288 
L 432 288 
L 432 0 
L 0 0 
z
" style="fill:none;"/>
  </g>
  <g id="axes_1">
   <g id="patch_2">
    <path d="M 50.175 248.2 
L 394.7 248.2 
L 394.7 12.117898 
L 50.175 12.117898 
z
" style="fill:#ffffff;"/>
   </g>
   <g id="matplotlib.axis_1">
    <g id="xtick_1">
     <g id="line2d_1">
      <defs>
       <path d="M 0 0 
L 0 3.5 
" id="m3e483f8655" style="stroke:#000000;stroke-width:0.8;"/>
      </defs>
      <g>
       <use style="stroke:#000000;stroke-width:0.8;" x="65.835227" xlink:href="#m3e483f8655" y="248.2"/>
      </g>
     </g>
     <g id="text_1">
      <!-- 0 -->
      <g transform="translate(62.653977 262.798438)scale(0.1 -0.1)">
       <defs>
        <path d="M 2034 219 
Q 2513 219 2750 744 
Q 2988 1269 2988 2328 
Q 2988 3391 2750 3916 
Q 2513 4441 2034 4441 
Q 1556 4441 1318 3916 
Q 1081 3391 1081 2328 
Q 1081 1269 1318 744 
Q 1556 219 2034 219 
z
M 2034 -91 
Q 1275 -91 848 546 
Q 422 1184 422 2328 
Q 422 3475 848 4112 
Q 1275 4750 2034 4750 
Q 2797 4750 3222 4112 
Q 3647 3475 3647 2328 
Q 3647 1184 3222 546 
Q 2797 -91 2034 -91 
z
" id="DejaVuSerif-30" transform="scale(0.015625)"/>
       </defs>
       <use xlink:href="#DejaVuSerif-30"/>
      </g>
     </g>
    </g>
    <g id="xtick_2">
     <g id="line2d_2">
      <g>
       <use style="stroke:#000000;stroke-width:0.8;" x="125.997453" xlink:href="#m3e483f8655" y="248.2"/>
      </g>
     </g>
     <g id="text_2">
      <!-- 2000 -->
      <g transform="translate(113.272453 262.798438)scale(0.1 -0.1)">
       <defs>
        <path d="M 819 3553 
L 469 3553 
L 469 4384 
Q 803 4563 1142 4656 
Q 1481 4750 1806 4750 
Q 2534 4750 2956 4397 
Q 3378 4044 3378 3438 
Q 3378 2753 2422 1800 
Q 2347 1728 2309 1691 
L 1131 513 
L 3078 513 
L 3078 1088 
L 3444 1088 
L 3444 0 
L 434 0 
L 434 341 
L 1850 1753 
Q 2319 2222 2519 2614 
Q 2719 3006 2719 3438 
Q 2719 3909 2473 4175 
Q 2228 4441 1797 4441 
Q 1350 4441 1106 4219 
Q 863 3997 819 3553 
z
" id="DejaVuSerif-32" transform="scale(0.015625)"/>
       </defs>
       <use xlink:href="#DejaVuSerif-32"/>
       <use x="63.623047" xlink:href="#DejaVuSerif-30"/>
       <use x="127.246094" xlink:href="#DejaVuSerif-30"/>
       <use x="190.869141" xlink:href="#DejaVuSerif-30"/>
      </g>
     </g>
    </g>
    <g id="xtick_3">
     <g id="line2d_3">
      <g>
       <use style="stroke:#000000;stroke-width:0.8;" x="186.159678" xlink:href="#m3e483f8655" y="248.2"/>
      </g>
     </g>
     <g id="text_3">
      <!-- 4000 -->
      <g transform="translate(173.434678 262.798438)scale(0.1 -0.1)">
       <defs>
        <path d="M 2234 1581 
L 2234 4063 
L 641 1581 
L 2234 1581 
z
M 3609 0 
L 1484 0 
L 1484 331 
L 2234 331 
L 2234 1247 
L 197 1247 
L 197 1588 
L 2241 4750 
L 2859 4750 
L 2859 1581 
L 3750 1581 
L 3750 1247 
L 2859 1247 
L 2859 331 
L 3609 331 
L 3609 0 
z
" id="DejaVuSerif-34" transform="scale(0.015625)"/>
       </defs>
       <use xlink:href="#DejaVuSerif-34"/>
       <use x="63.623047" xlink:href="#DejaVuSerif-30"/>
       <use x="127.246094" xlink:href="#DejaVuSerif-30"/>
       <use x="190.869141" xlink:href="#DejaVuSerif-30"/>
      </g>
     </g>
    </g>
    <g id="xtick_4">
     <g id="line2d_4">
      <g>
       <use style="stroke:#000000;stroke-width:0.8;" x="246.321903" xlink:href="#m3e483f8655" y="248.2"/>
      </g>
     </g>
     <g id="text_4">
      <!-- 6000 -->
      <g transform="translate(233.596903 262.798438)scale(0.1 -0.1)">
       <defs>
        <path d="M 2094 219 
Q 2534 219 2771 542 
Q 3009 866 3009 1472 
Q 3009 2078 2771 2401 
Q 2534 2725 2094 2725 
Q 1647 2725 1412 2412 
Q 1178 2100 1178 1509 
Q 1178 888 1415 553 
Q 1653 219 2094 219 
z
M 1075 2569 
Q 1288 2803 1556 2918 
Q 1825 3034 2163 3034 
Q 2859 3034 3264 2615 
Q 3669 2197 3669 1472 
Q 3669 763 3233 336 
Q 2797 -91 2069 -91 
Q 1278 -91 853 498 
Q 428 1088 428 2181 
Q 428 3406 931 4078 
Q 1434 4750 2350 4750 
Q 2597 4750 2869 4703 
Q 3141 4656 3425 4563 
L 3425 3794 
L 3072 3794 
Q 3034 4109 2831 4275 
Q 2628 4441 2284 4441 
Q 1678 4441 1381 3981 
Q 1084 3522 1075 2569 
z
" id="DejaVuSerif-36" transform="scale(0.015625)"/>
       </defs>
       <use xlink:href="#DejaVuSerif-36"/>
       <use x="63.623047" xlink:href="#DejaVuSerif-30"/>
       <use x="127.246094" xlink:href="#DejaVuSerif-30"/>
       <use x="190.869141" xlink:href="#DejaVuSerif-30"/>
      </g>
     </g>
    </g>
    <g id="xtick_5">
     <g id="line2d_5">
      <g>
       <use style="stroke:#000000;stroke-width:0.8;" x="306.484129" xlink:href="#m3e483f8655" y="248.2"/>
      </g>
     </g>
     <g id="text_5">
      <!-- 8000 -->
      <g transform="translate(293.759129 262.798438)scale(0.1 -0.1)">
       <defs>
        <path d="M 2981 1275 
Q 2981 1775 2732 2051 
Q 2484 2328 2034 2328 
Q 1584 2328 1336 2051 
Q 1088 1775 1088 1275 
Q 1088 772 1336 495 
Q 1584 219 2034 219 
Q 2484 219 2732 495 
Q 2981 772 2981 1275 
z
M 2853 3541 
Q 2853 3966 2637 4203 
Q 2422 4441 2034 4441 
Q 1650 4441 1433 4203 
Q 1216 3966 1216 3541 
Q 1216 3113 1433 2875 
Q 1650 2638 2034 2638 
Q 2422 2638 2637 2875 
Q 2853 3113 2853 3541 
z
M 2516 2484 
Q 3047 2413 3344 2092 
Q 3641 1772 3641 1275 
Q 3641 619 3225 264 
Q 2809 -91 2034 -91 
Q 1263 -91 845 264 
Q 428 619 428 1275 
Q 428 1772 725 2092 
Q 1022 2413 1556 2484 
Q 1084 2569 832 2842 
Q 581 3116 581 3541 
Q 581 4103 968 4426 
Q 1356 4750 2034 4750 
Q 2713 4750 3100 4426 
Q 3488 4103 3488 3541 
Q 3488 3116 3236 2842 
Q 2984 2569 2516 2484 
z
" id="DejaVuSerif-38" transform="scale(0.015625)"/>
       </defs>
       <use xlink:href="#DejaVuSerif-38"/>
       <use x="63.623047" xlink:href="#DejaVuSerif-30"/>
       <use x="127.246094" xlink:href="#DejaVuSerif-30"/>
       <use x="190.869141" xlink:href="#DejaVuSerif-30"/>
      </g>
     </g>
    </g>
    <g id="xtick_6">
     <g id="line2d_6">
      <g>
       <use style="stroke:#000000;stroke-width:0.8;" x="366.646354" xlink:href="#m3e483f8655" y="248.2"/>
      </g>
     </g>
     <g id="text_6">
      <!-- 10000 -->
      <g transform="translate(350.740104 262.798438)scale(0.1 -0.1)">
       <defs>
        <path d="M 909 0 
L 909 331 
L 1722 331 
L 1722 4213 
L 781 3603 
L 781 4013 
L 1919 4750 
L 2350 4750 
L 2350 331 
L 3163 331 
L 3163 0 
L 909 0 
z
" id="DejaVuSerif-31" transform="scale(0.015625)"/>
       </defs>
       <use xlink:href="#DejaVuSerif-31"/>
       <use x="63.623047" xlink:href="#DejaVuSerif-30"/>
       <use x="127.246094" xlink:href="#DejaVuSerif-30"/>
       <use x="190.869141" xlink:href="#DejaVuSerif-30"/>
       <use x="254.492188" xlink:href="#DejaVuSerif-30"/>
      </g>
     </g>
    </g>
    <g id="text_7">
     <!-- Time [sec] -->
     <g transform="translate(195.986719 276.476562)scale(0.1 -0.1)">
      <defs>
       <path d="M 1222 0 
L 1222 331 
L 1819 331 
L 1819 4294 
L 447 4294 
L 447 3566 
L 63 3566 
L 63 4666 
L 4206 4666 
L 4206 3566 
L 3822 3566 
L 3822 4294 
L 2450 4294 
L 2450 331 
L 3047 331 
L 3047 0 
L 1222 0 
z
" id="DejaVuSerif-54" transform="scale(0.015625)"/>
       <path d="M 622 4353 
Q 622 4497 726 4603 
Q 831 4709 978 4709 
Q 1122 4709 1226 4603 
Q 1331 4497 1331 4353 
Q 1331 4206 1228 4103 
Q 1125 4000 978 4000 
Q 831 4000 726 4103 
Q 622 4206 622 4353 
z
M 1356 331 
L 1900 331 
L 1900 0 
L 231 0 
L 231 331 
L 781 331 
L 781 2988 
L 231 2988 
L 231 3322 
L 1356 3322 
L 1356 331 
z
" id="DejaVuSerif-69" transform="scale(0.015625)"/>
       <path d="M 3316 2675 
Q 3481 3041 3739 3227 
Q 3997 3413 4341 3413 
Q 4863 3413 5119 3089 
Q 5375 2766 5375 2113 
L 5375 331 
L 5894 331 
L 5894 0 
L 4300 0 
L 4300 331 
L 4800 331 
L 4800 2047 
Q 4800 2556 4650 2772 
Q 4500 2988 4153 2988 
Q 3769 2988 3567 2697 
Q 3366 2406 3366 1850 
L 3366 331 
L 3866 331 
L 3866 0 
L 2291 0 
L 2291 331 
L 2791 331 
L 2791 2069 
Q 2791 2566 2641 2777 
Q 2491 2988 2144 2988 
Q 1759 2988 1557 2697 
Q 1356 2406 1356 1850 
L 1356 331 
L 1856 331 
L 1856 0 
L 263 0 
L 263 331 
L 781 331 
L 781 2994 
L 231 2994 
L 231 3322 
L 1356 3322 
L 1356 2731 
Q 1516 3063 1762 3238 
Q 2009 3413 2322 3413 
Q 2709 3413 2968 3220 
Q 3228 3028 3316 2675 
z
" id="DejaVuSerif-6d" transform="scale(0.015625)"/>
       <path d="M 3469 1600 
L 991 1600 
L 991 1575 
Q 991 903 1244 561 
Q 1497 219 1991 219 
Q 2369 219 2611 417 
Q 2853 616 2950 1006 
L 3413 1006 
Q 3275 459 2904 184 
Q 2534 -91 1931 -91 
Q 1203 -91 761 389 
Q 319 869 319 1663 
Q 319 2450 753 2931 
Q 1188 3413 1894 3413 
Q 2647 3413 3050 2948 
Q 3453 2484 3469 1600 
z
M 2791 1931 
Q 2772 2513 2545 2808 
Q 2319 3103 1894 3103 
Q 1497 3103 1269 2806 
Q 1041 2509 991 1931 
L 2791 1931 
z
" id="DejaVuSerif-65" transform="scale(0.015625)"/>
       <path id="DejaVuSerif-20" transform="scale(0.015625)"/>
       <path d="M 550 4863 
L 2003 4863 
L 2003 4531 
L 1147 4531 
L 1147 -513 
L 2003 -513 
L 2003 -844 
L 550 -844 
L 550 4863 
z
" id="DejaVuSerif-5b" transform="scale(0.015625)"/>
       <path d="M 359 184 
L 359 959 
L 691 959 
Q 703 588 923 403 
Q 1144 219 1575 219 
Q 1963 219 2166 364 
Q 2369 509 2369 788 
Q 2369 1006 2220 1140 
Q 2072 1275 1594 1428 
L 1178 1569 
Q 750 1706 558 1912 
Q 366 2119 366 2438 
Q 366 2894 700 3153 
Q 1034 3413 1625 3413 
Q 1888 3413 2178 3344 
Q 2469 3275 2778 3144 
L 2778 2419 
L 2447 2419 
Q 2434 2741 2221 2922 
Q 2009 3103 1644 3103 
Q 1281 3103 1095 2975 
Q 909 2847 909 2591 
Q 909 2381 1050 2254 
Q 1191 2128 1613 1997 
L 2069 1856 
Q 2541 1709 2748 1489 
Q 2956 1269 2956 922 
Q 2956 450 2595 179 
Q 2234 -91 1600 -91 
Q 1278 -91 972 -22 
Q 666 47 359 184 
z
" id="DejaVuSerif-73" transform="scale(0.015625)"/>
       <path d="M 3291 997 
Q 3169 466 2822 187 
Q 2475 -91 1925 -91 
Q 1200 -91 759 389 
Q 319 869 319 1663 
Q 319 2459 759 2936 
Q 1200 3413 1925 3413 
Q 2241 3413 2553 3339 
Q 2866 3266 3181 3116 
L 3181 2266 
L 2847 2266 
Q 2781 2703 2561 2903 
Q 2341 3103 1931 3103 
Q 1466 3103 1228 2742 
Q 991 2381 991 1663 
Q 991 944 1227 581 
Q 1463 219 1931 219 
Q 2303 219 2525 412 
Q 2747 606 2828 997 
L 3291 997 
z
" id="DejaVuSerif-63" transform="scale(0.015625)"/>
       <path d="M 1947 4863 
L 1947 -844 
L 494 -844 
L 494 -513 
L 1350 -513 
L 1350 4531 
L 494 4531 
L 494 4863 
L 1947 4863 
z
" id="DejaVuSerif-5d" transform="scale(0.015625)"/>
      </defs>
      <use xlink:href="#DejaVuSerif-54"/>
      <use x="66.699219" xlink:href="#DejaVuSerif-69"/>
      <use x="98.681641" xlink:href="#DejaVuSerif-6d"/>
      <use x="193.505859" xlink:href="#DejaVuSerif-65"/>
      <use x="252.685547" xlink:href="#DejaVuSerif-20"/>
      <use x="284.472656" xlink:href="#DejaVuSerif-5b"/>
      <use x="323.486328" xlink:href="#DejaVuSerif-73"/>
      <use x="374.804688" xlink:href="#DejaVuSerif-65"/>
      <use x="433.984375" xlink:href="#DejaVuSerif-63"/>
      <use x="489.990234" xlink:href="#DejaVuSerif-5d"/>
     </g>
    </g>
   </g>
   <g id="matplotlib.axis_2">
    <g id="ytick_1">
     <g id="line2d_7">
      <defs>
       <path d="M 0 0 
L -3.5 0 
" id="m9ba2c9614e" style="stroke:#000000;stroke-width:0.8;"/>
      </defs>
      <g>
       <use style="stroke:#000000;stroke-width:0.8;" x="50.175" xlink:href="#m9ba2c9614e" y="237.468995"/>
      </g>
     </g>
     <g id="text_8">
      <!-- 0 -->
      <g transform="translate(36.8125 241.268214)scale(0.1 -0.1)">
       <use xlink:href="#DejaVuSerif-30"/>
      </g>
     </g>
    </g>
    <g id="ytick_2">
     <g id="line2d_8">
      <g>
       <use style="stroke:#000000;stroke-width:0.8;" x="50.175" xlink:href="#m9ba2c9614e" y="209.596256"/>
      </g>
     </g>
     <g id="text_9">
      <!-- 20 -->
      <g transform="translate(30.45 213.395475)scale(0.1 -0.1)">
       <use xlink:href="#DejaVuSerif-32"/>
       <use x="63.623047" xlink:href="#DejaVuSerif-30"/>
      </g>
     </g>
    </g>
    <g id="ytick_3">
     <g id="line2d_9">
      <g>
       <use style="stroke:#000000;stroke-width:0.8;" x="50.175" xlink:href="#m9ba2c9614e" y="181.723517"/>
      </g>
     </g>
     <g id="text_10">
      <!-- 40 -->
      <g transform="translate(30.45 185.522736)scale(0.1 -0.1)">
       <use xlink:href="#DejaVuSerif-34"/>
       <use x="63.623047" xlink:href="#DejaVuSerif-30"/>
      </g>
     </g>
    </g>
    <g id="ytick_4">
     <g id="line2d_10">
      <g>
       <use style="stroke:#000000;stroke-width:0.8;" x="50.175" xlink:href="#m9ba2c9614e" y="153.850778"/>
      </g>
     </g>
     <g id="text_11">
      <!-- 60 -->
      <g transform="translate(30.45 157.649996)scale(0.1 -0.1)">
       <use xlink:href="#DejaVuSerif-36"/>
       <use x="63.623047" xlink:href="#DejaVuSerif-30"/>
      </g>
     </g>
    </g>
    <g id="ytick_5">
     <g id="line2d_11">
      <g>
       <use style="stroke:#000000;stroke-width:0.8;" x="50.175" xlink:href="#m9ba2c9614e" y="125.978038"/>
      </g>
     </g>
     <g id="text_12">
      <!-- 80 -->
      <g transform="translate(30.45 129.777257)scale(0.1 -0.1)">
       <use xlink:href="#DejaVuSerif-38"/>
       <use x="63.623047" xlink:href="#DejaVuSerif-30"/>
      </g>
     </g>
    </g>
    <g id="ytick_6">
     <g id="line2d_12">
      <g>
       <use style="stroke:#000000;stroke-width:0.8;" x="50.175" xlink:href="#m9ba2c9614e" y="98.105299"/>
      </g>
     </g>
     <g id="text_13">
      <!-- 100 -->
      <g transform="translate(24.0875 101.904518)scale(0.1 -0.1)">
       <use xlink:href="#DejaVuSerif-31"/>
       <use x="63.623047" xlink:href="#DejaVuSerif-30"/>
       <use x="127.246094" xlink:href="#DejaVuSerif-30"/>
      </g>
     </g>
    </g>
    <g id="ytick_7">
     <g id="line2d_13">
      <g>
       <use style="stroke:#000000;stroke-width:0.8;" x="50.175" xlink:href="#m9ba2c9614e" y="70.23256"/>
      </g>
     </g>
     <g id="text_14">
      <!-- 120 -->
      <g transform="translate(24.0875 74.031779)scale(0.1 -0.1)">
       <use xlink:href="#DejaVuSerif-31"/>
       <use x="63.623047" xlink:href="#DejaVuSerif-32"/>
       <use x="127.246094" xlink:href="#DejaVuSerif-30"/>
      </g>
     </g>
    </g>
    <g id="ytick_8">
     <g id="line2d_14">
      <g>
       <use style="stroke:#000000;stroke-width:0.8;" x="50.175" xlink:href="#m9ba2c9614e" y="42.359821"/>
      </g>
     </g>
     <g id="text_15">
      <!-- 140 -->
      <g transform="translate(24.0875 46.159039)scale(0.1 -0.1)">
       <use xlink:href="#DejaVuSerif-31"/>
       <use x="63.623047" xlink:href="#DejaVuSerif-34"/>
       <use x="127.246094" xlink:href="#DejaVuSerif-30"/>
      </g>
     </g>
    </g>
    <g id="ytick_9">
     <g id="line2d_15">
      <g>
       <use style="stroke:#000000;stroke-width:0.8;" x="50.175" xlink:href="#m9ba2c9614e" y="14.487081"/>
      </g>
     </g>
     <g id="text_16">
      <!-- 160 -->
      <g transform="translate(24.0875 18.2863)scale(0.1 -0.1)">
       <use xlink:href="#DejaVuSerif-31"/>
       <use x="63.623047" xlink:href="#DejaVuSerif-36"/>
       <use x="127.246094" xlink:href="#DejaVuSerif-30"/>
      </g>
     </g>
    </g>
    <g id="text_17">
     <!-- Relative CPU utilization [%] -->
     <g transform="translate(18.007812 201.074574)rotate(-90)scale(0.1 -0.1)">
      <defs>
       <path d="M 3066 2316 
Q 3284 2256 3442 2114 
Q 3600 1972 3725 1716 
L 4403 331 
L 4972 331 
L 4972 0 
L 3872 0 
L 3144 1484 
Q 2934 1916 2759 2042 
Q 2584 2169 2278 2169 
L 1581 2169 
L 1581 331 
L 2241 331 
L 2241 0 
L 353 0 
L 353 331 
L 947 331 
L 947 4331 
L 353 4331 
L 353 4666 
L 2719 4666 
Q 3400 4666 3770 4341 
Q 4141 4016 4141 3419 
Q 4141 2938 3870 2661 
Q 3600 2384 3066 2316 
z
M 1581 2503 
L 2503 2503 
Q 2975 2503 3200 2726 
Q 3425 2950 3425 3419 
Q 3425 3888 3200 4109 
Q 2975 4331 2503 4331 
L 1581 4331 
L 1581 2503 
z
" id="DejaVuSerif-52" transform="scale(0.015625)"/>
       <path d="M 1313 331 
L 1856 331 
L 1856 0 
L 184 0 
L 184 331 
L 738 331 
L 738 4531 
L 184 4531 
L 184 4863 
L 1313 4863 
L 1313 331 
z
" id="DejaVuSerif-6c" transform="scale(0.015625)"/>
       <path d="M 2547 1044 
L 2547 1747 
L 1806 1747 
Q 1378 1747 1168 1562 
Q 959 1378 959 997 
Q 959 650 1171 447 
Q 1384 244 1747 244 
Q 2106 244 2326 466 
Q 2547 688 2547 1044 
z
M 3122 2075 
L 3122 331 
L 3634 331 
L 3634 0 
L 2547 0 
L 2547 359 
Q 2356 128 2106 18 
Q 1856 -91 1522 -91 
Q 969 -91 644 203 
Q 319 497 319 997 
Q 319 1513 691 1797 
Q 1063 2081 1741 2081 
L 2547 2081 
L 2547 2309 
Q 2547 2688 2317 2895 
Q 2088 3103 1672 3103 
Q 1328 3103 1125 2947 
Q 922 2791 872 2484 
L 575 2484 
L 575 3156 
Q 875 3284 1158 3348 
Q 1441 3413 1709 3413 
Q 2400 3413 2761 3070 
Q 3122 2728 3122 2075 
z
" id="DejaVuSerif-61" transform="scale(0.015625)"/>
       <path d="M 691 2988 
L 184 2988 
L 184 3322 
L 691 3322 
L 691 4353 
L 1269 4353 
L 1269 3322 
L 2350 3322 
L 2350 2988 
L 1269 2988 
L 1269 878 
Q 1269 456 1350 337 
Q 1431 219 1650 219 
Q 1875 219 1978 351 
Q 2081 484 2088 781 
L 2522 781 
Q 2497 328 2275 118 
Q 2053 -91 1600 -91 
Q 1103 -91 897 129 
Q 691 350 691 878 
L 691 2988 
z
" id="DejaVuSerif-74" transform="scale(0.015625)"/>
       <path d="M 1581 0 
L 359 2988 
L -19 2988 
L -19 3322 
L 1509 3322 
L 1509 2988 
L 978 2988 
L 1913 703 
L 2847 2988 
L 2350 2988 
L 2350 3322 
L 3597 3322 
L 3597 2988 
L 3225 2988 
L 2003 0 
L 1581 0 
z
" id="DejaVuSerif-76" transform="scale(0.015625)"/>
       <path d="M 4513 1234 
Q 4306 581 3820 245 
Q 3334 -91 2591 -91 
Q 2134 -91 1743 65 
Q 1353 222 1050 525 
Q 700 875 529 1320 
Q 359 1766 359 2328 
Q 359 3416 987 4083 
Q 1616 4750 2644 4750 
Q 3025 4750 3456 4650 
Q 3888 4550 4384 4347 
L 4384 3272 
L 4031 3272 
Q 3916 3859 3567 4137 
Q 3219 4416 2591 4416 
Q 1844 4416 1459 3886 
Q 1075 3356 1075 2328 
Q 1075 1303 1459 773 
Q 1844 244 2591 244 
Q 3113 244 3450 492 
Q 3788 741 3938 1234 
L 4513 1234 
z
" id="DejaVuSerif-43" transform="scale(0.015625)"/>
       <path d="M 1581 2375 
L 2406 2375 
Q 2872 2375 3115 2626 
Q 3359 2878 3359 3353 
Q 3359 3831 3115 4081 
Q 2872 4331 2406 4331 
L 1581 4331 
L 1581 2375 
z
M 353 0 
L 353 331 
L 947 331 
L 947 4331 
L 353 4331 
L 353 4666 
L 2559 4666 
Q 3259 4666 3668 4311 
Q 4078 3956 4078 3353 
Q 4078 2753 3668 2397 
Q 3259 2041 2559 2041 
L 1581 2041 
L 1581 331 
L 2303 331 
L 2303 0 
L 353 0 
z
" id="DejaVuSerif-50" transform="scale(0.015625)"/>
       <path d="M 897 4331 
L 300 4331 
L 300 4666 
L 2125 4666 
L 2125 4331 
L 1528 4331 
L 1528 1919 
Q 1528 1025 1820 672 
Q 2113 319 2828 319 
Q 3544 319 3836 672 
Q 4128 1025 4128 1919 
L 4128 4331 
L 3531 4331 
L 3531 4666 
L 5106 4666 
L 5106 4331 
L 4513 4331 
L 4513 1856 
Q 4513 791 4103 350 
Q 3694 -91 2713 -91 
Q 1731 -91 1314 353 
Q 897 797 897 1856 
L 897 4331 
z
" id="DejaVuSerif-55" transform="scale(0.015625)"/>
       <path d="M 2266 3322 
L 3341 3322 
L 3341 331 
L 3884 331 
L 3884 0 
L 2766 0 
L 2766 588 
Q 2606 256 2353 82 
Q 2100 -91 1766 -91 
Q 1213 -91 952 223 
Q 691 538 691 1209 
L 691 2988 
L 172 2988 
L 172 3322 
L 1269 3322 
L 1269 1388 
Q 1269 781 1417 556 
Q 1566 331 1947 331 
Q 2347 331 2556 625 
Q 2766 919 2766 1478 
L 2766 2988 
L 2266 2988 
L 2266 3322 
z
" id="DejaVuSerif-75" transform="scale(0.015625)"/>
       <path d="M 256 0 
L 256 269 
L 2338 2988 
L 691 2988 
L 691 2413 
L 359 2413 
L 359 3322 
L 3078 3322 
L 3078 3053 
L 997 331 
L 2803 331 
L 2803 934 
L 3138 934 
L 3138 0 
L 256 0 
z
" id="DejaVuSerif-7a" transform="scale(0.015625)"/>
       <path d="M 1925 219 
Q 2388 219 2623 584 
Q 2859 950 2859 1663 
Q 2859 2375 2623 2739 
Q 2388 3103 1925 3103 
Q 1463 3103 1227 2739 
Q 991 2375 991 1663 
Q 991 950 1228 584 
Q 1466 219 1925 219 
z
M 1925 -91 
Q 1200 -91 759 389 
Q 319 869 319 1663 
Q 319 2456 758 2934 
Q 1197 3413 1925 3413 
Q 2653 3413 3092 2934 
Q 3531 2456 3531 1663 
Q 3531 869 3092 389 
Q 2653 -91 1925 -91 
z
" id="DejaVuSerif-6f" transform="scale(0.015625)"/>
       <path d="M 263 0 
L 263 331 
L 781 331 
L 781 2988 
L 231 2988 
L 231 3322 
L 1356 3322 
L 1356 2731 
Q 1516 3069 1770 3241 
Q 2025 3413 2363 3413 
Q 2913 3413 3172 3097 
Q 3431 2781 3431 2113 
L 3431 331 
L 3944 331 
L 3944 0 
L 2356 0 
L 2356 331 
L 2853 331 
L 2853 1931 
Q 2853 2541 2703 2767 
Q 2553 2994 2175 2994 
Q 1775 2994 1565 2701 
Q 1356 2409 1356 1850 
L 1356 331 
L 1856 331 
L 1856 0 
L 263 0 
z
" id="DejaVuSerif-6e" transform="scale(0.015625)"/>
       <path d="M 1434 4459 
Q 1159 4459 1004 4200 
Q 850 3941 850 3475 
Q 850 3016 1008 2753 
Q 1166 2491 1434 2491 
Q 1700 2491 1854 2752 
Q 2009 3013 2009 3475 
Q 2009 3938 1854 4198 
Q 1700 4459 1434 4459 
z
M 4653 2169 
Q 4381 2169 4226 1906 
Q 4072 1644 4072 1178 
Q 4072 719 4228 458 
Q 4384 197 4653 197 
Q 4922 197 5075 458 
Q 5228 719 5228 1178 
Q 5228 1641 5073 1905 
Q 4919 2169 4653 2169 
z
M 4653 2450 
Q 5147 2450 5437 2106 
Q 5728 1763 5728 1178 
Q 5728 594 5436 251 
Q 5144 -91 4653 -91 
Q 4153 -91 3862 251 
Q 3572 594 3572 1178 
Q 3572 1766 3864 2108 
Q 4156 2450 4653 2450 
z
M 4263 4750 
L 4738 4750 
L 1819 -91 
L 1344 -91 
L 4263 4750 
z
M 1428 4750 
Q 1922 4750 2215 4408 
Q 2509 4066 2509 3481 
Q 2509 2891 2217 2550 
Q 1925 2209 1428 2209 
Q 931 2209 642 2551 
Q 353 2894 353 3481 
Q 353 4063 643 4406 
Q 934 4750 1428 4750 
z
" id="DejaVuSerif-25" transform="scale(0.015625)"/>
      </defs>
      <use xlink:href="#DejaVuSerif-52"/>
      <use x="75.292969" xlink:href="#DejaVuSerif-65"/>
      <use x="134.472656" xlink:href="#DejaVuSerif-6c"/>
      <use x="166.455078" xlink:href="#DejaVuSerif-61"/>
      <use x="226.074219" xlink:href="#DejaVuSerif-74"/>
      <use x="266.259766" xlink:href="#DejaVuSerif-69"/>
      <use x="298.242188" xlink:href="#DejaVuSerif-76"/>
      <use x="354.736328" xlink:href="#DejaVuSerif-65"/>
      <use x="413.916016" xlink:href="#DejaVuSerif-20"/>
      <use x="445.703125" xlink:href="#DejaVuSerif-43"/>
      <use x="522.216797" xlink:href="#DejaVuSerif-50"/>
      <use x="587.751953" xlink:href="#DejaVuSerif-55"/>
      <use x="672.029297" xlink:href="#DejaVuSerif-20"/>
      <use x="703.816406" xlink:href="#DejaVuSerif-75"/>
      <use x="768.220703" xlink:href="#DejaVuSerif-74"/>
      <use x="808.40625" xlink:href="#DejaVuSerif-69"/>
      <use x="840.388672" xlink:href="#DejaVuSerif-6c"/>
      <use x="872.371094" xlink:href="#DejaVuSerif-69"/>
      <use x="904.353516" xlink:href="#DejaVuSerif-7a"/>
      <use x="957.039062" xlink:href="#DejaVuSerif-61"/>
      <use x="1016.658203" xlink:href="#DejaVuSerif-74"/>
      <use x="1056.84375" xlink:href="#DejaVuSerif-69"/>
      <use x="1088.826172" xlink:href="#DejaVuSerif-6f"/>
      <use x="1149.03125" xlink:href="#DejaVuSerif-6e"/>
      <use x="1213.435547" xlink:href="#DejaVuSerif-20"/>
      <use x="1245.222656" xlink:href="#DejaVuSerif-5b"/>
      <use x="1284.236328" xlink:href="#DejaVuSerif-25"/>
      <use x="1379.255859" xlink:href="#DejaVuSerif-5d"/>
     </g>
    </g>
   </g>
   <g id="line2d_16">
    <path clip-path="url(#pf311ddaf99)" d="M 65.835227 167.787147 
L 379.039773 167.787147 
L 379.039773 167.787147 
" style="fill:none;stroke:#000000;stroke-dasharray:5.55,2.4;stroke-dashoffset:0;stroke-width:1.5;"/>
   </g>
   <g id="line2d_17">
    <path clip-path="url(#pf311ddaf99)" d="M 65.835227 237.468995 
L 66.43685 237.468995 
L 66.737661 230.500811 
L 67.068553 230.500811 
L 67.369364 234.681721 
L 67.670175 229.107174 
L 67.970986 229.107174 
L 68.301879 237.468995 
L 68.60269 229.107174 
L 68.903501 229.107174 
L 69.204312 237.468995 
L 69.535204 229.107174 
L 69.836015 237.468995 
L 70.136826 237.468995 
L 70.437638 227.713537 
L 70.76853 237.468995 
L 71.069341 237.468995 
L 71.370152 230.500811 
L 71.670963 237.468995 
L 72.001855 237.468995 
L 72.302667 227.713537 
L 72.603478 237.468995 
L 72.904289 237.468995 
L 73.235181 227.713537 
L 73.535992 237.468995 
L 73.836803 237.468995 
L 74.137614 230.500811 
L 74.468507 237.468995 
L 74.769318 237.468995 
L 75.070129 227.713537 
L 75.37094 237.468995 
L 75.701832 226.3199 
L 76.002643 226.3199 
L 76.303454 237.468995 
L 76.604266 229.107174 
L 76.935158 229.107174 
L 77.235969 237.468995 
L 77.53678 230.500811 
L 77.837591 230.500811 
L 78.168483 234.681721 
L 78.469295 226.3199 
L 78.770106 226.3199 
L 79.070917 237.468995 
L 79.401809 230.500811 
L 79.70262 230.500811 
L 80.003431 237.468995 
L 80.334324 227.713537 
L 80.635135 227.713537 
L 80.935946 237.468995 
L 81.236757 226.3199 
L 81.567649 226.3199 
L 81.86846 237.468995 
L 82.169271 231.894448 
L 82.470083 230.500811 
L 82.800975 230.500811 
L 83.101786 229.107174 
L 83.402597 236.075358 
L 83.703408 236.075358 
L 84.0343 234.681721 
L 84.335112 237.468995 
L 84.635923 237.468995 
L 84.936734 230.500811 
L 85.267626 237.468995 
L 85.568437 237.468995 
L 85.869248 230.500811 
L 86.170059 237.468995 
L 86.500952 237.468995 
L 86.801763 231.894448 
L 87.102574 234.681721 
L 87.403385 234.681721 
L 87.734277 227.713537 
L 88.035088 237.468995 
L 88.3359 227.713537 
L 88.636711 227.713537 
L 88.967603 237.468995 
L 89.268414 229.107174 
L 89.569225 229.107174 
L 89.870036 237.468995 
L 90.200929 230.500811 
L 90.50174 230.500811 
L 90.802551 233.288084 
L 91.434254 233.288084 
L 91.735065 237.468995 
L 92.035876 227.713537 
L 92.336688 227.713537 
L 92.66758 237.468995 
L 120.733258 237.468995 
L 121.034069 222.138989 
L 121.33488 231.894448 
L 121.635691 231.894448 
L 121.966584 223.532626 
L 122.267395 237.468995 
L 122.568206 237.468995 
L 122.869017 213.777167 
L 123.199909 236.075358 
L 123.50072 236.075358 
L 123.801531 229.107174 
L 124.102343 233.288084 
L 124.433235 233.288084 
L 124.734046 220.745352 
L 125.034857 237.468995 
L 125.335668 237.468995 
L 125.66656 217.958078 
L 125.967372 229.107174 
L 126.268183 216.564441 
L 126.599075 216.564441 
L 126.899886 237.468995 
L 127.200697 216.564441 
L 127.501508 216.564441 
L 127.832401 237.468995 
L 128.133212 229.107174 
L 129.366537 229.107174 
L 129.667348 237.468995 
L 129.96816 217.958078 
L 130.299052 217.958078 
L 130.599863 237.468995 
L 130.900674 217.958078 
L 131.201485 217.958078 
L 131.532377 237.468995 
L 131.833189 216.564441 
L 132.134 216.564441 
L 132.434811 230.500811 
L 132.765703 219.351715 
L 133.066514 237.468995 
L 133.367325 237.468995 
L 133.668136 220.745352 
L 133.999029 230.500811 
L 134.29984 230.500811 
L 134.600651 226.3199 
L 134.901462 237.468995 
L 135.232354 237.468995 
L 135.533165 220.745352 
L 135.833977 234.681721 
L 136.46568 234.681721 
L 136.766491 224.926263 
L 137.067302 224.926263 
L 137.368113 223.532626 
L 137.699006 234.681721 
L 137.999817 234.681721 
L 138.300628 227.713537 
L 138.601439 231.894448 
L 138.932331 220.745352 
L 139.233142 220.745352 
L 139.533953 237.468995 
L 139.834765 220.745352 
L 140.165657 220.745352 
L 140.466468 237.468995 
L 140.767279 230.500811 
L 141.06809 230.500811 
L 141.398982 222.138989 
L 142.000605 222.138989 
L 142.301416 237.468995 
L 142.632308 222.138989 
L 142.933119 222.138989 
L 143.23393 237.468995 
L 143.564822 223.532626 
L 143.865634 223.532626 
L 144.166445 237.468995 
L 144.467256 216.564441 
L 144.798148 216.564441 
L 145.098959 237.468995 
L 145.39977 226.3199 
L 145.700581 229.107174 
L 146.031474 229.107174 
L 146.332285 223.532626 
L 146.633096 237.468995 
L 174.397963 237.468995 
L 174.698774 230.500811 
L 175.029666 230.500811 
L 175.330478 215.170804 
L 175.631289 234.681721 
L 175.9321 234.681721 
L 176.262992 205.415345 
L 176.563803 237.468995 
L 176.864614 201.234434 
L 177.165425 201.234434 
L 177.496318 237.468995 
L 177.797129 195.659886 
L 178.09794 195.659886 
L 178.398751 237.468995 
L 178.729643 195.659886 
L 179.030454 195.659886 
L 179.331265 237.468995 
L 179.632077 192.872613 
L 179.962969 192.872613 
L 180.26378 237.468995 
L 180.564591 194.26625 
L 180.865402 194.26625 
L 181.196294 237.468995 
L 181.497106 205.415345 
L 181.797917 205.415345 
L 182.098728 237.468995 
L 182.42962 202.628071 
L 182.730431 237.468995 
L 183.031242 237.468995 
L 183.362135 194.26625 
L 183.662946 237.468995 
L 183.963757 237.468995 
L 184.264568 220.745352 
L 184.59546 217.958078 
L 184.896271 217.958078 
L 185.197082 223.532626 
L 185.497894 220.745352 
L 185.828786 220.745352 
L 186.129597 201.234434 
L 186.430408 234.681721 
L 186.731219 234.681721 
L 187.062111 201.234434 
L 187.362923 220.745352 
L 187.663734 220.745352 
L 187.964545 216.564441 
L 188.295437 237.468995 
L 188.596248 237.468995 
L 188.897059 198.44716 
L 189.19787 237.468995 
L 189.528763 205.415345 
L 189.829574 205.415345 
L 190.130385 237.468995 
L 190.431196 192.872613 
L 190.762088 192.872613 
L 191.062899 237.468995 
L 191.363711 185.904428 
L 191.664522 185.904428 
L 191.995414 213.777167 
L 192.296225 210.989893 
L 192.597036 210.989893 
L 192.897847 233.288084 
L 193.22874 223.532626 
L 193.529551 223.532626 
L 193.830362 222.138989 
L 194.161254 208.202619 
L 194.462065 208.202619 
L 194.762876 227.713537 
L 195.063687 201.234434 
L 195.39458 237.468995 
L 195.695391 237.468995 
L 195.996202 223.532626 
L 196.297013 227.713537 
L 196.627905 227.713537 
L 196.928716 208.202619 
L 197.229528 227.713537 
L 197.530339 227.713537 
L 197.861231 201.234434 
L 198.162042 237.468995 
L 198.462853 237.468995 
L 198.763664 188.691702 
L 199.094557 237.468995 
L 199.395368 237.468995 
L 199.696179 208.202619 
L 199.99699 226.3199 
L 200.327882 226.3199 
L 200.628693 206.808982 
L 200.929504 237.468995 
L 228.995183 237.468995 
L 229.326075 170.574421 
L 229.626886 170.574421 
L 229.927697 237.468995 
L 230.228508 158.031688 
L 230.5594 158.031688 
L 230.860212 237.468995 
L 231.161023 153.850778 
L 231.491915 153.850778 
L 231.792726 234.681721 
L 232.093537 171.968058 
L 232.394348 237.468995 
L 232.725241 237.468995 
L 233.026052 198.44716 
L 233.326863 237.468995 
L 233.627674 237.468995 
L 233.958566 173.361695 
L 234.259377 217.958078 
L 234.560188 217.958078 
L 234.861 185.904428 
L 235.191892 229.107174 
L 235.492703 229.107174 
L 235.793514 191.478976 
L 236.094325 237.468995 
L 236.425217 237.468995 
L 236.726029 178.936243 
L 237.02684 237.468995 
L 237.327651 237.468995 
L 237.658543 188.691702 
L 237.959354 237.468995 
L 238.260165 237.468995 
L 238.560976 178.936243 
L 238.891869 237.468995 
L 239.19268 183.117154 
L 239.493491 183.117154 
L 239.824383 236.075358 
L 240.125194 183.117154 
L 240.426005 183.117154 
L 240.726817 223.532626 
L 241.057709 192.872613 
L 241.35852 192.872613 
L 241.659331 237.468995 
L 241.960142 208.202619 
L 242.291034 208.202619 
L 242.591846 209.596256 
L 242.892657 222.138989 
L 243.193468 222.138989 
L 243.52436 215.170804 
L 243.825171 220.745352 
L 244.125982 220.745352 
L 244.426793 209.596256 
L 244.757686 192.872613 
L 245.058497 229.107174 
L 245.359308 229.107174 
L 245.660119 206.808982 
L 245.991011 229.107174 
L 246.291822 229.107174 
L 246.592633 204.021708 
L 246.893445 229.107174 
L 247.224337 229.107174 
L 247.525148 208.202619 
L 248.12677 208.202619 
L 248.457662 216.564441 
L 248.758474 213.777167 
L 249.059285 213.777167 
L 249.360096 197.053523 
L 249.690988 210.989893 
L 249.991799 210.989893 
L 250.29261 195.659886 
L 250.623503 208.202619 
L 250.924314 160.818962 
L 251.225125 160.818962 
L 251.525936 231.894448 
L 251.856828 184.510791 
L 252.157639 184.510791 
L 252.45845 236.075358 
L 252.759262 197.053523 
L 253.090154 197.053523 
L 253.390965 223.532626 
L 253.691776 185.904428 
L 253.992587 185.904428 
L 254.323479 236.075358 
L 254.624291 205.415345 
L 254.925102 205.415345 
L 255.556805 237.468995 
L 283.321672 237.468995 
L 283.622483 92.530751 
L 283.923294 144.095319 
L 284.254187 144.095319 
L 284.554998 152.457141 
L 284.855809 234.681721 
L 285.15662 234.681721 
L 285.487512 187.298065 
L 285.788323 217.958078 
L 286.089134 217.958078 
L 286.389946 185.904428 
L 286.720838 233.288084 
L 287.021649 233.288084 
L 287.32246 209.596256 
L 287.623271 216.564441 
L 287.954163 190.085339 
L 288.254975 190.085339 
L 288.555786 230.500811 
L 288.856597 181.723517 
L 289.187489 181.723517 
L 289.4883 229.107174 
L 289.789111 197.053523 
L 290.120004 197.053523 
L 290.420815 220.745352 
L 290.721626 188.691702 
L 291.022437 188.691702 
L 291.353329 220.745352 
L 291.65414 192.872613 
L 291.954951 192.872613 
L 292.255763 217.958078 
L 292.586655 213.777167 
L 292.887466 213.777167 
L 293.188277 216.564441 
L 293.489088 198.44716 
L 293.81998 198.44716 
L 294.120792 202.628071 
L 294.421603 199.840797 
L 294.722414 205.415345 
L 295.053306 205.415345 
L 295.354117 183.117154 
L 295.654928 204.021708 
L 295.955739 204.021708 
L 296.286632 178.936243 
L 296.587443 212.38353 
L 296.888254 212.38353 
L 297.219146 194.26625 
L 297.519957 204.021708 
L 297.820768 204.021708 
L 298.12158 177.542606 
L 298.452472 223.532626 
L 298.753283 223.532626 
L 299.054094 178.936243 
L 299.354905 222.138989 
L 299.685797 222.138989 
L 299.986609 191.478976 
L 300.28742 195.659886 
L 300.588231 229.107174 
L 300.919123 229.107174 
L 301.219934 188.691702 
L 301.520745 210.989893 
L 301.821556 210.989893 
L 302.152449 190.085339 
L 302.45326 181.723517 
L 302.754071 181.723517 
L 303.084963 205.415345 
L 303.385774 199.840797 
L 303.987397 199.840797 
L 304.318289 191.478976 
L 304.6191 191.478976 
L 305.220722 219.351715 
L 305.551614 219.351715 
L 305.852426 167.787147 
L 306.153237 227.713537 
L 306.454048 173.361695 
L 306.78494 173.361695 
L 307.085751 215.170804 
L 307.386562 190.085339 
L 307.687373 190.085339 
L 308.018266 197.053523 
L 308.319077 191.478976 
L 308.619888 191.478976 
L 308.95078 208.202619 
L 309.251591 188.691702 
L 309.552402 188.691702 
L 309.853214 237.468995 
L 337.347351 237.468995 
L 337.648162 146.882593 
L 337.948973 146.882593 
L 338.249784 22.848903 
L 338.580676 138.520771 
L 338.881487 138.520771 
L 339.182298 139.914408 
L 339.48311 142.701682 
L 339.814002 142.701682 
L 340.114813 227.713537 
L 340.415624 160.818962 
L 340.746516 160.818962 
L 341.047327 216.564441 
L 341.348139 171.968058 
L 341.64895 171.968058 
L 341.979842 210.989893 
L 342.280653 183.117154 
L 342.581464 174.755332 
L 342.882275 174.755332 
L 343.513979 210.989893 
L 343.81479 210.989893 
L 344.145682 188.691702 
L 344.446493 195.659886 
L 344.747304 195.659886 
L 345.048115 198.44716 
L 345.379008 192.872613 
L 345.679819 192.872613 
L 345.98063 187.298065 
L 346.281441 213.777167 
L 346.612333 213.777167 
L 347.213955 194.26625 
L 347.514767 194.26625 
L 348.14647 201.234434 
L 348.447281 201.234434 
L 348.748092 205.415345 
L 349.078984 194.26625 
L 349.379796 205.415345 
L 349.680607 205.415345 
L 350.011499 185.904428 
L 350.31231 213.777167 
L 350.613121 213.777167 
L 350.913932 192.872613 
L 351.244825 213.777167 
L 351.545636 213.777167 
L 351.846447 184.510791 
L 352.147258 213.777167 
L 352.47815 213.777167 
L 352.778961 185.904428 
L 353.079772 213.777167 
L 353.410665 213.777167 
L 353.711476 164.999873 
L 354.012287 220.745352 
L 354.313098 220.745352 
L 354.64399 164.999873 
L 354.944801 233.288084 
L 355.245613 148.27623 
L 355.546424 148.27623 
L 355.877316 234.681721 
L 356.178127 160.818962 
L 356.478938 160.818962 
L 356.779749 216.564441 
L 357.110642 184.510791 
L 357.411453 184.510791 
L 357.712264 223.532626 
L 358.013075 176.148969 
L 358.343967 176.148969 
L 358.644778 229.107174 
L 358.945589 187.298065 
L 359.276482 187.298065 
L 359.577293 223.532626 
L 359.878104 174.755332 
L 360.178915 174.755332 
L 360.509807 224.926263 
L 360.810618 173.361695 
L 361.11143 216.564441 
L 361.412241 216.564441 
L 361.743133 180.32988 
L 362.043944 230.500811 
L 362.344755 230.500811 
L 362.675647 181.723517 
L 362.976459 222.138989 
L 363.27727 222.138989 
L 363.578081 176.148969 
L 363.908973 229.107174 
L 364.209784 229.107174 
L 364.510595 237.468995 
L 379.039773 237.468995 
L 379.039773 237.468995 
" style="fill:none;stroke:#0000ff;stroke-dasharray:1.5,2.475;stroke-dashoffset:0;stroke-width:1.5;"/>
   </g>
   <g id="patch_3">
    <path d="M 50.175 248.2 
L 50.175 12.117898 
" style="fill:none;stroke:#000000;stroke-linecap:square;stroke-linejoin:miter;stroke-width:0.8;"/>
   </g>
   <g id="patch_4">
    <path d="M 394.7 248.2 
L 394.7 12.117898 
" style="fill:none;stroke:#000000;stroke-linecap:square;stroke-linejoin:miter;stroke-width:0.8;"/>
   </g>
   <g id="patch_5">
    <path d="M 50.175 248.2 
L 394.7 248.2 
" style="fill:none;stroke:#000000;stroke-linecap:square;stroke-linejoin:miter;stroke-width:0.8;"/>
   </g>
   <g id="patch_6">
    <path d="M 50.175 12.117898 
L 394.7 12.117898 
" style="fill:none;stroke:#000000;stroke-linecap:square;stroke-linejoin:miter;stroke-width:0.8;"/>
   </g>
   <g id="text_18">
    <!-- 30 -->
    <g transform="translate(71.279909 223.532626)scale(0.1 -0.1)">
     <defs>
      <path d="M 622 4469 
Q 988 4606 1323 4678 
Q 1659 4750 1953 4750 
Q 2638 4750 3022 4454 
Q 3406 4159 3406 3634 
Q 3406 3213 3140 2930 
Q 2875 2647 2388 2547 
Q 2963 2466 3280 2130 
Q 3597 1794 3597 1259 
Q 3597 606 3158 257 
Q 2719 -91 1894 -91 
Q 1528 -91 1179 -12 
Q 831 66 488 225 
L 488 1131 
L 838 1131 
Q 869 681 1141 450 
Q 1413 219 1906 219 
Q 2384 219 2661 495 
Q 2938 772 2938 1253 
Q 2938 1803 2653 2086 
Q 2369 2369 1819 2369 
L 1522 2369 
L 1522 2688 
L 1678 2688 
Q 2225 2688 2498 2914 
Q 2772 3141 2772 3597 
Q 2772 4006 2547 4223 
Q 2322 4441 1900 4441 
Q 1478 4441 1245 4241 
Q 1013 4041 972 3647 
L 622 3647 
L 622 4469 
z
" id="DejaVuSerif-33" transform="scale(0.015625)"/>
     </defs>
     <use xlink:href="#DejaVuSerif-33"/>
     <use x="63.623047" xlink:href="#DejaVuSerif-30"/>
    </g>
   </g>
   <g id="text_19">
    <!-- 60 -->
    <g transform="translate(125.275506 209.596256)scale(0.1 -0.1)">
     <use xlink:href="#DejaVuSerif-36"/>
     <use x="63.623047" xlink:href="#DejaVuSerif-30"/>
    </g>
   </g>
   <g id="text_20">
    <!-- 120 -->
    <g transform="translate(179.571914 181.723517)scale(0.1 -0.1)">
     <use xlink:href="#DejaVuSerif-31"/>
     <use x="63.623047" xlink:href="#DejaVuSerif-32"/>
     <use x="127.246094" xlink:href="#DejaVuSerif-30"/>
    </g>
   </g>
   <g id="text_21">
    <!-- 240 -->
    <g transform="translate(234.169134 153.850778)scale(0.1 -0.1)">
     <use xlink:href="#DejaVuSerif-32"/>
     <use x="63.623047" xlink:href="#DejaVuSerif-34"/>
     <use x="127.246094" xlink:href="#DejaVuSerif-30"/>
    </g>
   </g>
   <g id="text_22">
    <!-- 480 -->
    <g transform="translate(288.495623 139.914408)scale(0.1 -0.1)">
     <use xlink:href="#DejaVuSerif-34"/>
     <use x="63.623047" xlink:href="#DejaVuSerif-38"/>
     <use x="127.246094" xlink:href="#DejaVuSerif-30"/>
    </g>
   </g>
   <g id="text_23">
    <!-- 960 -->
    <g transform="translate(342.521302 125.978038)scale(0.1 -0.1)">
     <defs>
      <path d="M 2994 2091 
Q 2784 1856 2512 1740 
Q 2241 1625 1900 1625 
Q 1206 1625 804 2044 
Q 403 2463 403 3188 
Q 403 3897 839 4323 
Q 1275 4750 2003 4750 
Q 2794 4750 3217 4161 
Q 3641 3572 3641 2478 
Q 3641 1253 3137 581 
Q 2634 -91 1722 -91 
Q 1475 -91 1203 -44 
Q 931 3 647 97 
L 647 872 
L 997 872 
Q 1038 556 1241 387 
Q 1444 219 1784 219 
Q 2391 219 2687 676 
Q 2984 1134 2994 2091 
z
M 1978 4441 
Q 1534 4441 1298 4117 
Q 1063 3794 1063 3188 
Q 1063 2581 1298 2256 
Q 1534 1931 1978 1931 
Q 2422 1931 2658 2245 
Q 2894 2559 2894 3150 
Q 2894 3772 2656 4106 
Q 2419 4441 1978 4441 
z
" id="DejaVuSerif-39" transform="scale(0.015625)"/>
     </defs>
     <use xlink:href="#DejaVuSerif-39"/>
     <use x="63.623047" xlink:href="#DejaVuSerif-36"/>
     <use x="127.246094" xlink:href="#DejaVuSerif-30"/>
    </g>
   </g>
   <g id="legend_1">
    <g id="patch_7">
     <path d="M 57.175 49.616336 
L 178.354688 49.616336 
Q 180.354688 49.616336 180.354688 47.616336 
L 180.354688 19.117898 
Q 180.354688 17.117898 178.354688 17.117898 
L 57.175 17.117898 
Q 55.175 17.117898 55.175 19.117898 
L 55.175 47.616336 
Q 55.175 49.616336 57.175 49.616336 
z
" style="fill:#ffffff;opacity:0.8;stroke:#cccccc;stroke-linejoin:miter;"/>
    </g>
    <g id="line2d_18">
     <path d="M 59.175 25.216336 
L 79.175 25.216336 
" style="fill:none;stroke:#000000;stroke-dasharray:5.55,2.4;stroke-dashoffset:0;stroke-width:1.5;"/>
    </g>
    <g id="line2d_19"/>
    <g id="text_24">
     <!-- Scaling threshold -->
     <g transform="translate(87.175 28.716336)scale(0.1 -0.1)">
      <defs>
       <path d="M 594 225 
L 594 1288 
L 953 1284 
Q 969 753 1261 498 
Q 1553 244 2150 244 
Q 2706 244 2998 464 
Q 3291 684 3291 1106 
Q 3291 1444 3114 1625 
Q 2938 1806 2369 1978 
L 1753 2163 
Q 1084 2366 811 2669 
Q 538 2972 538 3500 
Q 538 4094 959 4422 
Q 1381 4750 2144 4750 
Q 2469 4750 2856 4679 
Q 3244 4609 3681 4475 
L 3681 3481 
L 3328 3481 
Q 3275 3975 2998 4195 
Q 2722 4416 2156 4416 
Q 1663 4416 1405 4214 
Q 1147 4013 1147 3628 
Q 1147 3294 1340 3103 
Q 1534 2913 2163 2725 
L 2741 2553 
Q 3375 2363 3645 2067 
Q 3916 1772 3916 1275 
Q 3916 597 3481 253 
Q 3047 -91 2188 -91 
Q 1803 -91 1404 -12 
Q 1006 66 594 225 
z
" id="DejaVuSerif-53" transform="scale(0.015625)"/>
       <path d="M 3359 2988 
L 3359 72 
Q 3359 -644 2965 -1033 
Q 2572 -1422 1844 -1422 
Q 1516 -1422 1216 -1362 
Q 916 -1303 641 -1184 
L 641 -488 
L 941 -488 
Q 997 -813 1206 -963 
Q 1416 -1113 1806 -1113 
Q 2313 -1113 2548 -827 
Q 2784 -541 2784 72 
L 2784 519 
Q 2616 206 2355 57 
Q 2094 -91 1709 -91 
Q 1097 -91 708 395 
Q 319 881 319 1663 
Q 319 2444 706 2928 
Q 1094 3413 1709 3413 
Q 2094 3413 2355 3264 
Q 2616 3116 2784 2803 
L 2784 3322 
L 3909 3322 
L 3909 2988 
L 3359 2988 
z
M 2784 1825 
Q 2784 2422 2554 2737 
Q 2325 3053 1888 3053 
Q 1444 3053 1217 2703 
Q 991 2353 991 1663 
Q 991 975 1217 622 
Q 1444 269 1888 269 
Q 2325 269 2554 583 
Q 2784 897 2784 1497 
L 2784 1825 
z
" id="DejaVuSerif-67" transform="scale(0.015625)"/>
       <path d="M 263 0 
L 263 331 
L 781 331 
L 781 4531 
L 231 4531 
L 231 4863 
L 1356 4863 
L 1356 2731 
Q 1516 3069 1770 3241 
Q 2025 3413 2363 3413 
Q 2913 3413 3172 3097 
Q 3431 2781 3431 2113 
L 3431 331 
L 3944 331 
L 3944 0 
L 2356 0 
L 2356 331 
L 2853 331 
L 2853 1931 
Q 2853 2541 2704 2764 
Q 2556 2988 2175 2988 
Q 1775 2988 1565 2697 
Q 1356 2406 1356 1850 
L 1356 331 
L 1856 331 
L 1856 0 
L 263 0 
z
" id="DejaVuSerif-68" transform="scale(0.015625)"/>
       <path d="M 3059 3328 
L 3059 2497 
L 2728 2497 
Q 2713 2744 2591 2866 
Q 2469 2988 2234 2988 
Q 1809 2988 1582 2694 
Q 1356 2400 1356 1850 
L 1356 331 
L 2022 331 
L 2022 0 
L 263 0 
L 263 331 
L 781 331 
L 781 2994 
L 231 2994 
L 231 3322 
L 1356 3322 
L 1356 2731 
Q 1525 3078 1790 3245 
Q 2056 3413 2438 3413 
Q 2578 3413 2733 3391 
Q 2888 3369 3059 3328 
z
" id="DejaVuSerif-72" transform="scale(0.015625)"/>
       <path d="M 3359 331 
L 3909 331 
L 3909 0 
L 2784 0 
L 2784 519 
Q 2616 206 2355 57 
Q 2094 -91 1709 -91 
Q 1097 -91 708 395 
Q 319 881 319 1663 
Q 319 2444 706 2928 
Q 1094 3413 1709 3413 
Q 2094 3413 2355 3264 
Q 2616 3116 2784 2803 
L 2784 4531 
L 2241 4531 
L 2241 4863 
L 3359 4863 
L 3359 331 
z
M 2784 1497 
L 2784 1825 
Q 2784 2422 2554 2737 
Q 2325 3053 1888 3053 
Q 1444 3053 1217 2703 
Q 991 2353 991 1663 
Q 991 975 1217 622 
Q 1444 269 1888 269 
Q 2325 269 2554 583 
Q 2784 897 2784 1497 
z
" id="DejaVuSerif-64" transform="scale(0.015625)"/>
      </defs>
      <use xlink:href="#DejaVuSerif-53"/>
      <use x="68.505859" xlink:href="#DejaVuSerif-63"/>
      <use x="124.511719" xlink:href="#DejaVuSerif-61"/>
      <use x="184.130859" xlink:href="#DejaVuSerif-6c"/>
      <use x="216.113281" xlink:href="#DejaVuSerif-69"/>
      <use x="248.095703" xlink:href="#DejaVuSerif-6e"/>
      <use x="312.5" xlink:href="#DejaVuSerif-67"/>
      <use x="376.513672" xlink:href="#DejaVuSerif-20"/>
      <use x="408.300781" xlink:href="#DejaVuSerif-74"/>
      <use x="448.486328" xlink:href="#DejaVuSerif-68"/>
      <use x="512.890625" xlink:href="#DejaVuSerif-72"/>
      <use x="560.693359" xlink:href="#DejaVuSerif-65"/>
      <use x="619.873047" xlink:href="#DejaVuSerif-73"/>
      <use x="671.191406" xlink:href="#DejaVuSerif-68"/>
      <use x="735.595703" xlink:href="#DejaVuSerif-6f"/>
      <use x="795.800781" xlink:href="#DejaVuSerif-6c"/>
      <use x="827.783203" xlink:href="#DejaVuSerif-64"/>
     </g>
    </g>
    <g id="line2d_20">
     <path d="M 59.175 40.036648 
L 79.175 40.036648 
" style="fill:none;stroke:#0000ff;stroke-dasharray:1.5,2.475;stroke-dashoffset:0;stroke-width:1.5;"/>
    </g>
    <g id="line2d_21"/>
    <g id="text_25">
     <!-- Utilization -->
     <g transform="translate(87.175 43.536648)scale(0.1 -0.1)">
      <use xlink:href="#DejaVuSerif-55"/>
      <use x="84.277344" xlink:href="#DejaVuSerif-74"/>
      <use x="124.462891" xlink:href="#DejaVuSerif-69"/>
      <use x="156.445312" xlink:href="#DejaVuSerif-6c"/>
      <use x="188.427734" xlink:href="#DejaVuSerif-69"/>
      <use x="220.410156" xlink:href="#DejaVuSerif-7a"/>
      <use x="273.095703" xlink:href="#DejaVuSerif-61"/>
      <use x="332.714844" xlink:href="#DejaVuSerif-74"/>
      <use x="372.900391" xlink:href="#DejaVuSerif-69"/>
      <use x="404.882812" xlink:href="#DejaVuSerif-6f"/>
      <use x="465.087891" xlink:href="#DejaVuSerif-6e"/>
     </g>
    </g>
   </g>
  </g>
  <g id="axes_2">
   <g id="matplotlib.axis_3">
    <g id="ytick_10">
     <g id="line2d_22">
      <defs>
       <path d="M 0 0 
L 3.5 0 
" id="m9381149c5d" style="stroke:#000000;stroke-width:0.8;"/>
      </defs>
      <g>
       <use style="stroke:#000000;stroke-width:0.8;" x="394.7" xlink:href="#m9381149c5d" y="237.468995"/>
      </g>
     </g>
     <g id="text_26">
      <!-- 2 -->
      <g transform="translate(401.7 241.268214)scale(0.1 -0.1)">
       <use xlink:href="#DejaVuSerif-32"/>
      </g>
     </g>
    </g>
    <g id="ytick_11">
     <g id="line2d_23">
      <g>
       <use style="stroke:#000000;stroke-width:0.8;" x="394.7" xlink:href="#m9381149c5d" y="206.808982"/>
      </g>
     </g>
     <g id="text_27">
      <!-- 3 -->
      <g transform="translate(401.7 210.608201)scale(0.1 -0.1)">
       <use xlink:href="#DejaVuSerif-33"/>
      </g>
     </g>
    </g>
    <g id="ytick_12">
     <g id="line2d_24">
      <g>
       <use style="stroke:#000000;stroke-width:0.8;" x="394.7" xlink:href="#m9381149c5d" y="176.148969"/>
      </g>
     </g>
     <g id="text_28">
      <!-- 4 -->
      <g transform="translate(401.7 179.948188)scale(0.1 -0.1)">
       <use xlink:href="#DejaVuSerif-34"/>
      </g>
     </g>
    </g>
    <g id="ytick_13">
     <g id="line2d_25">
      <g>
       <use style="stroke:#000000;stroke-width:0.8;" x="394.7" xlink:href="#m9381149c5d" y="145.488956"/>
      </g>
     </g>
     <g id="text_29">
      <!-- 5 -->
      <g transform="translate(401.7 149.288175)scale(0.1 -0.1)">
       <defs>
        <path d="M 3219 4666 
L 3219 4153 
L 1081 4153 
L 1081 2816 
Q 1244 2928 1461 2984 
Q 1678 3041 1947 3041 
Q 2703 3041 3140 2622 
Q 3578 2203 3578 1478 
Q 3578 738 3136 323 
Q 2694 -91 1894 -91 
Q 1572 -91 1234 -12 
Q 897 66 544 225 
L 544 1131 
L 897 1131 
Q 925 688 1179 453 
Q 1434 219 1894 219 
Q 2388 219 2653 544 
Q 2919 869 2919 1478 
Q 2919 2084 2655 2407 
Q 2391 2731 1894 2731 
Q 1613 2731 1398 2631 
Q 1184 2531 1019 2322 
L 750 2322 
L 750 4666 
L 3219 4666 
z
" id="DejaVuSerif-35" transform="scale(0.015625)"/>
       </defs>
       <use xlink:href="#DejaVuSerif-35"/>
      </g>
     </g>
    </g>
    <g id="ytick_14">
     <g id="line2d_26">
      <g>
       <use style="stroke:#000000;stroke-width:0.8;" x="394.7" xlink:href="#m9381149c5d" y="114.828943"/>
      </g>
     </g>
     <g id="text_30">
      <!-- 6 -->
      <g transform="translate(401.7 118.628161)scale(0.1 -0.1)">
       <use xlink:href="#DejaVuSerif-36"/>
      </g>
     </g>
    </g>
    <g id="ytick_15">
     <g id="line2d_27">
      <g>
       <use style="stroke:#000000;stroke-width:0.8;" x="394.7" xlink:href="#m9381149c5d" y="84.168929"/>
      </g>
     </g>
     <g id="text_31">
      <!-- 7 -->
      <g transform="translate(401.7 87.968148)scale(0.1 -0.1)">
       <defs>
        <path d="M 3609 4347 
L 1784 0 
L 1319 0 
L 3059 4153 
L 903 4153 
L 903 3578 
L 538 3578 
L 538 4666 
L 3609 4666 
L 3609 4347 
z
" id="DejaVuSerif-37" transform="scale(0.015625)"/>
       </defs>
       <use xlink:href="#DejaVuSerif-37"/>
      </g>
     </g>
    </g>
    <g id="ytick_16">
     <g id="line2d_28">
      <g>
       <use style="stroke:#000000;stroke-width:0.8;" x="394.7" xlink:href="#m9381149c5d" y="53.508916"/>
      </g>
     </g>
     <g id="text_32">
      <!-- 8 -->
      <g transform="translate(401.7 57.308135)scale(0.1 -0.1)">
       <use xlink:href="#DejaVuSerif-38"/>
      </g>
     </g>
    </g>
    <g id="ytick_17">
     <g id="line2d_29">
      <g>
       <use style="stroke:#000000;stroke-width:0.8;" x="394.7" xlink:href="#m9381149c5d" y="22.848903"/>
      </g>
     </g>
     <g id="text_33">
      <!-- 9 -->
      <g transform="translate(401.7 26.648122)scale(0.1 -0.1)">
       <use xlink:href="#DejaVuSerif-39"/>
      </g>
     </g>
    </g>
    <g id="text_34">
     <!-- Number of Replicas -->
     <g transform="translate(419.660937 180.555043)rotate(-90)scale(0.1 -0.1)">
      <defs>
       <path d="M 313 0 
L 313 331 
L 941 331 
L 941 4331 
L 313 4331 
L 313 4666 
L 1509 4666 
L 4306 984 
L 4306 4331 
L 3681 4331 
L 3681 4666 
L 5319 4666 
L 5319 4331 
L 4691 4331 
L 4691 -91 
L 4313 -91 
L 1325 3841 
L 1325 331 
L 1953 331 
L 1953 0 
L 313 0 
z
" id="DejaVuSerif-4e" transform="scale(0.015625)"/>
       <path d="M 738 331 
L 738 4531 
L 184 4531 
L 184 4863 
L 1313 4863 
L 1313 2803 
Q 1481 3116 1742 3264 
Q 2003 3413 2388 3413 
Q 3000 3413 3387 2928 
Q 3775 2444 3775 1663 
Q 3775 881 3387 395 
Q 3000 -91 2388 -91 
Q 2003 -91 1742 57 
Q 1481 206 1313 519 
L 1313 0 
L 184 0 
L 184 331 
L 738 331 
z
M 1313 1497 
Q 1313 897 1542 583 
Q 1772 269 2209 269 
Q 2650 269 2876 622 
Q 3103 975 3103 1663 
Q 3103 2353 2876 2703 
Q 2650 3053 2209 3053 
Q 1772 3053 1542 2737 
Q 1313 2422 1313 1825 
L 1313 1497 
z
" id="DejaVuSerif-62" transform="scale(0.015625)"/>
       <path d="M 2753 4078 
L 2450 4078 
Q 2447 4313 2317 4434 
Q 2188 4556 1941 4556 
Q 1619 4556 1487 4379 
Q 1356 4203 1356 3750 
L 1356 3322 
L 2284 3322 
L 2284 2988 
L 1356 2988 
L 1356 331 
L 2094 331 
L 2094 0 
L 231 0 
L 231 331 
L 781 331 
L 781 2988 
L 231 2988 
L 231 3322 
L 781 3322 
L 781 3738 
Q 781 4294 1070 4578 
Q 1359 4863 1919 4863 
Q 2128 4863 2337 4825 
Q 2547 4788 2753 4709 
L 2753 4078 
z
" id="DejaVuSerif-66" transform="scale(0.015625)"/>
       <path d="M 1313 1825 
L 1313 1497 
Q 1313 897 1542 583 
Q 1772 269 2209 269 
Q 2650 269 2876 622 
Q 3103 975 3103 1663 
Q 3103 2353 2876 2703 
Q 2650 3053 2209 3053 
Q 1772 3053 1542 2737 
Q 1313 2422 1313 1825 
z
M 738 2988 
L 184 2988 
L 184 3322 
L 1313 3322 
L 1313 2803 
Q 1481 3116 1742 3264 
Q 2003 3413 2388 3413 
Q 3000 3413 3387 2928 
Q 3775 2444 3775 1663 
Q 3775 881 3387 395 
Q 3000 -91 2388 -91 
Q 2003 -91 1742 57 
Q 1481 206 1313 519 
L 1313 -997 
L 1856 -997 
L 1856 -1331 
L 184 -1331 
L 184 -997 
L 738 -997 
L 738 2988 
z
" id="DejaVuSerif-70" transform="scale(0.015625)"/>
      </defs>
      <use xlink:href="#DejaVuSerif-4e"/>
      <use x="87.5" xlink:href="#DejaVuSerif-75"/>
      <use x="151.904297" xlink:href="#DejaVuSerif-6d"/>
      <use x="246.728516" xlink:href="#DejaVuSerif-62"/>
      <use x="310.742188" xlink:href="#DejaVuSerif-65"/>
      <use x="369.921875" xlink:href="#DejaVuSerif-72"/>
      <use x="417.724609" xlink:href="#DejaVuSerif-20"/>
      <use x="449.511719" xlink:href="#DejaVuSerif-6f"/>
      <use x="509.716797" xlink:href="#DejaVuSerif-66"/>
      <use x="546.728516" xlink:href="#DejaVuSerif-20"/>
      <use x="578.515625" xlink:href="#DejaVuSerif-52"/>
      <use x="653.808594" xlink:href="#DejaVuSerif-65"/>
      <use x="712.988281" xlink:href="#DejaVuSerif-70"/>
      <use x="777.001953" xlink:href="#DejaVuSerif-6c"/>
      <use x="808.984375" xlink:href="#DejaVuSerif-69"/>
      <use x="840.966797" xlink:href="#DejaVuSerif-63"/>
      <use x="896.972656" xlink:href="#DejaVuSerif-61"/>
      <use x="956.591797" xlink:href="#DejaVuSerif-73"/>
     </g>
    </g>
   </g>
   <g id="line2d_30">
    <path clip-path="url(#pf311ddaf99)" d="M 65.835227 237.468995 
L 230.5594 237.468995 
L 230.860212 206.808982 
L 249.360096 206.808982 
L 249.690988 237.468995 
L 251.225125 237.468995 
L 251.525936 206.808982 
L 262.956759 206.808982 
L 263.25757 237.468995 
L 283.622483 237.468995 
L 283.923294 176.148969 
L 284.254187 176.148969 
L 284.554998 145.488956 
L 293.81998 145.488956 
L 294.120792 176.148969 
L 315.71903 176.148969 
L 316.049923 206.808982 
L 318.516574 206.808982 
L 318.817385 237.468995 
L 337.948973 237.468995 
L 338.249784 206.808982 
L 338.580676 114.828943 
L 338.881487 114.828943 
L 339.182298 84.168929 
L 340.746516 84.168929 
L 341.047327 53.508916 
L 351.846447 53.508916 
L 352.147258 84.168929 
L 355.546424 84.168929 
L 355.877316 22.848903 
L 370.075601 22.848903 
L 370.376412 53.508916 
L 372.542252 53.508916 
L 372.843064 237.468995 
L 379.039773 237.468995 
L 379.039773 237.468995 
" style="fill:none;stroke:#ff0000;stroke-linecap:square;stroke-width:1.5;"/>
   </g>
   <g id="patch_8">
    <path d="M 50.175 248.2 
L 50.175 12.117898 
" style="fill:none;stroke:#000000;stroke-linecap:square;stroke-linejoin:miter;stroke-width:0.8;"/>
   </g>
   <g id="patch_9">
    <path d="M 394.7 248.2 
L 394.7 12.117898 
" style="fill:none;stroke:#000000;stroke-linecap:square;stroke-linejoin:miter;stroke-width:0.8;"/>
   </g>
   <g id="patch_10">
    <path d="M 50.175 248.2 
L 394.7 248.2 
" style="fill:none;stroke:#000000;stroke-linecap:square;stroke-linejoin:miter;stroke-width:0.8;"/>
   </g>
   <g id="patch_11">
    <path d="M 50.175 12.117898 
L 394.7 12.117898 
" style="fill:none;stroke:#000000;stroke-linecap:square;stroke-linejoin:miter;stroke-width:0.8;"/>
   </g>
   <g id="text_35">
    <!-- (c) -->
    <g transform="translate(378.256761 40.785011)scale(0.1 -0.1)">
     <defs>
      <path d="M 2041 -997 
Q 1281 -656 893 83 
Q 506 822 506 1931 
Q 506 3044 893 3783 
Q 1281 4522 2041 4863 
L 2041 4556 
Q 1559 4225 1350 3623 
Q 1141 3022 1141 1931 
Q 1141 844 1350 242 
Q 1559 -359 2041 -691 
L 2041 -997 
z
" id="DejaVuSerif-28" transform="scale(0.015625)"/>
      <path d="M 453 -997 
L 453 -691 
Q 934 -359 1145 242 
Q 1356 844 1356 1931 
Q 1356 3022 1145 3623 
Q 934 4225 453 4556 
L 453 4863 
Q 1216 4522 1603 3783 
Q 1991 3044 1991 1931 
Q 1991 822 1603 83 
Q 1216 -656 453 -997 
z
" id="DejaVuSerif-29" transform="scale(0.015625)"/>
     </defs>
     <use xlink:href="#DejaVuSerif-28"/>
     <use x="39.013672" xlink:href="#DejaVuSerif-63"/>
     <use x="95.019531" xlink:href="#DejaVuSerif-29"/>
    </g>
   </g>
   <g id="legend_2">
    <g id="patch_12">
     <path d="M 184.967187 34.796023 
L 259.907812 34.796023 
Q 261.907812 34.796023 261.907812 32.796023 
L 261.907812 19.117898 
Q 261.907812 17.117898 259.907812 17.117898 
L 184.967187 17.117898 
Q 182.967187 17.117898 182.967187 19.117898 
L 182.967187 32.796023 
Q 182.967187 34.796023 184.967187 34.796023 
z
" style="fill:#ffffff;opacity:0.8;stroke:#cccccc;stroke-linejoin:miter;"/>
    </g>
    <g id="line2d_31">
     <path d="M 186.967187 25.216336 
L 206.967187 25.216336 
" style="fill:none;stroke:#ff0000;stroke-linecap:square;stroke-width:1.5;"/>
    </g>
    <g id="line2d_32"/>
    <g id="text_36">
     <!-- Replicas -->
     <g transform="translate(214.967187 28.716336)scale(0.1 -0.1)">
      <use xlink:href="#DejaVuSerif-52"/>
      <use x="75.292969" xlink:href="#DejaVuSerif-65"/>
      <use x="134.472656" xlink:href="#DejaVuSerif-70"/>
      <use x="198.486328" xlink:href="#DejaVuSerif-6c"/>
      <use x="230.46875" xlink:href="#DejaVuSerif-69"/>
      <use x="262.451172" xlink:href="#DejaVuSerif-63"/>
      <use x="318.457031" xlink:href="#DejaVuSerif-61"/>
      <use x="378.076172" xlink:href="#DejaVuSerif-73"/>
     </g>
    </g>
   </g>
  </g>
 </g>
 <defs>
  <clipPath id="pf311ddaf99">
   <rect height="236.082102" width="344.525" x="50.175" y="12.117898"/>
  </clipPath>
 </defs>
</svg>
